<?xml version="1.0" encoding="utf-8"?>
<!-- Generator: Adobe Illustrator 16.0.0, SVG Export Plug-In . SVG Version: 6.00 Build 0)  -->
<!DOCTYPE svg PUBLIC "-//W3C//DTD SVG 1.0//EN" "http://www.w3.org/TR/2001/REC-SVG-20010904/DTD/svg10.dtd">
<svg version="1.0" id="Calque_1" xmlns="http://www.w3.org/2000/svg" xmlns:xlink="http://www.w3.org/1999/xlink" x="0px" y="0px"
	 width="480px" height="172.143px" viewBox="0 0 480 172.143" enable-background="new 0 0 480 172.143" xml:space="preserve">
<linearGradient id="SVGID_1_" gradientUnits="userSpaceOnUse" x1="98.3936" y1="254.6221" x2="381.3246" y2="-82.562">
	<stop  offset="0" style="stop-color:#F15A24"/>
	<stop  offset="0.3533" style="stop-color:#DF7643"/>
	<stop  offset="0.7672" style="stop-color:#CD9261"/>
	<stop  offset="1" style="stop-color:#C69C6D"/>
</linearGradient>
<rect fill="url(#SVGID_1_)" width="479.719" height="172.061"/>
<g>
	<path fill="#431C24" d="M343.786,172.143c0.546-9.304,1.39-18.782,2.718-28.926c0.223-0.91,0.45-1.812,0.686-2.732
		c1.042-3.963,2.302-8.02,3.805-12.158c0.244-0.629,0.479-1.268,0.746-1.941c2.494-9.258,9.678-15.531,12.498-24.285
		c0.383-0.635,0.81-1.371,1.23-2.104c0.835-1.461,1.65-2.9,2.422-4.33c0.51-0.742,1.03-1.498,1.56-2.26
		c5.291-7.498,11.583-15.064,19.027-22.589c0.822-0.841,1.664-1.68,2.645-2.62c6.774-5.709,11.803-12.499,20.138-17.396
		c0.97-0.735,2.05-1.555,3.15-2.367c0,0,6.044,21.886,13.107,47.417c0.23,0.852,0.467,1.703,0.714,2.562
		c1.033,3.48,2.121,6.961,3.244,10.459c0.378,1.18,0.756,2.359,1.147,3.541c16.996,27.652,16.756,46.446,5.983,59.729"/>
	<path fill="#6A3515" d="M333.879,0.002c2.729,2.599,4.392,5.589,6.62,8.657c-1.927,0.746-4.866,1.943-7.788,3.153
		c-5.871,2.427-11.738,4.836-11.738,4.836l38.151,27.289c0,0-0.986,0.305-2.618,0.834c-11.192,4.054-20.374,6.663-31.112,9.449
		c8.677,6.919,17.521,15.387,26.186,22.296c-1.548,0.186-3.11,0.357-4.818,0.27c-0.694,0.023-1.456,0.086-2.287,0.156
		c-12.147,1.018-37.083,3.102-64.337,5.381c-0.698,0.055-1.397,0.109-2.109,0.17c-1.771-2.221-4.715-0.311-8.464,0.711
		c-0.72,0.055-1.42,0.115-2.125,0.168c-13.513,1.131-27.19,2.275-39.81,3.322c-0.802,0.076-1.599,0.143-2.398,0.209
		c-8.365-1.521-14.43,0.74-22.14,1.857c-0.672,0.039-1.329,0.092-1.993,0.162c-0.646,0.047-1.296,0.098-1.944,0.156
		c-8.608,0.844-17.965,1.893-27.307,2.949c14.35-12.666,28.884-23.767,43.241-36.427c-13.173-4.832-25.988-6.542-39.164-11.375
		c4.507-2.098,5.54-6.938,9.345-9.64c1.019-0.934,2.053-1.828,3.048-2.703c3.992-3.486,7.312-6.381,7.312-6.381
		s-0.88-0.438-2.345-1.164c-1.457-0.729-3.505-1.74-5.804-2.544c-9.509-1.473-16.444-7.011-23.382-12.534
		c1.562-0.179,1.385-1.738,2.413-1.792c0.761-0.709,1.664-1.542,2.667-2.463c0.507-0.46,1.025-0.944,1.57-1.445
		c1.168-1.239,2.498-2.414,3.9-3.56"/>
	<path fill="#FB8E0D" d="M299.198,129.703c0,0,0.203-1.15,0.554-3.064c0.162-0.959,0.365-2.105,0.589-3.4
		c0.339-1.939,0.734-4.199,1.163-6.631c0.142-0.799,0.284-1.627,0.445-2.477c1.522-8.219,7.059-17.166,4.782-26.811
		c16.122-0.76,29.901,3.639,44.696,3.711c-14.169,6.916-26.374,19.98-38.927,28.322c-0.645,0.51-1.264,0.99-1.867,1.457
		c-1.813,1.412-3.482,2.719-4.968,3.863c-0.981,0.77-1.869,1.461-2.671,2.074c-0.782,0.623-1.47,1.156-2.049,1.596
		C299.816,129.23,299.198,129.703,299.198,129.703z"/>
	<path fill="#FB8E0D" d="M11.098,53.591c0,0,0.484-0.597,1.352-1.681C23.521,33.894,40.865,23.176,51.926,5.286
		c1.132,4.815,2.787,7.483,5.988,11.277c0.367,0.605,0.77,1.249,1.179,1.913c0.407,0.66,0.817,1.328,1.246,2.015
		c0.414,0.694,0.849,1.384,1.279,2.107c7.106,12.853,13.703,23.532,21.117,35.532c-22.591-0.78-45.005-7.204-67.236-4.303
		c-0.928-0.025-1.721-0.066-2.377-0.111C11.823,53.639,11.098,53.591,11.098,53.591z"/>
	<path fill="#6A3515" d="M143.416,0.073c-0.486,0.679-1.042,1.453-1.644,2.314c-12.646,15.672-23.703,33.568-35.208,49.449
		c-0.809,1.139-1.439,2.022-1.875,2.637c-0.433,0.61-0.676,0.935-0.676,0.935s0.078-0.396,0.214-1.145
		c0.144-0.749,0.341-1.832,0.603-3.215c1.416-13.332,6.646-25.772,7.595-38.935c0.206-1.187,0.412-2.375,0.609-3.562
		c1.033-2.678,1.415-5.627,1.606-8.551"/>
	<path fill="#431C24" d="M157.488,172.147c-0.928-2.245-1.726-4.548-2.409-6.862c-0.202-0.676-0.42-1.344-0.652-1.992
		c-0.234-0.648-0.479-1.27-0.717-1.881c-4.113-10.611-15.03-22.311-28.684-18.469c-0.961,0.094-1.896,0.232-2.802,0.41
		c-13.325,1.256-27.288,2.51-37.9-5.688c-20.866-12.906-15.068-42.299,1.009-59.26c0.746-0.729,1.498-1.422,2.289-2.088
		c4.755-3.994,10.514-6.834,17.268-7.963c1.16-0.133,2.31-0.202,3.461-0.206c16.062-0.115,32.326,10.814,38.242,20.4
		c10.997,17.801,27.358,34.322,40.357,22.197c12.083-11.268,22.798-7.559,33.53,5.355c0.823,0.992,1.642,2.041,2.474,3.145
		c7.675,16.502,23.483,12.266,37.111,3.709c1.644-0.895,3.112-1.611,4.473-2.176c5.75-2.418,9.203-2.088,11.144-0.256
		c0.65,0.621,1.13,1.396,1.487,2.297c-0.123,4.52-1.141,8.84-0.633,13.9c-0.303,1.178-0.613,2.291-0.925,3.303
		c-0.93,3.045-1.774,5.176-1.774,5.176s-3.424,12.549-7.354,26.943"/>
</g>
<g>
	
		<rect x="115.579" y="80.319" transform="matrix(0.9846 -0.1747 0.1747 0.9846 -12.8002 45.4349)" fill="#FFFFFF" width="272.325" height="30.247"/>
	
		<text transform="matrix(0.9846 -0.1747 0.1747 0.9846 125.1602 124.5664)" font-family="'DejaVuSerif-BoldItalic'" font-size="20.1291">Collectif Super Terrain</text>
</g>
</svg>
