<?xml version="1.0" encoding="utf-8"?>
<!-- Generator: Adobe Illustrator 16.0.0, SVG Export Plug-In . SVG Version: 6.00 Build 0)  -->
<!DOCTYPE svg PUBLIC "-//W3C//DTD SVG 1.1//EN" "http://www.w3.org/Graphics/SVG/1.1/DTD/svg11.dtd">
<svg version="1.1" id="Calque_1" xmlns="http://www.w3.org/2000/svg" xmlns:xlink="http://www.w3.org/1999/xlink" x="0px" y="0px"
	 width="320px" height="480px" viewBox="0 0 320 480" enable-background="new 0 0 320 480" xml:space="preserve">
<polyline fill="none" stroke="#662D91" stroke-width="8.9909" stroke-miterlimit="10" points="320,445.678 316.354,445.684 
	251.284,382.386 161.651,284.905 98.544,350.692 16.685,268.321 3.152,281.452 0,281.438 "/>
<polyline fill="none" stroke="#FF0000" stroke-width="10" stroke-miterlimit="10" points="203.991,0.001 203.977,4.051 
	231.772,51.611 39.847,159.767 110.918,298.694 145.685,358.471 160.924,349.961 "/>
<polyline fill="none" stroke="#00FFFF" stroke-width="10" stroke-miterlimit="10" points="320,147.331 317.072,147.281 
	278.368,129.823 251.243,204.998 241.927,226.834 228.611,262.722 199.096,249.989 155.792,230.515 125.141,217.216 98.754,205.375 
	"/>
<g>
	<g>
		<path d="M24.477,145.988c0.001,3.631-0.345,5.525-1.796,6.979c-1.199,1.199-2.966,1.801-5.114,1.804
			c-5.872,0.003-7.736-2.681-7.738-7.574l-0.006-10.04c-0.001-2.241-0.318-2.558-1.866-2.746c-0.125-0.44-0.157-0.945-0.157-1.356
			c0.852,0.062,2.367,0.091,3.662,0.091c1.296,0,2.715-0.031,3.662-0.096c0.001,0.411-0.029,0.917-0.156,1.357
			c-1.864,0.16-2.178,0.443-2.177,2.748l0.005,9.598c0.003,3.569,1.17,6.346,5.37,6.343c1.042-0.001,2.463-0.316,3.345-1.202
			c0.979-0.98,1.356-2.274,1.355-5.652l-0.005-7.83c-0.002-3.032-0.317-3.852-2.181-4.009c-0.127-0.631-0.156-0.914-0.157-1.357
			c0.723,0.064,2.019,0.092,2.966,0.092c0.947-0.001,2.178-0.031,2.999-0.095c0,0.284-0.03,0.662-0.157,1.356
			c-1.454,0.159-1.862,0.947-1.859,4.011L24.477,145.988z"/>
		<path d="M45.504,154.563c-0.917-0.063-2.146-0.093-3.441-0.093c-1.296,0.001-2.778,0.066-3.754,0.098
			c0-0.569,0.03-1.009,0.156-1.358c1.517-0.002,2.179-0.632,2.177-2.748l-0.002-4.799c-0.002-2.969-1.236-3.85-2.939-3.85
			c-1.643,0.001-3.567,1.424-3.566,5.275l0.002,3.378c0,2.116,0.54,2.745,2.181,2.744c0.123,0.379,0.158,0.791,0.157,1.359
			c-0.885-0.031-2.462-0.094-3.757-0.093c-1.295,0.002-2.84,0.033-3.757,0.096c0-0.567,0.032-1.007,0.156-1.356
			c1.642-0.002,2.18-0.633,2.178-2.749l-0.004-6.251c-0.001-1.484-0.284-2.178-2.37-2.242c0-0.472,0.064-0.819,0.284-1.167
			c1.296-0.096,3.252-0.572,4.229-1.078c0.379,0.126,0.695,0.476,0.696,1.388c0,0.507-0.031,1.138-0.221,1.865
			c0.127-0.222,0.222-0.474,0.476-0.82c0.691-0.979,2.334-2.276,4.574-2.276c2.401-0.003,4.519,1.292,4.519,5.142l0.004,5.433
			c0,2.176,0.602,2.745,1.862,2.744C45.474,153.584,45.503,153.996,45.504,154.563z"/>
		<path d="M60.215,152.123c-1.454,1.897-3.314,2.625-5.62,2.625c-4.481,0.003-6.694-3.374-6.696-7.51
			c-0.003-4.041,2.489-7.517,6.529-7.52c4.106-0.002,5.653,2.934,5.911,6.532c-0.097,0.444-0.254,0.791-0.474,1.075
			c-1.326,0-5.556,0.002-8.839,0.163c0.189,2.811,1.263,5.493,4.581,5.491c1.388-0.001,2.808-0.634,3.848-1.833
			C59.804,151.334,60.152,151.776,60.215,152.123z M50.991,145.91l6.062-0.003c-0.001-2.779-1.077-4.672-2.907-4.672
			C52.662,141.236,51.148,142.247,50.991,145.91z"/>
		<path d="M82.05,134.211c0,1.231,0.033,3.03,0.193,4.167c-0.475,0.19-1.201,0.285-1.769,0.285c-0.633-3.631-1.833-4.45-3.729-4.45
			c-2.241,0.002-3.564,1.138-3.563,3.128c0.003,5.588,10.481,4.381,10.485,11.329c0.002,3.156-2.174,6.063-7.195,6.066
			c-2.619,0.001-4.388-0.788-6.41-2.018c0.25-1.577,0.283-3.315,0.283-4.484c0.472-0.125,1.168-0.19,1.705-0.191
			c0.159,3.223,1.486,5.18,4.866,5.178c2.902-0.003,4.042-1.455,4.04-3.286c-0.002-5.589-10.519-4.098-10.522-11.424
			c-0.002-3.535,2.428-5.684,6.344-5.686C78.956,132.822,80.947,133.483,82.05,134.211z"/>
		<path d="M97.843,150.146c0.001,1.482,0.224,2.145,1.961,2.146c0,0.441-0.033,1.01-0.19,1.452c-1.042,0.064-2.621,0.444-3.6,0.981
			c-0.439-0.189-0.788-0.411-0.788-1.736c0-0.285,0.031-0.6,0.062-0.884c-0.22,0.536-0.568,1.042-1.072,1.483
			c-0.726,0.631-1.768,1.076-3.282,1.077c-2.556,0.002-4.012-1.26-4.012-3.345c-0.003-4.105,5.49-4.96,8.078-5.34
			c0-2.59-0.128-3.253-0.665-3.915c-0.506-0.63-1.168-0.945-1.959-0.945c-2.113,0-2.712,2.337-2.773,3.663
			c-0.476-0.001-1.328-0.063-1.643-0.219c0.093-1.042,0.029-2.496-0.16-3.441c1.704-0.886,3.756-1.424,5.366-1.426
			c1.547,0,2.653,0.504,3.348,1.199c1.075,1.073,1.328,2.65,1.329,5.461L97.843,150.146z M95.001,147.274
			c-2.146,0.284-5.022,0.664-5.02,3.412c0,1.548,0.884,2.241,1.865,2.241c1.358,0,3.156-1.265,3.154-4.453L95.001,147.274z"/>
		<path d="M107.409,150.423c0.003,2.117,0.505,2.746,1.867,2.745c0.125,0.443,0.156,1.074,0.158,1.358
			c-1.106-0.063-2.371-0.094-3.57-0.093s-2.589,0.033-3.632,0.097c0-0.411,0.034-0.946,0.157-1.358
			c1.676-0.001,2.18-0.631,2.179-2.747l-0.004-6.251c-0.001-1.484-0.222-2.243-2.368-2.242c-0.002-0.472,0.062-0.819,0.282-1.166
			c0.947,0,3.474-0.54,4.23-1.077c0.379,0.125,0.695,0.474,0.696,1.262L107.409,150.423z M107.621,134.291
			c0,0.979-0.851,1.83-1.895,1.831c-1.073,0.001-1.863-0.821-1.864-1.83c0-1.135,0.882-1.928,1.863-1.928
			C106.862,132.363,107.62,133.154,107.621,134.291z"/>
		<path d="M120.253,144.449c-0.126-1.737-1.485-3.472-3.537-3.472c-1.296,0.002-2.147,0.695-2.147,1.738
			c0,1.074,0.38,1.609,3.759,2.934c3.41,1.292,4.484,2.365,4.486,4.608c0,2.682-2.491,4.453-5.776,4.455
			c-2.525,0.002-3.788-0.41-5.21-1.166c0.127-0.978,0.125-2.904,0.03-3.914c0.347-0.253,1.01-0.349,1.641-0.349
			c0.317,2.651,1.676,3.945,3.856,3.943c1.703,0,2.713-0.851,2.712-2.02c0-1.105-0.598-1.643-3.409-2.778
			c-3.411-1.354-4.674-2.238-4.676-4.796c-0.003-2.683,3.124-3.947,5.237-3.95c1.895,0,3.252,0.379,4.548,1.104
			c-0.064,1.011-0.094,2.179,0.066,3.285C121.423,144.321,120.854,144.449,120.253,144.449z"/>
		<path d="M139.608,147.184c0.002,4.326-2.871,7.517-7.132,7.519c-4.325,0.004-7.135-2.964-7.141-7.51
			c-0.001-4.292,2.934-7.516,7.133-7.518C136.951,139.671,139.605,142.7,139.608,147.184z M128.524,146.528
			c0.002,4.261,1.647,6.661,4.206,6.66c2.524-0.003,3.722-2.31,3.72-5.623c-0.001-3.917-1.959-6.378-4.297-6.377
			C129.723,141.191,128.523,143.37,128.524,146.528z"/>
		<path d="M158.586,154.499c-0.916-0.063-2.146-0.094-3.442-0.092c-1.292,0-2.778,0.063-3.757,0.096
			c0-0.569,0.034-1.009,0.156-1.359c1.514-0.001,2.178-0.63,2.176-2.748l-0.002-4.8c-0.003-2.966-1.231-3.849-2.938-3.848
			c-1.642,0.001-3.566,1.421-3.564,5.276l0.002,3.377c0.002,2.116,0.537,2.746,2.179,2.745c0.127,0.378,0.158,0.79,0.16,1.358
			c-0.884-0.031-2.463-0.095-3.755-0.092c-1.297,0-2.843,0.033-3.759,0.096c0-0.568,0.029-1.008,0.158-1.357
			c1.641-0.002,2.177-0.631,2.176-2.749l-0.004-6.252c0-1.483-0.287-2.177-2.369-2.24c0-0.473,0.062-0.819,0.284-1.167
			c1.294-0.095,3.251-0.571,4.23-1.078c0.379,0.128,0.694,0.475,0.694,1.389c0,0.506-0.031,1.137-0.221,1.865
			c0.127-0.223,0.221-0.476,0.475-0.823c0.695-0.978,2.333-2.274,4.575-2.275c2.402-0.002,4.518,1.293,4.519,5.143l0.003,5.431
			c0.001,2.177,0.601,2.745,1.863,2.745C158.553,153.519,158.585,153.93,158.586,154.499z"/>
		<path d="M182.415,148.675c0-2.874-0.316-3.095-2.715-3.156c-0.128-0.316-0.189-0.946-0.189-1.451
			c0.787,0.062,2.557,0.093,3.852,0.093c1.295-0.001,3.031-0.034,3.693-0.066c0,0.378-0.031,1.011-0.189,1.42
			c-1.262,0.064-1.483,0.316-1.481,3.159v1.42c0,0.884,0.063,1.578,0.411,2.21c-1.796,1.326-4.702,2.371-8.268,2.372
			c-6.221,0.004-10.394-4.445-10.397-11.234c-0.005-7.072,5.427-10.674,10.951-10.678c3.029-0.001,5.714,0.597,7.58,1.48
			c-0.286,1.484-0.346,3.032-0.346,4.895c-0.505,0.19-1.011,0.284-1.673,0.284c-0.16-4.419-2.404-5.366-5.309-5.365
			c-5.398,0.004-7.856,4.173-7.854,8.688c0.002,5.747,2.53,10.386,7.679,10.383c1.26-0.001,2.179-0.096,3.186-0.508
			c0.728-0.315,1.072-0.757,1.072-2.367L182.415,148.675z"/>
		<path d="M201.7,140.676c-0.156,1.042-0.218,2.62-0.218,3.726c-0.38,0.125-1.105,0.285-1.8,0.285
			c-0.095-2.021-0.728-2.462-1.55-2.462c-1.104,0.002-2.683,2.022-2.683,4.485l0.003,3.028c0.002,2.749,0.824,3.285,2.813,3.378
			c0.128,0.349,0.158,0.79,0.156,1.357c-0.974-0.063-2.491-0.093-3.975-0.092c-1.486,0-3.348,0.034-4.168,0.098
			c0-0.568,0.028-1.01,0.156-1.36c1.673-0.094,2.179-0.631,2.176-2.747l-0.004-6.251c0-1.484-0.286-2.178-2.37-2.242
			c0-0.471,0.064-0.819,0.288-1.166c1.293-0.095,3.249-0.572,4.228-1.077c0.38,0.126,0.694,0.475,0.694,1.388
			c0.002,1.202-0.218,2.15-0.406,3.097c0.253-0.727,0.408-1.264,0.661-1.641c0.912-1.455,2.177-2.56,3.818-2.561
			C200.375,139.918,201.036,140.171,201.7,140.676z"/>
		<path d="M214.842,150.077c0,1.483,0.222,2.147,1.954,2.146c0,0.442-0.028,1.01-0.188,1.452c-1.042,0.064-2.62,0.445-3.601,0.981
			c-0.439-0.189-0.787-0.411-0.787-1.737c0-0.284,0.031-0.6,0.062-0.883c-0.222,0.537-0.569,1.042-1.072,1.485
			c-0.726,0.63-1.768,1.075-3.282,1.075c-2.559,0.002-4.012-1.26-4.014-3.344c-0.002-4.104,5.491-4.96,8.081-5.34
			c0-2.59-0.128-3.253-0.664-3.916c-0.508-0.63-1.172-0.945-1.959-0.945c-2.114,0.001-2.715,2.337-2.776,3.663
			c-0.475,0-1.325-0.062-1.642-0.218c0.094-1.043,0.028-2.496-0.161-3.441c1.706-0.885,3.757-1.425,5.366-1.425
			c1.548-0.001,2.651,0.503,3.348,1.198c1.075,1.072,1.33,2.65,1.332,5.46L214.842,150.077z M211.995,147.206
			c-2.146,0.284-5.019,0.665-5.017,3.412c-0.002,1.547,0.884,2.242,1.864,2.24c1.355,0,3.156-1.265,3.152-4.454V147.206z"/>
		<path d="M224.408,157.364c0.002,2.746,0.822,3.283,2.812,3.376c0.125,0.346,0.158,0.791,0.158,1.357
			c-0.98-0.062-2.495-0.092-3.979-0.09c-1.484,0.001-3.346,0.032-4.164,0.096c-0.002-0.568,0.026-1.011,0.154-1.357
			c1.671-0.095,2.179-0.634,2.176-2.748l-0.006-13.891c-0.003-1.485-0.288-2.18-2.37-2.243c-0.002-0.471,0.062-0.819,0.281-1.166
			c1.295-0.096,3.254-0.572,4.231-1.076c0.379,0.125,0.697,0.473,0.697,1.387c0,0.758-0.189,1.359-0.473,2.273
			c0.312-0.694,0.567-1.072,0.726-1.325c0.567-0.949,2.209-2.34,4.324-2.34c3.695-0.002,5.902,2.145,5.904,6.722
			c0.004,4.705-3.117,8.307-7.853,8.309c-1.044,0.001-1.768-0.157-2.62-0.441V157.364z M224.404,147.64v4.451
			c0.728,0.664,1.547,1.105,2.778,1.105c1.738-0.001,4.579-1.14,4.576-6.161c-0.002-3.313-1.519-5.429-3.539-5.429
			C226.358,141.608,224.399,143.22,224.404,147.64z"/>
		<path d="M253.513,154.442c-0.914-0.062-2.146-0.094-3.439-0.092c-1.295,0-2.781,0.066-3.76,0.097c0-0.568,0.033-1.01,0.158-1.357
			c1.518-0.002,2.179-0.632,2.179-2.748l-0.004-4.8c-0.003-2.969-1.231-3.852-2.938-3.85c-1.644,0.001-3.567,1.423-3.565,5.276
			l0.002,3.377c0,2.117,0.539,2.745,2.179,2.744c0.128,0.379,0.161,0.792,0.158,1.359c-0.881-0.031-2.462-0.094-3.754-0.093
			c-1.295,0.001-2.843,0.033-3.757,0.097c0-0.569,0.028-1.01,0.155-1.358c1.645-0.001,2.179-0.632,2.177-2.747l-0.009-14.144
			c0-1.486-0.22-2.244-2.37-2.241c0-0.474,0.064-0.821,0.286-1.168c0.945-0.001,3.471-0.54,4.229-1.077
			c0.378,0.129,0.692,0.473,0.694,1.265l0.005,8.017c0,0.506-0.031,1.138-0.22,1.865c0.125-0.222,0.22-0.477,0.475-0.822
			c0.694-0.978,2.334-2.275,4.576-2.276c2.398-0.002,4.516,1.294,4.518,5.144l0.003,5.432c0.002,2.177,0.602,2.745,1.863,2.744
			C253.48,153.465,253.511,153.875,253.513,154.442z"/>
		<path d="M260.959,150.334c0.002,2.116,0.51,2.747,1.866,2.745c0.125,0.442,0.158,1.074,0.158,1.358
			c-1.105-0.063-2.365-0.093-3.568-0.093c-1.2,0-2.589,0.033-3.631,0.098c0-0.413,0.032-0.947,0.158-1.358
			c1.675-0.002,2.181-0.632,2.176-2.748l-0.002-6.252c-0.002-1.483-0.225-2.242-2.37-2.241c0-0.472,0.064-0.818,0.284-1.166
			c0.945,0,3.471-0.539,4.228-1.078c0.382,0.126,0.696,0.474,0.696,1.263L260.959,150.334z M261.172,134.201
			c0,0.979-0.853,1.831-1.893,1.832c-1.075,0-1.862-0.82-1.862-1.829c-0.002-1.137,0.882-1.929,1.86-1.929
			C260.416,132.274,261.17,133.065,261.172,134.201z"/>
		<path d="M281.046,162.066c-0.786-0.062-2.559-0.091-3.915-0.09c-1.356,0-2.842,0.032-3.915,0.094c0-0.568,0.031-1.011,0.158-1.356
			c1.987-0.096,2.493-0.634,2.493-2.748l-0.004-4.263c0-0.978,0.125-1.865,0.472-3.254c-0.252,0.697-0.6,1.484-0.914,1.896
			c-0.851,1.105-2.555,2.022-4.229,2.022c-3.062,0.002-5.81-2.269-5.812-6.784c-0.002-4.294,3.089-7.99,7.698-7.992
			c2.876-0.002,4.927,0.818,6.255,2.114c-0.411,0.63-0.634,1.576-0.634,3.439l0.009,12.819c0,2.114,0.506,2.652,2.181,2.745
			C281.014,161.089,281.044,161.5,281.046,162.066z M275.858,146.979l-0.002-4.832c-0.473-0.503-1.609-1.1-2.653-1.101
			c-2.744,0.002-4.702,2.179-4.7,6.127c0.002,3.947,2.056,5.272,3.855,5.27C273.812,152.443,275.86,151.083,275.858,146.979z"/>
		<path d="M295.939,150.03c0,1.482,0.225,2.146,1.956,2.146c0,0.441-0.028,1.011-0.187,1.452c-1.04,0.065-2.618,0.444-3.597,0.981
			c-0.443-0.189-0.789-0.379-0.791-1.832c0-0.285,0-0.694,0.093-1.326c-0.221,0.507-0.565,0.947-1.007,1.39
			c-1.106,1.107-2.24,1.612-3.946,1.614c-2.845,0.001-4.518-1.418-4.521-5.618v-4.767c-0.003-1.485-0.161-2.179-2.086-2.242
			c0-0.472,0.032-0.787,0.22-1.166c1.294-0.096,3.031-0.572,4.012-1.077c0.376,0.125,0.694,0.473,0.696,1.387l0.005,7.169
			c0,2.84,0.666,4.386,2.618,4.384c2.086,0,3.692-1.737,3.692-5.4l-0.002-3.22c0-1.483-0.285-2.178-2.369-2.24
			c0-0.475,0-0.789,0.22-1.167c1.642-0.098,3.348-0.475,4.293-0.919c0.383,0.127,0.694,0.475,0.694,1.389L295.939,150.03z"/>
		<path d="M312.576,151.978c-1.451,1.896-3.313,2.623-5.617,2.623c-4.482,0.004-6.695-3.374-6.698-7.51
			c-0.002-4.041,2.491-7.516,6.531-7.518c4.104-0.004,5.652,2.933,5.909,6.531c-0.097,0.443-0.255,0.79-0.473,1.075
			c-1.328,0-5.558,0.002-8.842,0.163c0.191,2.81,1.269,5.493,4.582,5.49c1.389-0.001,2.809-0.633,3.849-1.832
			C312.167,151.188,312.517,151.63,312.576,151.978z M303.356,145.763l6.061-0.003c-0.002-2.778-1.077-4.673-2.906-4.672
			C305.027,141.09,303.513,142.1,303.356,145.763z"/>
	</g>
	<g>
		<path d="M113.84,216.136c-0.526,1.052-1.401,2.018-2.804,2.021c-5.612-0.085-11.838-0.168-16.926-0.166
			c-5.173,0.002-11.487,0.093-14.819,0.184c-0.965-1.054-1.144-2.016-1.144-3.595c4.997-4.652,10.343-9.477,14.988-13.601
			c6.838-6.055,8.5-9.827,8.498-14.385c-0.002-5.789-2.634-8.945-7.634-8.941c-4.559,0.003-7.013,2.547-8.323,12.193
			c-1.49,0.001-3.595-0.17-4.735-0.611c0.348-3.069,0.436-8.244-0.182-11.401c3.418-2.456,8.417-4.212,14.73-4.215
			c8.067-0.004,14.646,2.884,14.652,11.567c0.003,5.523-2.713,8.506-9.639,14.912c-2.978,2.809-6.134,5.704-10.692,10.003
			l12.802-0.007c4.825-0.004,5.878-0.443,6.136-5.354c1.579-0.001,2.984,0.174,4.123,0.612
			C112.873,209.822,113.135,212.894,113.84,216.136z"/>
		<path d="M145.324,218.749c-12.19,0.006-23.157-9.019-23.165-23.137c-0.009-14.118,11.739-22.017,23.139-22.024
			c11.4-0.007,22.54,7.879,22.549,21.998C167.854,209.704,157.338,218.742,145.324,218.749z M147.601,213.749
			c8.505-0.005,12.01-7.548,12.004-16.231c-0.003-7.889-6.062-19.461-16.849-19.455c-8.243,0.004-12.622,7.284-12.617,16.317
			C130.145,203.063,136.728,213.755,147.601,213.749z"/>
		<path d="M192.32,206.794c0.004,5.789,1.404,7.454,6.057,7.625c0.349,1.231,0.437,2.544,0.439,3.772
			c-3.421-0.174-8.244-0.258-10.436-0.257c-3.156,0.002-7.278,0.092-10.435,0.268c0-1.227,0.085-2.541,0.438-3.771
			c4.383-0.178,6.049-1.844,6.043-7.632l-0.012-21.573c-0.002-5.7-1.232-7.365-6.054-7.626c-0.266-1.05-0.439-2.453-0.441-3.77
			c2.807,0.174,7.628,0.259,10.437,0.258c3.683-0.003,7.628-0.092,10.434-0.271c0,1.491-0.172,2.72-0.436,3.77
			c-4.649,0.268-6.05,1.935-6.045,7.633L192.32,206.794z"/>
		<path d="M217.119,173.896c6.137,0.172,10.083,0.17,15.168,0.167c3.422-0.003,4.559-1.844,4.559-4.21
			c1.053-0.353,2.632-0.442,3.946-0.442c-0.436,3.158-0.521,6.842-0.519,10.962c-0.528,0.965-1.664,1.579-3.948,1.581
			c-3.858,0.001-14.555,0.097-16.923,0.273l-2.102,8.858c14.997,3.236,24.997,8.579,25.006,20.944
			c0.007,13.505-12.177,20.877-21.561,20.882c-4.384,0.003-8.243-1.222-10.086-2.799c0-0.965,0.35-1.929,1.139-2.894
			c1.49,0.612,5.085,1.311,8.593,1.31c7.02-0.004,13.152-5.445,13.148-14.128c-0.007-9.995-11.06-15.074-20.269-15.947
			c-0.965-0.612-1.49-1.752-1.49-2.717L217.119,173.896z"/>
	</g>
	<text transform="matrix(1 3.100000e-04 -3.100000e-04 1 88.1133 251.5068)" font-family="'Vollkorn-Medium'" font-size="16.1163">Du 18 mai au 27 juin</text>
</g>
<polyline fill="none" stroke="#00FFFF" stroke-width="10" stroke-miterlimit="10" points="98.754,205.375 65.575,190.484 
	34.331,175.592 4.479,164.473 0.119,164.528 "/>
</svg>
