<?xml version="1.0" encoding="utf-8"?>
<!-- Generator: Adobe Illustrator 16.0.0, SVG Export Plug-In . SVG Version: 6.00 Build 0)  -->
<!DOCTYPE svg PUBLIC "-//W3C//DTD SVG 1.1//EN" "http://www.w3.org/Graphics/SVG/1.1/DTD/svg11.dtd">
<svg version="1.1" id="Calque_1" xmlns="http://www.w3.org/2000/svg" xmlns:xlink="http://www.w3.org/1999/xlink" x="0px" y="0px"
	 width="163.667px" height="124.333px" viewBox="0 0 163.667 124.333" enable-background="new 0 0 163.667 124.333"
	 xml:space="preserve">
<g>
	<g>
		<path fill="#FFFFFF" d="M32.29,54.972c19.106,5.479,37.319,0.414,40.682-11.312c3.362-11.727-9.399-25.673-28.505-31.152
			C25.362,7.029,7.147,12.095,3.785,23.821C0.423,35.546,13.185,49.494,32.29,54.972L32.29,54.972z"/>
		<path fill="none" stroke="#000000" stroke-width="2.4043" d="M32.29,54.972c19.106,5.479,37.319,0.414,40.682-11.312
			c3.362-11.727-9.399-25.673-28.505-31.152C25.362,7.029,7.147,12.095,3.785,23.821C0.423,35.546,13.185,49.494,32.29,54.972
			L32.29,54.972z"/>
		<path d="M26.91,33.3l5.266,1.51l-0.755,2.632c-0.251,0.877-0.503,1.755-2.258,1.252l-8.775-2.517l4.025-14.04l14.918,4.278
			c0.252-0.877,0.126-1.104-0.374-2.007l-1.878-3.388c-0.5-0.903-0.977-1.229-2.381-1.632l-7.02-2.013
			c-1.404-0.403-1.98-0.379-2.884,0.123l-3.388,1.878c-0.903,0.5-1.229,0.977-1.632,2.381L16.25,34.043
			c-0.402,1.403-0.378,1.981,0.123,2.884l1.903,3.433c0.477,0.858,0.952,1.185,2.356,1.588l13.163,3.774l4.278-14.918l-9.653-2.768
			L26.91,33.3L26.91,33.3z M44.501,22.2l-7.046,24.571l4.388,1.258l2.768-9.652l5.266,1.51l1.51-5.266l-5.265-1.51l1.258-4.388
			l13.163,3.775l1.51-5.266L44.501,22.2L44.501,22.2z"/>
	</g>
	<path d="M13.362,85.32c-4.113,2.187-5.227,5.695-3.247,9.417c2.038,3.834,5.905,4.674,9.345,2.845
		c1.554-0.827,2.79-2.024,3.54-3.493l-2.247-4.905L17.3,91.019l0.083,0.155l3.41,2.438c-0.379,0.725-1.3,1.459-2.257,1.965
		c-2.528,1.347-4.879,0.219-6.174-2.216c-1.453-2.732-0.212-4.681,1.907-5.809c1.79-0.949,3.451-1.009,4.529-0.837l0.157-0.083
		l-1.898-2.775C16.376,84.019,14.493,84.717,13.362,85.32L13.362,85.32z M25.161,86.415l-1.708-3.745l0.692-0.367
		c1.178-0.628,2.472-0.509,3.022,0.526c0.644,1.211,0.26,2.16-0.928,3.073l0.384,0.721l5.567,3.989l3.154-1.677l-0.083-0.159
		l-6.981-3.437c1.481-1.492,1.577-3.014,0.875-4.333c-0.943-1.773-2.927-2.326-5.536-0.939l-3.914,2.08l3.333,5.396l2.928,6.377
		l2.829-1.501L25.161,86.415L25.161,86.415z M40.692,80.656l-3.156,1.677l-1.101-5.818L40.692,80.656L40.692,80.656z M44.295,84.175
		l2.92-1.552l-0.083-0.159l-11.143-9.176l-1.366,0.725l1.111,14.512l0.083,0.158l2.637-1.402l-0.597-3.205l4.097-2.18L44.295,84.175
		L44.295,84.175z M47.897,74.328l-1.709-3.745l0.534-0.284c1.902-1.013,3.151-0.751,3.769,0.413c0.761,1.43,0.28,2.61-1.276,3.44
		l0.733,1.38c3.272-1.883,3.759-4.334,2.606-6.504c-1.019-1.915-3.324-2.58-6.089-1.107l-4.024,2.137l3.333,5.398l2.927,6.377
		l2.83-1.505L47.897,74.328L47.897,74.328z M66.823,72.197l2.828-1.502l-3.634-6.003l-2.626-5.772l-2.829,1.505l3.009,4.866
		l-5.593,2.974l-2.367-5.208l-2.824,1.5l3.333,5.398l2.928,6.377l2.824-1.501l-3.086-5.088l5.546-2.947L66.823,72.197L66.823,72.197
		z M72.349,69.259l2.83-1.505l-3.634-6l-2.626-5.773l-2.829,1.504l3.333,5.397L72.349,69.259L72.349,69.259z M76.4,59.896
		l1.451,0.114c1.874,0.152,2.415,0.49,2.825,1.257c0.41,0.771,0.183,1.596-0.713,2.072c-0.802,0.425-1.903,0.508-4.014,0.101
		l-0.157,0.083l1.824,2.673c0.901-0.198,2.625-0.933,3.316-1.3c2.685-1.428,2.818-3.712,1.966-5.313
		c-0.826-1.555-2.1-1.946-4.109-2.167l-1.54-0.168c-1.389-0.148-1.859-0.462-2.168-1.043c-0.351-0.66-0.028-1.456,0.774-1.882
		c0.942-0.501,2.062-0.592,3.707-0.298l0.157-0.083l-1.775-2.58c-0.915,0.285-2.15,0.761-3.235,1.338
		c-2.371,1.261-2.859,3.371-1.974,5.035C73.311,58.819,74.384,59.74,76.4,59.896L76.4,59.896z M93.032,58.262l0.188-0.101
		l-0.28-9.012l4.912,6.551l2.606-1.386l-8.725-10.464l-1.146,0.61l0.481,9.731l-7.578-5.958l-1.115,0.592l3.702,13.135l2.606-1.386
		l-2.649-7.633L93.032,58.262L93.032,58.262z M102.369,53.297l6.781-3.605l-1.089-2.803l-0.156,0.083l-3.525,3.485l-2.473-4.083
		l4.184-1.337l-0.93-2.125l-3.905,2.238l-1.677-3.722l4.695-1.208l0.157-0.083l-1.59-2.193l-6.734,3.58l3.333,5.397L102.369,53.297
		L102.369,53.297z"/>
	<path d="M94.367,74.82l-0.427-2.278l-4.578,1.393l-0.903-4.473l5.021-0.148l0.172-0.043l-1.036-2.501l-7.558,2.024l2.033,6.007
		l1.419,6.874l3.09-0.827l-1.859-5.634L94.367,74.82L94.367,74.82z M99.465,71.486l-0.822-4.032l0.756-0.205
		c1.29-0.344,2.524,0.062,2.827,1.194c0.355,1.323-0.232,2.163-1.595,2.785l0.212,0.79l4.526,5.138l3.452-0.923l-0.047-0.172
		l-6.03-4.923c1.78-1.118,2.217-2.58,1.83-4.022c-0.52-1.941-2.331-2.927-5.183-2.163l-4.281,1.148l2.032,6.007l1.419,6.874
		l3.095-0.831L99.465,71.486L99.465,71.486z M115.894,69.369l-3.452,0.923l0.236-5.918L115.894,69.369L115.894,69.369z
		 M118.612,73.61l3.194-0.857l-0.047-0.172l-8.792-11.45l-1.494,0.402l-2.181,14.389l0.044,0.172l2.887-0.773l0.139-3.259l4.482-1.2
		L118.612,73.61L118.612,73.61z M133.4,69.647l0.532-0.146l-2.9-13.027l-3.023,0.811l2.81,8.082L120.71,59.24l-0.533,0.143
		l3.108,12.973l3.021-0.811l-2.893-7.912L133.4,69.647L133.4,69.647z M146.996,65.138l-0.269-2.375l-0.174,0.046
		c-0.947,1.065-2.116,1.783-3.508,2.157c-2.938,0.787-4.758-0.992-5.449-3.569c-0.801-2.99,1.019-4.655,2.84-5.143
		c1.837-0.492,3.289-0.293,4.515,0.227l0.172-0.046l-1.23-3.148c-1.098,0.092-2.652,0.27-3.734,0.559
		c-4.156,1.114-6.151,4.316-5.06,8.387c1.105,4.123,4.669,5.894,8.381,4.897C145.042,66.709,146.499,65.694,146.996,65.138
		L146.996,65.138z M149.953,65.21l7.419-1.987l-0.432-2.976l-0.17,0.044l-4.22,2.603l-1.489-4.534l4.376-0.363l-0.427-2.279
		l-4.309,1.302l-0.797-4.003l4.846-0.121l0.172-0.045l-1.055-2.495l-7.365,1.974l2.031,6.008L149.953,65.21L149.953,65.21z"/>
	<path d="M70.246,104.892l4.515-6.216l-2.207-2.041l-0.104,0.143l-1.64,4.678l-4.013-2.584l3.173-3.036l-1.767-1.506l-2.529,3.726
		l-3.139-2.61l3.691-3.143l0.105-0.146l-2.39-1.273l-4.483,6.169l5.36,3.391L70.246,104.892L70.246,104.892z M82.469,88.068
		l0.324-0.446l-10.454-8.3L70.5,81.856l7.27,4.512l-11.711,1.602l-0.323,0.446l10.579,8.124l1.838-2.53l-7.228-4.33L82.469,88.068
		L82.469,88.068z"/>
	<g>
		<path d="M58.818,7.153l-0.655,1.542l2.028,0.861c0,0,0.122,0.052,0.075,0.164l-0.441,1.038c-0.051,0.122-0.174,0.07-0.174,0.07
			l-3.205-1.361c0,0-0.123-0.051-0.071-0.173l2.674-6.301c0.052-0.122,0.175-0.07,0.175-0.07l3.179,1.35
			c0,0,0.119,0.051,0.067,0.173l-0.436,1.028c-0.052,0.122-0.171,0.07-0.171,0.07l-2.001-0.849l-0.503,1.188l1.411,0.6
			c0,0,0.123,0.051,0.07,0.173l-0.436,1.028c-0.052,0.121-0.175,0.07-0.175,0.07L58.818,7.153z M61.332,1.93
			c0,0,0.079-0.055,0.173-0.016l0.962,0.41c0.066,0.026,0.076,0.109,0.011,0.158l-0.966,0.661c-0.076,0.055-0.172,0.015-0.172,0.015
			l-0.682-0.29c-0.074-0.031-0.071-0.096-0.031-0.135L61.332,1.93z"/>
		<path d="M63.731,4.968c0.04-0.093,0.142-0.072,0.142-0.072l1.14,0.483c0,0,0.103,0.044,0.071,0.196l-0.887,3.596
			c0,0-0.007,0.019,0.021,0.03c0.028,0.013,0.035-0.006,0.035-0.006l1.987-3.15c0.07-0.114,0.185-0.066,0.185-0.066l1.129,0.48
			c0.058,0.024,0.081,0.101,0.045,0.184l-3.882,5.789c0,0-0.07,0.091-0.185,0.043l-1.196-0.508
			c-0.111-0.046-0.097-0.162-0.097-0.162S63.727,4.978,63.731,4.968z"/>
		<path d="M68.875,11.421l-0.655,1.542l2.028,0.861c0,0,0.123,0.051,0.075,0.164l-0.44,1.037c-0.052,0.123-0.174,0.071-0.174,0.071
			l-3.207-1.361c0,0-0.121-0.053-0.069-0.175l2.674-6.3c0.052-0.122,0.173-0.07,0.173-0.07l3.179,1.35c0,0,0.121,0.051,0.069,0.172
			L72.09,9.741c-0.052,0.121-0.173,0.07-0.173,0.07l-2-0.849l-0.503,1.188l1.411,0.599c0,0,0.123,0.052,0.07,0.174l-0.436,1.029
			c-0.052,0.121-0.174,0.069-0.174,0.069L68.875,11.421z M71.388,6.199c0,0,0.078-0.056,0.173-0.016l0.962,0.408
			c0.066,0.028,0.074,0.109,0.011,0.16l-0.966,0.66c-0.078,0.055-0.172,0.016-0.172,0.016l-0.682-0.29
			c-0.074-0.031-0.071-0.096-0.031-0.135L71.388,6.199z"/>
		<path d="M73.944,13.495c0,0,0.001-0.031-0.025-0.042c-0.038-0.017-0.05,0.011-0.05,0.011l-1.171,2.758
			c-0.051,0.123-0.174,0.069-0.174,0.069l-1.045-0.443c-0.123-0.051-0.071-0.173-0.071-0.173l2.671-6.292
			c0.051-0.122,0.178-0.079,0.178-0.079l0.979,0.416c0.141,0.059,0.142,0.159,0.142,0.159l-0.127,3.158c0,0,0,0.055,0.028,0.066
			c0.038,0.017,0.058-0.03,0.058-0.03l1.139-2.684c0.052-0.122,0.174-0.07,0.174-0.07l1.065,0.453c0,0,0.121,0.051,0.07,0.173
			l-2.675,6.301c-0.051,0.122-0.172,0.071-0.172,0.071l-0.964-0.41c-0.064-0.026-0.127-0.086-0.124-0.228L73.944,13.495z"/>
		<path d="M79.35,15.867l-0.655,1.543l2.028,0.861c0,0,0.122,0.052,0.076,0.165l-0.44,1.037c-0.053,0.123-0.175,0.07-0.175,0.07
			l-3.206-1.361c0,0-0.123-0.051-0.07-0.173l2.673-6.301c0.053-0.122,0.174-0.07,0.174-0.07l3.179,1.35c0,0,0.121,0.051,0.068,0.173
			l-0.436,1.029c-0.051,0.121-0.174,0.069-0.174,0.069l-1.998-0.849l-0.504,1.188l1.41,0.6c0,0,0.123,0.051,0.07,0.173l-0.436,1.028
			c-0.051,0.122-0.174,0.07-0.174,0.07L79.35,15.867z"/>
		<path d="M84.636,17.925l0.072-0.4c0,0,0.002-0.032-0.018-0.041c-0.026-0.012-0.038,0.017-0.038,0.017l-1.366,3.215
			c-0.05,0.122-0.172,0.07-0.172,0.07l-1.029-0.437c0,0-0.122-0.051-0.069-0.173l2.673-6.3c0.053-0.122,0.176-0.07,0.176-0.07
			l1.149,0.488c0,0,0.101,0.043,0.082,0.19l-0.266,2.501c0,0-0.009,0.018,0.021,0.03c0.026,0.012,0.034-0.006,0.034-0.006
			l1.604-1.935c0.093-0.115,0.205-0.067,0.205-0.067l1.159,0.492c0,0,0.121,0.051,0.069,0.173l-2.674,6.301
			c-0.053,0.122-0.174,0.071-0.174,0.071l-1.028-0.437c0,0-0.123-0.053-0.07-0.174l1.365-3.215c0,0,0.011-0.028-0.016-0.04
			c-0.018-0.008-0.041,0.016-0.041,0.016l-0.238,0.329l-0.823,1.03c-0.071,0.091-0.184,0.043-0.184,0.043l-0.484-0.206
			c0,0-0.104-0.044-0.097-0.162L84.636,17.925z"/>
		<path d="M90.49,20.596l-0.654,1.543L91.863,23c0,0,0.122,0.051,0.074,0.163l-0.439,1.038c-0.053,0.122-0.176,0.07-0.176,0.07
			l-3.205-1.361c0,0-0.122-0.051-0.069-0.173l2.674-6.301c0.052-0.122,0.174-0.07,0.174-0.07l3.179,1.35c0,0,0.121,0.051,0.07,0.173
			l-0.438,1.029c-0.051,0.121-0.172,0.069-0.172,0.069l-2.001-0.849l-0.505,1.188l1.413,0.599c0,0,0.12,0.052,0.069,0.175
			l-0.437,1.028c-0.052,0.122-0.172,0.068-0.172,0.068L90.49,20.596z"/>
		<path d="M95.69,22.726c0,0,0.003-0.031-0.026-0.043c-0.036-0.017-0.05,0.011-0.05,0.011l-1.169,2.758
			c-0.053,0.123-0.176,0.071-0.176,0.071l-1.045-0.445c-0.122-0.051-0.069-0.174-0.069-0.174l2.669-6.292
			c0.053-0.122,0.179-0.079,0.179-0.079l0.98,0.416c0.141,0.06,0.143,0.16,0.143,0.16l-0.127,3.157c0,0,0,0.055,0.026,0.066
			c0.038,0.016,0.058-0.03,0.058-0.03l1.14-2.684c0.052-0.122,0.174-0.07,0.174-0.07l1.065,0.452c0,0,0.12,0.051,0.069,0.173
			l-2.675,6.301c-0.053,0.123-0.174,0.071-0.174,0.071l-0.962-0.409c-0.066-0.028-0.128-0.088-0.123-0.229L95.69,22.726z"/>
		<path d="M99.582,27.632l2.187-5.151l-1.103-0.469c0,0-0.121-0.05-0.07-0.171l0.437-1.029c0.052-0.122,0.173-0.071,0.173-0.071
			l3.524,1.497c0,0,0.12,0.051,0.069,0.173l-0.437,1.028c-0.052,0.122-0.172,0.07-0.172,0.07l-1.111-0.472l-2.187,5.151
			c-0.054,0.122-0.176,0.07-0.176,0.07l-1.065-0.451C99.529,27.754,99.582,27.632,99.582,27.632z"/>
	</g>
	<g>
		<path d="M30.894,120.914c0.069,0.984-0.613,1.733-1.494,1.797l-0.709,0.049c-0.881,0.062-1.64-0.587-1.708-1.571l-0.273-3.899
			c-0.068-0.984,0.591-1.753,1.472-1.814l0.72-0.052c0.872-0.051,1.651,0.607,1.72,1.592l0.026,0.363
			c0.009,0.133-0.124,0.143-0.124,0.143l-1.115,0.078c0,0-0.131,0.01-0.141-0.123l-0.021-0.293
			c-0.013-0.193-0.216-0.322-0.408-0.309l-0.385,0.026c-0.203,0.015-0.363,0.188-0.35,0.382l0.262,3.748
			c0.015,0.213,0.189,0.363,0.401,0.349l0.385-0.026c0.212-0.015,0.373-0.188,0.358-0.402l-0.041-0.597
			c-0.01-0.132,0.122-0.143,0.122-0.143l1.115-0.077c0,0,0.132-0.01,0.142,0.122L30.894,120.914z"/>
		<path d="M34.094,119.154c0,0-0.013-0.031-0.044-0.029c-0.041,0.003-0.038,0.034-0.038,0.034l0.208,2.989
			c0.01,0.132-0.121,0.142-0.121,0.142l-1.136,0.08c-0.132,0.008-0.141-0.124-0.141-0.124l-0.478-6.818
			c-0.009-0.132,0.123-0.15,0.123-0.15l1.064-0.074c0.151-0.012,0.198,0.076,0.198,0.076l1.321,2.871c0,0,0.024,0.05,0.054,0.047
			c0.041-0.002,0.037-0.052,0.037-0.052l-0.203-2.909c-0.009-0.131,0.122-0.141,0.122-0.141l1.155-0.081
			c0,0,0.132-0.008,0.142,0.122l0.477,6.829c0.01,0.133-0.122,0.141-0.122,0.141l-1.044,0.073c-0.071,0.005-0.154-0.019-0.213-0.147
			L34.094,119.154z"/>
		<path d="M43.231,121.517c0.007,0.103-0.031,0.136-0.102,0.141l-1.196,0.083c0,0-0.122,0.01-0.162-0.141l-0.201-0.68l-1.58,0.11
			l-0.103,0.722c-0.021,0.134-0.153,0.143-0.153,0.143l-1.166,0.082c-0.1,0.007-0.124-0.021-0.13-0.124l0.999-6.953
			c0.013-0.112,0.155-0.122,0.155-0.122l1.519-0.106c0,0,0.143-0.01,0.17,0.1L43.231,121.517z M40.167,119.635l1.054-0.074
			l-0.711-2.761L40.167,119.635z"/>
		<path d="M44.367,114.576c-0.009-0.131,0.122-0.141,0.122-0.141l2.107-0.146c1.216-0.085,1.976,0.573,2.062,1.811l0.021,0.314
			c0.079,1.125-0.634,2.008-1.729,2.086l-0.901,0.062l0.192,2.745c0.01,0.133-0.123,0.141-0.123,0.141l-1.134,0.08
			c0,0-0.132,0.01-0.141-0.123L44.367,114.576z M45.873,115.724l0.102,1.458l0.73-0.051c0.445-0.031,0.624-0.248,0.594-0.673
			l-0.015-0.214c-0.029-0.413-0.235-0.604-0.681-0.572L45.873,115.724z"/>
	</g>
	<g>
		<path d="M50.115,119.918c0.375-0.025,0.689,0.246,0.716,0.621c0.026,0.374-0.248,0.69-0.623,0.715
			c-0.375,0.026-0.689-0.246-0.715-0.62C49.466,120.259,49.74,119.945,50.115,119.918z"/>
		<path d="M54.731,115.451c-0.019-0.263-0.22-0.372-0.412-0.358l-0.436,0.031c-0.203,0.013-0.367,0.148-0.348,0.412l0.26,3.718
			c0.015,0.213,0.189,0.363,0.402,0.349l0.507-0.036c0.213-0.015,0.372-0.188,0.352-0.483l-0.064-0.921l-0.536,0.038
			c-0.041,0.002-0.113-0.014-0.121-0.126l-0.069-0.982c-0.009-0.131,0.123-0.139,0.123-0.139l1.702-0.119
			c0,0,0.132-0.01,0.141,0.121l0.152,2.178c0.069,0.984-0.491,1.726-1.443,1.791l-0.811,0.059c-0.882,0.061-1.64-0.588-1.708-1.571
			l-0.273-3.9c-0.069-0.984,0.59-1.753,1.472-1.814l0.759-0.055c0.873-0.049,1.653,0.619,1.721,1.593l0.026,0.374
			c0.009,0.133-0.123,0.141-0.123,0.141l-1.115,0.078c0,0-0.132,0.01-0.141-0.123L54.731,115.451z"/>
	</g>
	<g>
		<path d="M60.159,117.462l-0.627,0.043l0.199,2.846c0.009,0.133-0.123,0.143-0.123,0.143l-1.134,0.079c0,0-0.132,0.009-0.142-0.124
			l-0.478-6.829c-0.009-0.13,0.124-0.139,0.124-0.139l2.046-0.144c1.215-0.085,1.975,0.573,2.061,1.811l0.015,0.214
			c0.048,0.678-0.187,1.253-0.618,1.642l0.731,3.164c0.016,0.081-0.011,0.145-0.082,0.149l-1.196,0.084
			c-0.04,0.002-0.112-0.003-0.138-0.082L60.159,117.462z M59.36,114.768l0.094,1.357l0.669-0.046
			c0.446-0.031,0.624-0.247,0.594-0.674l-0.007-0.112c-0.029-0.413-0.236-0.604-0.682-0.572L59.36,114.768z"/>
		<path d="M68.578,119.733c0.007,0.103-0.031,0.136-0.102,0.141l-1.195,0.083c0,0-0.123,0.008-0.163-0.141l-0.201-0.68l-1.58,0.11
			l-0.103,0.72c-0.021,0.136-0.153,0.144-0.153,0.144l-1.166,0.081c-0.101,0.009-0.124-0.02-0.13-0.122l1-6.953
			c0.013-0.112,0.155-0.123,0.155-0.123l1.52-0.105c0,0,0.142-0.01,0.168,0.1L68.578,119.733z M65.514,117.849l1.053-0.073
			l-0.712-2.76L65.514,117.849z"/>
		<path d="M69.776,112.787c-0.009-0.131,0.122-0.14,0.122-0.14l2.107-0.146c1.216-0.086,1.976,0.572,2.062,1.81l0.022,0.313
			c0.079,1.125-0.634,2.01-1.729,2.086l-0.901,0.062l0.193,2.746c0.009,0.132-0.124,0.142-0.124,0.142l-1.134,0.08
			c0,0-0.132,0.008-0.142-0.124L69.776,112.787z M71.282,113.934l0.102,1.459l0.73-0.052c0.445-0.029,0.624-0.248,0.594-0.673
			l-0.015-0.213c-0.029-0.414-0.236-0.603-0.681-0.572L71.282,113.934z"/>
		<path d="M78.66,116.34l-1.307,0.091l0.187,2.675c0.01,0.133-0.122,0.143-0.122,0.143l-1.124,0.077c0,0-0.132,0.011-0.142-0.122
			l-0.478-6.829c-0.009-0.131,0.124-0.141,0.124-0.141l1.124-0.078c0,0,0.132-0.01,0.143,0.121l0.188,2.706l1.307-0.091
			l-0.188-2.706c-0.01-0.131,0.122-0.141,0.122-0.141l1.125-0.078c0,0,0.131-0.01,0.14,0.121l0.478,6.829
			c0.01,0.133-0.121,0.143-0.121,0.143l-1.124,0.077c0,0-0.133,0.01-0.143-0.122L78.66,116.34z"/>
	</g>
	<g>
		<path d="M81.65,111.969c-0.009-0.131,0.122-0.141,0.122-0.141l1.146-0.079c0,0,0.132-0.01,0.141,0.12l0.478,6.829
			c0.01,0.133-0.122,0.143-0.122,0.143l-1.146,0.079c0,0-0.131,0.011-0.141-0.122L81.65,111.969z"/>
		<path d="M85.006,113.202c-0.061-0.884,0.693-1.75,1.575-1.812l0.637-0.043c0.873-0.062,1.739,0.702,1.812,1.736l0.012,0.17
			c0.008,0.133-0.123,0.143-0.123,0.143l-1.114,0.078c0,0-0.133,0.01-0.141-0.123l-0.012-0.16c-0.023-0.324-0.293-0.408-0.413-0.4
			l-0.498,0.035c-0.141,0.01-0.367,0.129-0.346,0.433l0.015,0.222c0.012,0.152,0.068,0.25,0.219,0.343l1.544,0.99
			c0.629,0.404,1.029,0.741,1.082,1.502l0.041,0.587c0.07,0.984-0.707,1.669-1.589,1.73l-0.639,0.045
			c-0.88,0.062-1.715-0.51-1.791-1.595l-0.046-0.66c-0.009-0.13,0.122-0.141,0.122-0.141l1.114-0.077c0,0,0.133-0.009,0.141,0.122
			l0.038,0.527c0.023,0.334,0.235,0.462,0.448,0.447l0.457-0.032c0.211-0.015,0.372-0.188,0.351-0.502l-0.009-0.111
			c-0.017-0.243-0.044-0.354-0.279-0.511l-1.505-1.006c-0.503-0.339-1.011-0.62-1.073-1.523L85.006,113.202z"/>
		<path d="M92.464,114.971l-0.119-0.391c0,0-0.012-0.029-0.031-0.027c-0.032,0.001-0.03,0.032-0.03,0.032l0.245,3.485
			c0.008,0.132-0.124,0.143-0.124,0.143l-1.113,0.077c0,0-0.133,0.009-0.143-0.124l-0.476-6.829
			c-0.011-0.131,0.122-0.139,0.122-0.139l1.247-0.088c0,0,0.11-0.008,0.162,0.133l0.896,2.35c0,0,0,0.019,0.031,0.015
			c0.029-0.001,0.028-0.02,0.028-0.02l0.552-2.451c0.03-0.146,0.152-0.153,0.152-0.153l1.257-0.088c0,0,0.133-0.01,0.141,0.121
			l0.479,6.829c0.008,0.132-0.124,0.142-0.124,0.142l-1.115,0.078c0,0-0.13,0.008-0.139-0.124l-0.245-3.485
			c0,0-0.001-0.031-0.031-0.028c-0.021,0.002-0.029,0.033-0.029,0.033l-0.063,0.402l-0.266,1.292
			c-0.023,0.112-0.145,0.12-0.145,0.12l-0.527,0.038c0,0-0.11,0.007-0.159-0.101L92.464,114.971z"/>
		<path d="M98.883,114.695L99,116.367l2.198-0.153c0,0,0.132-0.01,0.141,0.112l0.077,1.123c0.011,0.133-0.122,0.143-0.122,0.143
			l-3.475,0.243c0,0-0.133,0.008-0.141-0.124l-0.479-6.829c-0.008-0.131,0.123-0.14,0.123-0.14l3.444-0.241
			c0,0,0.133-0.01,0.141,0.121l0.078,1.114c0.01,0.133-0.122,0.143-0.122,0.143l-2.169,0.152l0.092,1.286l1.529-0.107
			c0,0,0.131-0.01,0.141,0.121l0.078,1.114c0.008,0.133-0.123,0.143-0.123,0.143L98.883,114.695z"/>
		<path d="M104.427,114.306l0.117,1.672l2.198-0.153c0,0,0.132-0.009,0.141,0.114l0.077,1.123c0.011,0.132-0.122,0.141-0.122,0.141
			l-3.475,0.243c0,0-0.133,0.01-0.141-0.123l-0.479-6.829c-0.008-0.13,0.124-0.141,0.124-0.141l3.444-0.239
			c0,0,0.132-0.01,0.142,0.12l0.078,1.115c0.008,0.132-0.124,0.143-0.124,0.143l-2.169,0.15l0.092,1.286l1.529-0.107
			c0,0,0.131-0.008,0.141,0.123l0.078,1.114c0.008,0.133-0.123,0.143-0.123,0.143L104.427,114.306z"/>
		<path d="M110.019,113.845c0,0-0.014-0.032-0.043-0.03c-0.041,0.004-0.04,0.035-0.04,0.035l0.21,2.988
			c0.009,0.133-0.122,0.143-0.122,0.143l-1.135,0.079c-0.132,0.009-0.142-0.124-0.142-0.124l-0.477-6.817
			c-0.01-0.133,0.122-0.15,0.122-0.15l1.065-0.074c0.15-0.012,0.196,0.075,0.196,0.075l1.322,2.872c0,0,0.024,0.049,0.055,0.046
			c0.039-0.003,0.036-0.053,0.036-0.053l-0.204-2.908c-0.01-0.132,0.123-0.141,0.123-0.141l1.154-0.081c0,0,0.132-0.01,0.143,0.123
			l0.476,6.827c0.011,0.133-0.122,0.143-0.122,0.143l-1.044,0.072c-0.07,0.005-0.153-0.018-0.213-0.146L110.019,113.845z"/>
		<path d="M114.697,116.521l-0.476-6.829c-0.011-0.131,0.122-0.141,0.122-0.141l3.384-0.236c0,0,0.131-0.01,0.139,0.12l0.08,1.115
			c0.008,0.132-0.123,0.143-0.123,0.143l-2.108,0.146l0.096,1.358l1.469-0.103c0,0,0.133-0.01,0.143,0.12l0.077,1.115
			c0.009,0.132-0.124,0.143-0.124,0.143l-1.469,0.103l0.199,2.846c0.01,0.133-0.123,0.143-0.123,0.143l-1.145,0.079
			C114.707,116.653,114.697,116.521,114.697,116.521z"/>
		<path d="M121.836,113.16l-0.627,0.045l0.198,2.847c0.011,0.132-0.122,0.141-0.122,0.141l-1.135,0.079c0,0-0.132,0.01-0.141-0.122
			l-0.478-6.829c-0.009-0.131,0.124-0.141,0.124-0.141l2.044-0.143c1.218-0.086,1.975,0.572,2.062,1.81l0.015,0.215
			c0.047,0.679-0.188,1.254-0.618,1.641l0.729,3.166c0.017,0.079-0.01,0.144-0.081,0.148l-1.196,0.083
			c-0.039,0.003-0.11-0.002-0.137-0.081L121.836,113.16z M121.037,110.467l0.096,1.358l0.668-0.047
			c0.445-0.031,0.626-0.246,0.596-0.673l-0.008-0.112c-0.03-0.414-0.236-0.604-0.682-0.572L121.037,110.467z"/>
	</g>
	<g>
		<path d="M130.256,115.419c0.009,0.103-0.031,0.134-0.103,0.141l-1.194,0.083c0,0-0.122,0.008-0.163-0.143l-0.2-0.678l-1.58,0.11
			l-0.103,0.72c-0.021,0.134-0.153,0.144-0.153,0.144l-1.166,0.081c-0.1,0.007-0.122-0.021-0.129-0.124l0.999-6.951
			c0.013-0.112,0.155-0.123,0.155-0.123l1.519-0.105c0,0,0.142-0.01,0.17,0.1L130.256,115.419z M127.191,113.536l1.056-0.073
			l-0.713-2.762L127.191,113.536z"/>
		<path d="M133.181,112.21c0,0-0.012-0.029-0.042-0.027c-0.041,0.003-0.039,0.034-0.039,0.034l0.21,2.989
			c0.008,0.132-0.123,0.14-0.123,0.14l-1.136,0.08c-0.131,0.01-0.141-0.123-0.141-0.123l-0.477-6.817
			c-0.01-0.132,0.121-0.152,0.121-0.152l1.064-0.074c0.152-0.01,0.199,0.078,0.199,0.078l1.319,2.871c0,0,0.025,0.048,0.055,0.046
			c0.041-0.003,0.038-0.053,0.038-0.053l-0.205-2.909c-0.008-0.131,0.124-0.139,0.124-0.139l1.154-0.081c0,0,0.133-0.01,0.141,0.121
			l0.479,6.829c0.01,0.132-0.123,0.142-0.123,0.142l-1.043,0.073c-0.071,0.005-0.154-0.021-0.214-0.149L133.181,112.21z"/>
	</g>
	<g>
		<path d="M141.584,113.175c0.067,0.983-0.613,1.733-1.493,1.794l-0.71,0.05c-0.882,0.062-1.641-0.587-1.708-1.571l-0.273-3.899
			c-0.069-0.984,0.591-1.754,1.472-1.814l0.72-0.052c0.872-0.051,1.65,0.608,1.721,1.593l0.024,0.364
			c0.01,0.132-0.122,0.141-0.122,0.141l-1.115,0.077c0,0-0.132,0.01-0.141-0.122l-0.021-0.293c-0.013-0.193-0.215-0.322-0.407-0.31
			l-0.385,0.027c-0.203,0.015-0.364,0.188-0.351,0.382l0.263,3.748c0.015,0.213,0.188,0.363,0.4,0.349l0.386-0.026
			c0.211-0.015,0.373-0.188,0.358-0.402l-0.043-0.597c-0.008-0.133,0.124-0.143,0.124-0.143l1.113-0.077
			c0,0,0.132-0.009,0.143,0.124L141.584,113.175z"/>
		<path d="M144.686,111.492l0.117,1.672l2.198-0.154c0,0,0.132-0.008,0.141,0.114l0.079,1.123c0.008,0.133-0.124,0.141-0.124,0.141
			l-3.475,0.243c0,0-0.131,0.01-0.141-0.122l-0.477-6.829c-0.01-0.131,0.122-0.141,0.122-0.141l3.443-0.241
			c0,0,0.133-0.009,0.143,0.122l0.078,1.114c0.008,0.133-0.124,0.143-0.124,0.143l-2.169,0.15l0.091,1.287l1.53-0.107
			c0,0,0.132-0.009,0.141,0.122l0.078,1.115c0.01,0.132-0.123,0.141-0.123,0.141L144.686,111.492z"/>
		<path d="M149.426,112.973c0.373-0.026,0.689,0.246,0.714,0.622c0.026,0.374-0.246,0.688-0.622,0.715
			c-0.373,0.026-0.689-0.248-0.716-0.622C148.777,113.312,149.05,113,149.426,112.973z"/>
		<path d="M151.936,113.916l-0.478-6.829c-0.008-0.13,0.122-0.139,0.122-0.139l3.384-0.236c0,0,0.133-0.01,0.141,0.121l0.078,1.114
			c0.01,0.133-0.122,0.143-0.122,0.143l-2.107,0.147l0.095,1.357l1.47-0.103c0,0,0.133-0.01,0.141,0.121l0.078,1.114
			c0.01,0.133-0.123,0.143-0.123,0.143l-1.47,0.103l0.2,2.847c0.008,0.132-0.123,0.141-0.123,0.141l-1.145,0.08
			C151.944,114.048,151.936,113.916,151.936,113.916z"/>
	</g>
	<g>
		<path d="M159.193,110.548l-0.627,0.045l0.198,2.847c0.011,0.132-0.122,0.142-0.122,0.142l-1.135,0.08c0,0-0.132,0.008-0.141-0.124
			l-0.478-6.829c-0.009-0.131,0.122-0.14,0.122-0.14l2.046-0.144c1.218-0.084,1.977,0.574,2.062,1.812l0.015,0.213
			c0.047,0.678-0.188,1.254-0.618,1.643l0.729,3.164c0.017,0.081-0.01,0.144-0.081,0.148l-1.196,0.085
			c-0.039,0.001-0.112-0.004-0.139-0.083L159.193,110.548z M158.395,107.856l0.095,1.357l0.67-0.046
			c0.444-0.031,0.625-0.246,0.595-0.673l-0.008-0.112c-0.03-0.414-0.236-0.604-0.684-0.572L158.395,107.856z"/>
	</g>
</g>
</svg>
