<?xml version="1.0" encoding="utf-8"?>
<!-- Generator: Adobe Illustrator 16.0.0, SVG Export Plug-In . SVG Version: 6.00 Build 0)  -->
<!DOCTYPE svg PUBLIC "-//W3C//DTD SVG 1.0//EN" "http://www.w3.org/TR/2001/REC-SVG-20010904/DTD/svg10.dtd">
<svg version="1.0" id="Calque_1" xmlns="http://www.w3.org/2000/svg" xmlns:xlink="http://www.w3.org/1999/xlink" x="0px" y="0px"
	 width="480px" height="172.143px" viewBox="0 0 480 172.143" enable-background="new 0 0 480 172.143" xml:space="preserve">
<linearGradient id="SVGID_1_" gradientUnits="userSpaceOnUse" x1="164.3774" y1="-77.4656" x2="447.2869" y2="259.6927" gradientTransform="matrix(1 0 0 -1 -66 177.1431)">
	<stop  offset="0" style="stop-color:#FFFF00"/>
	<stop  offset="0.0203" style="stop-color:#F8FD04"/>
	<stop  offset="0.3027" style="stop-color:#A1DF3A"/>
	<stop  offset="0.5515" style="stop-color:#5CC864"/>
	<stop  offset="0.7575" style="stop-color:#2AB783"/>
	<stop  offset="0.913" style="stop-color:#0CAD96"/>
	<stop  offset="1" style="stop-color:#00A99D"/>
</linearGradient>
<rect y="0" fill="url(#SVGID_1_)" width="479.665" height="172.061"/>
<g>
	
		<rect x="228.648" y="81.851" transform="matrix(-0.917 0.3988 -0.3988 -0.917 616.5608 48.7627)" fill="#00FEE8" width="149.121" height="13.328"/>
	<path fill="#FFFF00" d="M139.204,0.225c-0.806,1-1.597,2.01-2.373,3.03l9.831-3.03"/>
	<path fill="#FFFF00" d="M161.666,0.225l-29.104,8.974c-1.701,2.503-3.322,5.058-4.853,7.665l53.963-16.638"/>
	<path fill="#FFFF00" d="M196.68,0.225L124.6,22.448c-1.254,2.384-2.434,4.807-3.546,7.262l95.633-29.485"/>
	<path fill="#FFFF00" d="M231.689,0.225L118.77,35.039c-0.927,2.297-1.791,4.621-2.593,6.969L251.695,0.225"/>
	<path fill="#FFFF00" d="M266.701,0.225L114.532,47.142c-0.664,2.225-1.269,4.47-1.82,6.729L286.71,0.225"/>
	<path fill="#FFFF00" d="M301.711,0.224L111.593,58.843c-0.442,2.164-0.833,4.341-1.17,6.529L321.719,0.224"/>
	<path fill="#FFFF00" d="M336.723,0.224l-226.95,69.976c-0.249,2.109-0.449,4.227-0.598,6.354L352.883,1.411
		c-0.313-0.398-0.63-0.793-0.948-1.188"/>
	<path fill="#FFFF00" d="M355.735,5.157L108.927,81.254c-0.073,2.06-0.098,4.123-0.077,6.191l250.436-77.213
		C358.137,8.509,356.954,6.819,355.735,5.157z"/>
	<path fill="#FFFF00" d="M364.838,19.315c-0.987-1.769-2.008-3.512-3.065-5.224L108.969,92.037c0.089,2.01,0.228,4.025,0.407,6.042
		L364.838,19.315z"/>
	<path fill="#FFFF00" d="M369.589,28.646c-0.836-1.812-1.702-3.604-2.61-5.365l-257.138,79.283c0.241,1.967,0.534,3.935,0.863,5.902
		L369.589,28.646z"/>
	<path fill="#FFFF00" d="M373.574,38.211c-0.69-1.854-1.412-3.689-2.176-5.497l-259.897,80.13c0.386,1.927,0.824,3.85,1.297,5.771
		L373.574,38.211z"/>
	<path fill="#FFFF00" d="M376.175,45.824c-0.355-1.157-0.728-2.305-1.112-3.445L113.916,122.9c0.325,1.159,0.664,2.315,1.021,3.473
		c0.225,0.728,0.463,1.444,0.698,2.165l261.185-80.53C376.606,47.28,376.398,46.55,376.175,45.824z"/>
	<path fill="#FFFF00" d="M379.329,58.028c-0.406-1.92-0.849-3.839-1.339-5.757l-260.924,80.45c0.674,1.859,1.39,3.695,2.136,5.511
		L379.329,58.028z"/>
	<path fill="#FFFF00" d="M381.088,68.28c-0.26-1.962-0.558-3.925-0.906-5.889l-259.228,79.926c0.818,1.818,1.677,3.609,2.567,5.379
		L381.088,68.28z"/>
	<path fill="#FFFF00" d="M382.07,78.772c-0.109-2.006-0.256-4.017-0.456-6.028L125.6,151.676c0.968,1.776,1.978,3.521,3.018,5.24
		L382.07,78.772z"/>
	<path fill="#FFFF00" d="M382.234,89.518c0.051-2.053,0.056-4.11,0.013-6.175l-251.202,77.452c1.127,1.729,2.291,3.427,3.488,5.094
		L382.234,89.518z"/>
	<path fill="#FFFF00" d="M149.763,171.987l231.744-71.45c0.225-2.102,0.397-4.212,0.522-6.33l-244.688,75.441
		c0.58,0.751,1.168,1.497,1.763,2.232"/>
	<path fill="#FFFF00" d="M184.913,171.945l194.899-60.091c0.414-2.155,0.778-4.324,1.092-6.505l-216.107,66.632"/>
	<path fill="#FFFF00" d="M220.138,171.879l156.893-48.375c0.632-2.216,1.213-4.45,1.732-6.701l-178.631,55.076"/>
	<path fill="#FFFF00" d="M255.152,171.879L372.98,135.55c0.89-2.288,1.722-4.6,2.488-6.938l-140.328,43.267"/>
	<path fill="#FFFF00" d="M289.844,171.977l77.529-23.903c1.208-2.373,2.353-4.781,3.421-7.224l-100.64,31.027"/>
	<path fill="#FFFF00" d="M325.183,171.879l34.565-10.658c1.631-2.48,3.175-5.02,4.64-7.6l-59.217,18.258"/>
	<path fill="#FFFF00" d="M351.767,172.143c1.332-1.646,2.626-3.323,3.88-5.029l-15.456,4.766"/>
	<polyline fill="none" stroke="#02FFE9" stroke-width="14.722" stroke-miterlimit="10" points="91.691,162.902 51.328,60.361 
		65.805,52.849 137.745,126.326 149.534,120.958 140.608,44.603 156.317,36.956 249.244,101.338 	"/>
	
		<rect x="301.96" y="42.404" transform="matrix(-0.9307 -0.3659 0.3659 -0.9307 698.4623 229.5173)" fill="#00FEE8" width="138.04" height="12.341"/>
	<g>
		
			<rect x="218.672" y="100.741" transform="matrix(-0.9859 0.1676 -0.1676 -0.9859 656.3439 176.2122)" fill="#FFFFFF" width="204.13" height="30.12"/>
		
			<text transform="matrix(0.9859 -0.1676 0.1676 0.9859 232.3594 139.6204)" font-family="'DejaVuSerif-BoldItalic'" font-size="22.8341">Frédéric Tacer</text>
	</g>
</g>
</svg>
