<?xml version="1.0" encoding="utf-8"?>
<!-- Generator: Adobe Illustrator 16.0.0, SVG Export Plug-In . SVG Version: 6.00 Build 0)  -->
<!DOCTYPE svg PUBLIC "-//W3C//DTD SVG 1.0//EN" "http://www.w3.org/TR/2001/REC-SVG-20010904/DTD/svg10.dtd">
<svg version="1.0" id="Calque_1" xmlns="http://www.w3.org/2000/svg" xmlns:xlink="http://www.w3.org/1999/xlink" x="0px" y="0px"
	 width="480px" height="172.143px" viewBox="0 0 480 172.143" enable-background="new 0 0 480 172.143" xml:space="preserve">
<linearGradient id="SVGID_1_" gradientUnits="userSpaceOnUse" x1="98.4766" y1="254.6914" x2="381.5241" y2="-82.6315">
	<stop  offset="0" style="stop-color:#0092FF"/>
	<stop  offset="0.0751" style="stop-color:#1687F7"/>
	<stop  offset="0.421" style="stop-color:#7955D6"/>
	<stop  offset="0.7006" style="stop-color:#C131BE"/>
	<stop  offset="0.8998" style="stop-color:#EE1BAF"/>
	<stop  offset="1" style="stop-color:#FF12A9"/>
</linearGradient>
<rect fill="url(#SVGID_1_)" width="480" height="172.061"/>
<path fill="#FF6138" d="M479.999,14.203c-5.865,1.022-9.901,6.528-9.058,12.477c0.685,4.88,4.452,8.573,9.058,9.385"/>
<path fill="#FF6138" d="M464.633,35.033c-4.173,0.587-7.48,3.424-8.855,7.114l19.334-2.719
	C472.769,36.265,468.81,34.447,464.633,35.033z"/>
<path fill="#FF6138" d="M450.057,10.937c0.852,6.074,6.451,10.294,12.523,9.443c6.066-0.851,10.294-6.459,9.444-12.534
	c-0.088-0.622-0.237-1.218-0.421-1.797l-21.643,3.034C449.945,9.693,449.968,10.312,450.057,10.937z"/>
<path fill="#FF6138" d="M456.286,28.736c-0.858-6.063-6.466-10.297-12.533-9.445c-0.001,0-0.001,0-0.002,0l3.088,21.98
	C452.915,40.412,457.143,34.803,456.286,28.736z"/>
<path fill="#FF6138" d="M366.328,0l0.223,1.587l10.734-1.507"/>
<path fill="#FF6138" d="M410.213,46.423c6.059-0.859,10.297-6.471,9.435-12.542c-0.854-6.066-6.46-10.3-12.537-9.446
	c-6.062,0.862-10.285,6.475-9.444,12.537C398.521,43.041,404.134,47.262,410.213,46.423z"/>
<path fill="#FF6138" d="M446.834,41.272c0.002,0,0.003,0,0.005-0.001l-3.088-21.98c-6.074,0.851-10.295,6.461-9.44,12.532
	C435.162,37.893,440.771,42.127,446.834,41.272z"/>
<path fill="#FF6138" d="M428.007,40.18c-4.177,0.59-7.479,3.427-8.854,7.118l19.327-2.718
	C436.135,41.413,432.178,39.594,428.007,40.18z"/>
<path fill="#FF6138" d="M391.375,45.333c-4.175,0.585-7.482,3.425-8.857,7.117l19.334-2.719
	C399.511,46.564,395.55,44.745,391.375,45.333z"/>
<path fill="#FF6138" d="M425.95,25.526c6.063-0.849,10.301-6.466,9.437-12.534c-0.087-0.625-0.235-1.226-0.419-1.808l-21.651,3.035
	c-0.017,0.613,0.005,1.234,0.093,1.862C414.266,22.149,419.872,26.377,425.95,25.526z"/>
<path fill="#FF6138" d="M389.312,30.676c6.073-0.851,10.303-6.463,9.454-12.535c-0.09-0.63-0.242-1.235-0.429-1.822l-21.646,3.035
	c-0.019,0.618,0.002,1.244,0.09,1.876C377.642,27.299,383.252,31.532,389.312,30.676z"/>
<path fill="#FF6138" d="M373.578,51.574c6.065-0.86,10.295-6.474,9.441-12.545c-0.843-6.058-6.466-10.293-12.534-9.446
	L373.578,51.574L373.578,51.574z"/>
<path fill="#FF6138" d="M423.41,98.65c-0.006-0.04-0.014-0.079-0.02-0.119c-1.817-0.797-3.864-1.126-5.971-0.829
	c-6.074,0.853-10.302,6.466-9.456,12.53c0.581,4.095,3.319,7.34,6.904,8.768C421.021,114.454,424.549,106.764,423.41,98.65z"/>
<path fill="#FF6138" d="M410.71,121.396c-2.357-2.158-5.626-3.287-9.038-2.811c-3.771,0.531-6.822,2.896-8.394,6.063l11.792-1.657
	C407.064,122.713,408.951,122.164,410.71,121.396z"/>
<path fill="#FF6138" d="M399.604,103.936c6.077-0.846,10.302-6.458,9.444-12.527c-0.849-6.067-6.449-10.307-12.528-9.449
	c-6.064,0.851-10.294,6.465-9.439,12.535C387.929,100.557,393.545,104.791,399.604,103.936z"/>
<path fill="#FF6138" d="M393.319,112.297c-0.857-6.07-6.463-10.299-12.535-9.444l3.089,21.978l0,0
	C389.94,123.978,394.167,118.359,393.319,112.297z"/>
<path fill="#FF6138" d="M406.039,79.964c1.98,1.943,4.662,3.126,7.554,3.177C411.31,81.621,408.751,80.526,406.039,79.964z"/>
<path fill="#FF6138" d="M387.549,81.145l-9.647,1.195l0.823,5.855C382.876,87.609,386.16,84.802,387.549,81.145z"/>
<path fill="#FF6138" d="M323.887-0.001c-2.672,1.88-4.434,4.892-4.688,8.236l21.448-3.011c-0.795-2.147-2.227-3.954-4.04-5.225"/>
<path fill="#FF6138" d="M356.512,0c-0.374,0.979-0.611,2.02-0.693,3.094l10.732-1.507L366.328,0"/>
<path fill="#FF6138" d="M300.478,0c2.348,3.132,6.28,4.921,10.435,4.336c3.027-0.422,5.602-2.036,7.312-4.304"/>
<path fill="#FF6138" d="M304.02,10.366c-1.782-4.774-6.678-7.85-11.938-7.115l1.212,8.621L304.02,10.366z"/>
<path fill="#FF6138" d="M339.011,71.371c-6.08,0.848-10.307,6.461-9.464,12.525c0,0.002,0.001,0.004,0.001,0.005l21.983-3.09
	c0-0.002,0-0.004,0-0.006C350.688,74.745,345.068,70.511,339.011,71.371z"/>
<path fill="#FF6138" d="M336.937,56.712c6.074-0.856,10.301-6.463,9.453-12.529c-0.859-6.076-6.461-10.303-12.534-9.446
	c-6.068,0.857-10.287,6.47-9.449,12.529C325.268,53.346,330.884,57.567,336.937,56.712z"/>
<path fill="#FF6138" d="M373.577,51.574l-3.092-21.991c-0.001,0-0.002,0-0.003,0c-6.06,0.857-10.285,6.465-9.443,12.54
	C361.901,48.187,367.51,52.423,373.577,51.574z"/>
<path fill="#FF6138" d="M354.969,72.474c-0.115-0.48-0.216-0.967-0.285-1.467c-0.912-6.419,2.302-12.442,7.604-15.472l-0.034-0.235
	l2.971-0.418c-2.345-3.169-6.302-4.991-10.481-4.407c-6.062,0.857-10.292,6.466-9.442,12.537
	C346.021,68.11,350.094,71.895,354.969,72.474z"/>
<path fill="#FF6138" d="M321.207,77.604c6.06-0.854,10.294-6.46,9.451-12.538c-0.867-6.063-6.47-10.296-12.545-9.446
	c-6.071,0.863-10.301,6.468-9.441,12.538C309.518,74.225,315.133,78.457,321.207,77.604z"/>
<path fill="#FF6138" d="M352.687,35.827c6.065-0.859,10.297-6.466,9.435-12.548c-0.088-0.63-0.238-1.235-0.424-1.822l-21.635,3.033
	c-0.019,0.623,0.004,1.253,0.094,1.892C341.002,32.444,346.614,36.671,352.687,35.827z"/>
<path fill="#FF6138" d="M303.516,31.524c0.86,6.072,6.472,10.298,12.535,9.446c6.068-0.852,10.302-6.458,9.45-12.53
	c-0.089-0.64-0.242-1.253-0.433-1.849l-21.644,3.034C303.405,30.25,303.426,30.884,303.516,31.524z"/>
<path fill="#FF6138" d="M302.371,76.512l1.544,10.993l10.993-1.545c0-0.001,0-0.001,0-0.001
	C314.048,79.892,308.436,75.67,302.371,76.512z"/>
<path fill="#FF6138" d="M309.754,49.321c-0.853-6.057-6.461-10.292-12.526-9.439l3.087,21.98
	C306.38,61.011,310.614,55.397,309.754,49.321z"/>
<path fill="#FF6138" d="M347.232,129.976c6.082-0.846,10.305-6.468,9.447-12.533c-0.849-6.068-6.458-10.296-12.528-9.45
	c-6.067,0.857-10.297,6.467-9.448,12.539C335.559,126.599,341.173,130.829,347.232,129.976z"/>
<path fill="#FF6138" d="M380.781,102.853c-6.063,0.844-10.301,6.468-9.438,12.531c0.838,6.068,6.466,10.302,12.53,9.446
	l-3.089-21.978C380.783,102.853,380.782,102.853,380.781,102.853z"/>
<path fill="#FF6138" d="M365.039,123.735c-3.768,0.532-6.82,2.896-8.395,6.061l18.133-2.548
	C372.391,124.637,368.806,123.206,365.039,123.735z"/>
<path fill="#FF6138" d="M328.405,128.886c-3.758,0.529-6.813,2.892-8.389,6.057l18.131-2.547
	C335.758,129.785,332.169,128.355,328.405,128.886z"/>
<path fill="#FF6138" d="M362.977,109.094c6.074-0.86,10.302-6.474,9.444-12.543c-0.856-6.066-6.466-10.294-12.528-9.441
	c-6.07,0.846-10.3,6.463-9.438,12.54C351.301,105.71,356.914,109.943,362.977,109.094z"/>
<path fill="#FF6138" d="M326.346,114.242c6.077-0.854,10.302-6.47,9.447-12.542c-0.851-6.065-6.461-10.293-12.538-9.447
	c-6.058,0.858-10.284,6.469-9.439,12.538C314.678,110.86,320.276,115.088,326.346,114.242z"/>
<path fill="#FF6138" d="M320.051,122.587c-0.847-6.061-6.47-10.3-12.525-9.435c-0.002,0-0.005,0.001-0.007,0.001l3.087,21.973
	c0.001,0,0.003,0,0.004,0C316.667,134.273,320.909,128.663,320.051,122.587z"/>
<path fill="#FF6138" d="M342.089,93.343c6.058-0.851,10.289-6.462,9.442-12.531l-21.983,3.09
	C330.418,89.974,336.019,94.195,342.089,93.343z"/>
<path fill="#FF6138" d="M378.722,88.196c0.001,0,0.002,0,0.003-0.001l-0.823-5.855l-9.816,1.215
	C370.402,86.869,374.441,88.803,378.722,88.196z"/>
<path fill="#FF6138" d="M305.459,98.492c6.073-0.855,10.294-6.465,9.449-12.532l-10.993,1.545L305.459,98.492z"/>
<path fill="#FF6138" d="M255.441,8.399c-6.063,0.854-10.284,6.466-9.438,12.53c0,0.002,0.001,0.005,0.002,0.008l21.977-3.087
	C267.134,11.771,261.52,7.542,255.441,8.399z"/>
<path fill="#FF6138" d="M282.564,15c1-0.938,2.204-1.671,3.555-2.122l7.175-1.007l-1.212-8.621c-0.004,0-0.009,0-0.013,0.001
	C286.266,4.067,282.165,9.234,282.564,15z"/>
<path fill="#FF6138" d="M261.74,0.039c0.857,6.086,6.465,10.304,12.53,9.447c5.035-0.704,8.805-4.685,9.454-9.485"/>
<path fill="#FF6138" d="M225.619,0c-0.562,1.614-0.756,3.383-0.498,5.191c0.847,6.07,6.438,10.293,12.523,9.444
	c6.067-0.848,10.302-6.461,9.435-12.534c-0.101-0.729-0.271-1.431-0.501-2.101"/>
<path fill="#FF6138" d="M231.339,22.997c0-0.002,0-0.004,0-0.007c-0.847-6.07-6.457-10.293-12.521-9.441l1.545,10.99L231.339,22.997
	z"/>
<path fill="#FF6138" d="M265.737,81.661c-6.061,0.852-10.294,6.46-9.437,12.535l21.966-3.087c-0.001-0.003-0.001-0.007-0.001-0.01
	C277.42,85.038,271.808,80.8,265.737,81.661z"/>
<path fill="#FF6138" d="M302.371,76.512L302.371,76.512c-6.065,0.854-10.3,6.464-9.442,12.53c0,0.002,0.001,0.005,0.001,0.007
	l10.985-1.544L302.371,76.512z"/>
<path fill="#FF6138" d="M263.676,67.009c6.079-0.853,10.299-6.473,9.445-12.532c-0.845-6.067-6.462-10.297-12.518-9.448
	c-6.084,0.853-10.306,6.467-9.464,12.532C252.005,63.633,257.611,67.859,263.676,67.009z"/>
<path fill="#FF6138" d="M300.311,61.863c0.001,0,0.002,0,0.004-0.001l-3.087-21.98h-0.001c-6.072,0.854-10.301,6.468-9.451,12.532
	C288.625,58.481,294.246,62.714,300.311,61.863z"/>
<path fill="#FF6138" d="M284.566,82.748c6.085-0.846,10.301-6.456,9.44-12.528c-0.851-6.066-6.448-10.294-12.521-9.449
	c-6.073,0.856-10.302,6.462-9.448,12.529C272.893,79.381,278.502,83.608,284.566,82.748z"/>
<path fill="#FF6138" d="M247.937,87.898c6.077-0.851,10.303-6.462,9.442-12.537c-0.855-6.064-6.466-10.299-12.531-9.439
	c-6.065,0.854-10.292,6.461-9.435,12.538C236.258,84.513,241.869,88.751,247.937,87.898z"/>
<path fill="#FF6138" d="M279.428,46.12c6.054-0.863,10.297-6.466,9.439-12.537c-0.095-0.67-0.256-1.313-0.461-1.934
	c-4.164-0.329-7.714-3.312-8.661-7.458c-1.103-0.189-2.252-0.217-3.42-0.054c-6.058,0.86-10.29,6.466-9.432,12.542
	C267.739,42.74,273.345,46.974,279.428,46.12z"/>
<path fill="#FF6138" d="M242.788,51.266c6.073-0.85,10.293-6.465,9.45-12.53c-0.855-6.073-6.466-10.302-12.539-9.455
	c-6.062,0.857-10.294,6.468-9.435,12.543C231.119,47.889,236.725,52.126,242.788,51.266z"/>
<path fill="#FF6138" d="M229.115,86.811l1.544,10.989l10.983-1.544C240.788,90.191,235.173,85.957,229.115,86.811z"/>
<path fill="#FF6138" d="M236.497,59.618c-0.858-6.063-6.464-10.296-12.531-9.443l3.09,21.982c0.001,0,0.002,0,0.003,0
	C233.12,71.296,237.355,65.694,236.497,59.618z"/>
<path fill="#FF6138" d="M258.524,30.377c6.07-0.854,10.304-6.468,9.457-12.525c0,0,0-0.001,0-0.002l-21.977,3.087
	C246.862,27.005,252.468,31.235,258.524,30.377z"/>
<path fill="#FF6138" d="M221.906,35.521c6.069-0.851,10.282-6.459,9.433-12.523l-10.977,1.542L221.906,35.521z"/>
<path fill="#FF6138" d="M273.981,140.271c6.067-0.855,10.298-6.463,9.438-12.536c-0.853-6.062-6.461-10.292-12.53-9.446
	c-6.069,0.86-10.292,6.474-9.446,12.53C262.302,136.902,267.908,141.125,273.981,140.271z"/>
<path fill="#FF6138" d="M298.074,125.676c0.857,6.072,6.447,10.3,12.531,9.45l-3.087-21.973
	C301.453,113.997,297.217,119.607,298.074,125.676z"/>
<path fill="#FF6138" d="M291.777,134.027c-3.76,0.532-6.813,2.896-8.392,6.062l18.125-2.547
	C299.129,134.933,295.547,133.501,291.777,134.027z"/>
<path fill="#FF6138" d="M255.147,139.185c-3.766,0.527-6.817,2.889-8.392,6.052l18.121-2.547
	C262.49,140.081,258.906,138.65,255.147,139.185z"/>
<path fill="#FF6138" d="M289.728,119.383c6.056-0.86,10.278-6.47,9.439-12.532c-0.857-6.077-6.47-10.304-12.543-9.446
	c-6.058,0.848-10.289,6.466-9.443,12.529C278.04,116.004,283.646,120.233,289.728,119.383z"/>
<path fill="#FF6138" d="M253.084,124.529c6.07-0.846,10.296-6.47,9.452-12.533c-0.862-6.066-6.462-10.296-12.549-9.448
	c-6.053,0.855-10.284,6.471-9.438,12.54C241.407,121.15,247.027,125.39,253.084,124.529z"/>
<path fill="#FF6138" d="M246.785,132.889c-0.847-6.067-6.455-10.297-12.523-9.452l3.09,21.987
	C243.418,144.566,247.645,138.948,246.785,132.889z"/>
<path fill="#FF6138" d="M256.301,94.2c0.844,6.064,6.461,10.293,12.53,9.446c6.062-0.859,10.287-6.464,9.436-12.537l-21.966,3.087
	C256.301,94.197,256.301,94.199,256.301,94.2z"/>
<path fill="#FF6138" d="M292.93,89.049c0.866,6.076,6.467,10.295,12.526,9.444c0.001,0,0.002,0,0.003-0.001l-1.544-10.987
	L292.93,89.049z"/>
<path fill="#FF6138" d="M232.203,108.786c6.075-0.852,10.29-6.463,9.439-12.528c0,0,0-0.001,0-0.002L230.659,97.8L232.203,108.786z"
	/>
<path fill="#FF6138" d="M194.713,28.134c-0.848-6.066-6.471-10.297-12.526-9.435c-6.076,0.843-10.305,6.459-9.456,12.527
	c0,0.001,0,0.003,0.001,0.005l21.982-3.088C194.713,28.14,194.713,28.137,194.713,28.134z"/>
<path fill="#FF6138" d="M218.817,13.549c-0.001,0-0.001,0-0.002,0c-6.069,0.851-10.305,6.457-9.439,12.534l10.987-1.544
	L218.817,13.549z"/>
<path fill="#FF6138" d="M169.928-0.002c2.373,2.945,6.185,4.608,10.192,4.04c2.914-0.409,5.402-1.914,7.108-4.038"/>
<path fill="#FF6138" d="M192.698,0c-3.053,2.355-4.79,6.242-4.211,10.336c0.851,6.074,6.46,10.298,12.525,9.448
	c6.073-0.857,10.304-6.464,9.439-12.535c-0.42-2.996-1.999-5.542-4.22-7.25"/>
<path fill="#FF6138" d="M173.826,12.393c-0.853-6.062-6.469-10.297-12.54-9.445c-6.059,0.859-10.296,6.47-9.436,12.533
	c0.842,6.076,6.461,10.303,12.527,9.456C170.456,24.08,174.678,18.462,173.826,12.393z"/>
<path fill="#FF6138" d="M158.08,33.29L158.08,33.29c-0.852-6.07-6.463-10.299-12.526-9.452c-0.003,0-0.006,0.001-0.009,0.001
	l1.543,10.995L158.08,33.29z"/>
<path fill="#FF6138" d="M142.199-0.001l0.547,3.898c0.676,0.837,1.146,1.858,1.306,3c0.104,0.727,0.075,1.468-0.059,2.188
	c4.676-0.873,8.158-4.588,8.9-9.086"/>
<path fill="#FF6138" d="M192.479,91.948c-6.076,0.854-10.297,6.462-9.445,12.536l21.972-3.084
	C204.16,95.34,198.538,91.101,192.479,91.948z"/>
<path fill="#FF6138" d="M229.115,86.811c-0.002,0.001-0.004,0.001-0.006,0.001c-6.069,0.848-10.304,6.46-9.449,12.532l0,0l11-1.544
	L229.115,86.811z"/>
<path fill="#FF6138" d="M190.415,77.306c6.073-0.861,10.304-6.465,9.442-12.537c-0.843-6.062-6.459-10.297-12.536-9.448
	c-6.06,0.859-10.296,6.472-9.436,12.535C178.746,73.932,184.347,78.161,190.415,77.306z"/>
<path fill="#FF6138" d="M223.96,50.176c-6.068,0.86-10.297,6.464-9.445,12.533c0.849,6.071,6.454,10.297,12.541,9.448l-3.09-21.982
	C223.964,50.176,223.962,50.176,223.96,50.176z"/>
<path fill="#FF6138" d="M211.308,93.047c6.068-0.855,10.298-6.46,9.443-12.532c-0.856-6.067-6.462-10.302-12.543-9.456
	c-6.056,0.865-10.29,6.471-9.438,12.537C199.634,89.675,205.241,93.9,211.308,93.047z"/>
<path fill="#FF6138" d="M174.675,98.193c6.074-0.855,10.29-6.466,9.447-12.528c-0.857-6.077-6.471-10.306-12.529-9.455
	c-6.078,0.854-10.3,6.468-9.449,12.541C162.999,94.814,168.614,99.048,174.675,98.193z"/>
<path fill="#FF6138" d="M206.152,56.41c6.09-0.853,10.3-6.464,9.451-12.531c-0.855-6.069-6.467-10.306-12.523-9.45
	c-6.073,0.857-10.313,6.466-9.444,12.541C194.481,53.038,200.095,57.267,206.152,56.41z"/>
<path fill="#FF6138" d="M169.521,61.562c6.08-0.853,10.307-6.458,9.45-12.535c-0.848-6.067-6.46-10.294-12.533-9.445
	c-6.061,0.857-10.297,6.467-9.44,12.539C157.844,58.182,163.461,62.416,169.521,61.562z"/>
<path fill="#FF6138" d="M159.137,97.137c0.285,0.822,0.503,1.688,0.631,2.597c0.412,2.929-0.124,5.759-1.359,8.208l9.964-1.398
	C167.688,101.603,163.831,97.883,159.137,97.137z"/>
<path fill="#FF6138" d="M163.232,69.92c-0.854-6.07-6.471-10.305-12.527-9.444c-0.003,0-0.006,0.001-0.009,0.002l3.091,21.974
	C159.862,81.6,164.088,75.993,163.232,69.92z"/>
<path fill="#FF6138" d="M185.28,40.674c6.059-0.852,10.291-6.453,9.434-12.531l-21.982,3.088
	C173.6,37.301,179.2,41.524,185.28,40.674z"/>
<path fill="#FF6138" d="M221.895,35.522c0.003,0,0.007-0.001,0.011-0.002l-1.543-10.981l-10.987,1.544c0,0,0,0.001,0,0.001
	C210.232,32.15,215.836,36.37,221.895,35.522z"/>
<path fill="#FF6138" d="M158.08,33.29l-10.992,1.544l1.546,10.99c0.005-0.001,0.01,0,0.016-0.001
	C154.703,44.969,158.922,39.355,158.08,33.29z"/>
<path fill="#FF6138" d="M200.707,150.562c6.079-0.849,10.308-6.458,9.45-12.531c-0.853-6.066-6.45-10.294-12.541-9.45
	c-6.064,0.862-10.286,6.475-9.432,12.54C189.036,147.19,194.639,151.423,200.707,150.562z"/>
<path fill="#FF6138" d="M237.352,145.424C237.352,145.424,237.352,145.424,237.352,145.424l-3.09-21.987c-0.001,0-0.003,0-0.005,0
	c-6.072,0.854-10.296,6.469-9.443,12.536C225.662,142.049,231.277,146.271,237.352,145.424z"/>
<path fill="#FF6138" d="M218.511,144.333c-3.76,0.525-6.812,2.887-8.387,6.05l18.129-2.547
	C225.866,145.229,222.275,143.802,218.511,144.333z"/>
<path fill="#FF6138" d="M181.888,149.479c-3.77,0.525-6.822,2.888-8.395,6.05l18.127-2.547
	C189.235,150.376,185.648,148.947,181.888,149.479z"/>
<path fill="#FF6138" d="M216.449,129.67c6.083-0.845,10.296-6.458,9.449-12.527c-0.858-6.065-6.466-10.302-12.533-9.444
	c-6.074,0.848-10.293,6.468-9.432,12.533C204.778,126.299,210.384,130.528,216.449,129.67z"/>
<path fill="#FF6138" d="M179.827,134.821c6.074-0.848,10.296-6.463,9.44-12.535c-0.853-6.061-6.468-10.299-12.529-9.441
	c-6.072,0.85-10.295,6.466-9.45,12.535C168.142,131.452,173.747,135.677,179.827,134.821z"/>
<path fill="#FF6138" d="M173.527,143.185c-0.85-6.071-6.462-10.295-12.531-9.451l3.088,21.982
	C170.145,154.862,174.386,149.25,173.527,143.185z"/>
<path fill="#FF6138" d="M183.035,104.497c0.851,6.061,6.458,10.292,12.53,9.442c6.073-0.857,10.294-6.468,9.44-12.538
	c0,0,0,0,0-0.001l-21.972,3.084C183.035,104.489,183.035,104.493,183.035,104.497z"/>
<path fill="#FF6138" d="M219.66,99.344c0.859,6.07,6.476,10.297,12.532,9.444c0.004-0.001,0.007-0.002,0.011-0.002L230.659,97.8
	L219.66,99.344z"/>
<path fill="#FF6138" d="M157.574,109.377l1.363,9.704c6.066-0.863,10.295-6.463,9.437-12.538l0,0l-9.964,1.398
	C158.16,108.437,157.879,108.915,157.574,109.377z"/>
<path fill="#FF6138" d="M108.918,28.989c-6.061,0.851-10.3,6.459-9.441,12.534l21.975-3.087c0-0.003,0-0.007-0.001-0.01
	C120.601,32.365,114.988,28.139,108.918,28.989z"/>
<path fill="#FF6138" d="M145.545,23.839c-6.074,0.86-10.289,6.474-9.437,12.537l0,0l10.979-1.542L145.545,23.839z"/>
<path fill="#FF6138" d="M94.734,0c-0.485,1.534-0.644,3.197-0.406,4.895c0.132,0.944,0.391,1.837,0.738,2.68l21.259-2.988
	c0.101-0.909,0.104-1.843-0.03-2.791c-0.086-0.619-0.222-1.218-0.403-1.795"/>
<path fill="#FF6138" d="M131.003,0c0.14,0.852,0.383,1.66,0.698,2.427l5.404-0.759c2.223-0.319,4.328,0.602,5.642,2.229
	l-0.547-3.898"/>
<path fill="#FF6138" d="M115.214,20.628c0.855,6.076,6.467,10.307,12.532,9.444c6.075-0.847,10.306-6.456,9.452-12.527
	c-0.136-0.967-0.405-1.88-0.766-2.741l-21.244,3.038C115.086,18.751,115.082,19.683,115.214,20.628z"/>
<path fill="#FF6138" d="M78.585,25.778c0.853,6.071,6.472,10.297,12.533,9.448c6.072-0.849,10.304-6.459,9.445-12.535
	c-0.131-0.934-0.388-1.817-0.729-2.652l-21.29,3.044C78.454,23.963,78.455,24.864,78.585,25.778z"/>
<path fill="#FF6138" d="M84.823,43.583c0,0,0-0.001,0-0.001c-0.856-6.068-6.455-10.293-12.531-9.447l1.545,10.992L84.823,43.583z"/>
<path fill="#FF6138" d="M67.495,0l0.387,2.754c3.391,2.793,7.47,4.732,11.884,5.564c-0.007-0.454-0.033-0.91-0.098-1.371
	C79.279,4.127,77.854,1.702,75.831,0"/>
<path fill="#FF6138" d="M126.591,75.063c-0.845-6.064-6.459-10.3-12.529-9.439c-6.063,0.851-10.279,6.466-9.437,12.54
	c0.858,6.062,6.459,10.285,12.529,9.434C123.225,86.738,127.459,81.143,126.591,75.063z"/>
<path fill="#FF6138" d="M141.255,73.004c0.855,6.073,6.458,10.296,12.527,9.448c0.001,0,0.003-0.001,0.004-0.001l-3.091-21.974
	C144.619,61.333,140.4,66.938,141.255,73.004z"/>
<path fill="#FF6138" d="M134.959,81.36c-5.068,0.719-8.848,4.757-9.458,9.608l18.446-2.62c0.959-0.136,1.907-0.18,2.834-0.139
	C144.922,83.585,140.11,80.641,134.959,81.36z"/>
<path fill="#FF6138" d="M98.331,86.511c-5.098,0.718-8.885,4.785-9.47,9.664l21.206-3.013
	C108.15,88.654,103.403,85.795,98.331,86.511z"/>
<path fill="#FF6138" d="M142.334,54.174c-0.847-6.062-6.451-10.294-12.529-9.446c-6.064,0.855-10.287,6.466-9.437,12.533
	c0.849,6.068,6.459,10.301,12.526,9.448C138.957,65.844,143.191,60.243,142.334,54.174z"/>
<path fill="#FF6138" d="M96.265,71.857c6.072-0.849,10.291-6.461,9.442-12.528c-0.852-6.069-6.457-10.304-12.532-9.453
	c-6.07,0.86-10.283,6.476-9.447,12.533C84.586,68.478,90.2,72.713,96.265,71.857z"/>
<path fill="#FF6138" d="M89.964,80.21c-0.849-6.061-6.455-10.292-12.522-9.44l3.089,21.981c0.001,0,0.002,0,0.003,0
	C86.589,91.892,90.823,86.286,89.964,80.21z"/>
<path fill="#FF6138" d="M99.477,41.524c0.845,6.069,6.465,10.297,12.531,9.446c6.065-0.855,10.291-6.465,9.444-12.535L99.477,41.524
	C99.477,41.524,99.477,41.524,99.477,41.524z"/>
<path fill="#FF6138" d="M136.108,36.376c0.858,6.066,6.453,10.295,12.525,9.447l-1.546-10.99L136.108,36.376z"/>
<path fill="#FF6138" d="M75.381,56.111c6.065-0.859,10.301-6.464,9.442-12.528l-10.986,1.543L75.381,56.111z"/>
<path fill="#FF6138" d="M127.454,160.859c6.063-0.848,10.292-6.461,9.439-12.53c-0.852-6.069-6.465-10.297-12.542-9.447
	c-6.053,0.855-10.28,6.471-9.432,12.536C115.774,157.482,121.38,161.717,127.454,160.859z"/>
<path fill="#FF6138" d="M164.083,155.716L164.083,155.716l-3.088-21.982c-0.001,0-0.003,0-0.004,0
	c-6.063,0.855-10.294,6.468-9.44,12.533C152.402,152.341,158.013,156.557,164.083,155.716z"/>
<path fill="#FF6138" d="M145.256,154.621c-3.765,0.532-6.814,2.895-8.39,6.055l18.118-2.545
	C152.596,155.525,149.013,154.098,145.256,154.621z"/>
<path fill="#FF6138" d="M113.285,163.989l5.075-0.713c-2.385-2.609-5.972-4.036-9.737-3.5c-2.399,0.333-4.501,1.418-6.124,2.973
	C105.821,164.038,109.507,164.524,113.285,163.989z"/>
<path fill="#FF6138" d="M143.193,139.972c6.065-0.851,10.293-6.461,9.446-12.53c-0.854-6.071-6.468-10.299-12.531-9.451
	c-6.078,0.853-10.296,6.469-9.446,12.53C131.511,136.6,137.123,140.822,143.193,139.972z"/>
<path fill="#FF6138" d="M106.562,145.123c6.068-0.855,10.296-6.469,9.438-12.532c-0.847-6.068-6.458-10.3-12.525-9.445
	c-6.061,0.852-10.293,6.454-9.437,12.528C94.887,141.744,100.497,145.973,106.562,145.123z"/>
<path fill="#FF6138" d="M100.267,153.477c-0.815-5.724-5.835-9.809-11.495-9.533c0.034,0.566,0.084,1.136,0.165,1.707
	c0.916,6.505,4.648,11.917,9.786,15.186C100.033,158.711,100.64,156.136,100.267,153.477z"/>
<path fill="#FF6138" d="M122.3,124.229c3.942-0.552,7.091-3.112,8.595-6.497l-18.489,2.811
	C114.79,123.264,118.449,124.772,122.3,124.229z"/>
<path fill="#FF6138" d="M151.208,114.644l-2.476,0.376c2.368,2.954,6.18,4.63,10.202,4.062c0.001,0,0.002-0.001,0.004-0.001
	l-1.363-9.704C156.043,111.686,153.846,113.546,151.208,114.644z"/>
<path fill="#FF6138" d="M48.189,48.726c-0.857-6.061-6.467-10.293-12.529-9.436c-6.082,0.846-10.3,6.458-9.449,12.531v0l21.978-3.09
	C48.189,48.729,48.189,48.728,48.189,48.726z"/>
<path fill="#FF6138" d="M72.292,34.134c-0.001,0-0.003,0-0.004,0c-6.072,0.849-10.296,6.461-9.443,12.537l10.992-1.545
	L72.292,34.134z"/>
<path fill="#FF6138" d="M65.017,0.004c0.886,0.989,1.843,1.909,2.865,2.75L67.495,0"/>
<path fill="#FF6138" d="M54.487,40.371c6.062-0.856,10.293-6.464,9.439-12.532c-0.126-0.901-0.369-1.756-0.691-2.566l-21.323,3.05
	c-0.082,0.851-0.077,1.722,0.046,2.606C42.817,37,48.414,41.23,54.487,40.371z"/>
<path fill="#FF6138" d="M17.856,45.519c6.065-0.854,10.298-6.462,9.448-12.532c-0.123-0.87-0.354-1.696-0.659-2.48l-0.067,0.01
	L5.275,33.509c-0.077,0.84-0.07,1.701,0.052,2.573C6.175,42.145,11.79,46.372,17.856,45.519z"/>
<path fill="#FF6138" d="M0,51.364l0.571,4.062l10.985-1.544c0,0,0-0.001,0-0.001C10.748,48.135,5.687,44.041,0,44.34"/>
<path fill="#FF6138" d="M31.358,88.449c0.855,6.067,6.472,10.306,12.53,9.446c6.069-0.853,10.299-6.464,9.454-12.53
	c-0.852-6.074-6.459-10.3-12.542-9.451C34.739,76.773,30.5,82.379,31.358,88.449z"/>
<path fill="#FF6138" d="M77.437,70.771c-6.079,0.853-10.296,6.458-9.439,12.532c0.844,6.066,6.454,10.297,12.534,9.448L77.442,70.77
	C77.44,70.771,77.438,70.771,77.437,70.771z"/>
<path fill="#FF6138" d="M61.701,91.659c-5.119,0.719-8.91,4.817-9.472,9.72l21.236-3.017C71.568,93.824,66.797,90.945,61.701,91.659
	z"/>
<path fill="#FF6138" d="M36.854,103.563c-1.885-4.567-6.669-7.474-11.794-6.76c-5.139,0.726-8.933,4.853-9.471,9.78L36.854,103.563z
	"/>
<path fill="#FF6138" d="M47.105,67.562c0.849,6.067,6.461,10.302,12.525,9.441c6.078-0.853,10.3-6.458,9.445-12.534
	c-0.856-6.058-6.468-10.295-12.528-9.444c-3.5,0.491-6.376,2.567-8.029,5.395c0.182,1.488-0.377,3.039-1.41,4.072
	C46.972,65.487,46.959,66.517,47.105,67.562z"/>
<path fill="#FF6138" d="M23.009,82.154c6.069-0.853,10.292-6.461,9.439-12.535c-0.101-0.722-0.274-1.417-0.503-2.081L10.38,70.683
	c-0.028,0.666-0.005,1.341,0.091,2.024C11.324,78.772,16.928,83.009,23.009,82.154z"/>
<path fill="#FF6138" d="M16.707,90.507c-0.851-6.067-6.458-10.287-12.53-9.436l3.089,21.971
	C13.342,102.184,17.562,96.578,16.707,90.507z"/>
<path fill="#FF6138" d="M43.432,55.569c1.029-0.144,2.054,0.268,2.913,0.973c1.513-2.204,2.249-4.951,1.845-7.81l-21.978,3.09
	c0.315,2.248,1.286,4.241,2.691,5.819L43.432,55.569z"/>
<path fill="#FF6138" d="M75.374,56.112c0.002,0,0.005-0.001,0.007-0.001l-1.544-10.985l-10.992,1.545v0
	C63.698,52.739,69.307,56.969,75.374,56.112z"/>
<path fill="#FF6138" d="M1.433,61.558l9.126-1.301c0.927-1.914,1.315-4.112,0.997-6.374L0.571,55.427L1.433,61.558z"/>
<polyline fill="#FF6138" points="0,55.506 0.571,55.427 0,51.364 "/>
<path fill="#FF6138" d="M0,101.64c2.119,1.301,4.602,1.778,7.256,1.404c0.003-0.001,0.007-0.001,0.01-0.002L4.177,81.071
	c-0.001,0-0.002,0-0.002,0C2.649,81.282,1.241,81.794,0,82.538"/>
<polyline fill="#FF6138" points="0,61.762 1.433,61.558 0.571,55.427 0,55.506 "/>
<g>
	<path fill="none" d="M295.671,130.412c-0.609-1.305-1.04-2.719-1.251-4.219c-0.212-1.502-0.188-2.981,0.039-4.404
		c-1.306,0.611-2.722,1.043-4.223,1.254c-1.501,0.21-2.98,0.186-4.401-0.041c0.612,1.306,1.044,2.723,1.256,4.226
		c0.21,1.498,0.186,2.975-0.042,4.396c1.305-0.611,2.72-1.042,4.221-1.254C292.77,130.158,294.249,130.184,295.671,130.412z"/>
	<path fill="none" d="M307.934,147.36c1.303-0.61,2.715-1.042,4.213-1.253c0.001,0,0.001,0,0.002,0
		c1.503-0.21,2.984-0.185,4.409,0.045c-0.61-1.305-1.04-2.719-1.251-4.218c-0.213-1.501-0.189-2.979,0.036-4.401
		c-1.303,0.609-2.718,1.039-4.218,1.249c-0.002,0-0.004,0-0.006,0.001c-1.498,0.212-2.976,0.188-4.396-0.038
		c0.611,1.304,1.043,2.717,1.255,4.216C308.188,144.461,308.162,145.938,307.934,147.36z"/>
	<path fill="none" d="M234.673,157.66c1.304-0.61,2.719-1.041,4.218-1.251c0.001,0,0.003,0,0.004,0
		c1.5-0.211,2.978-0.187,4.399,0.041c-0.612-1.307-1.046-2.724-1.259-4.227c-0.209-1.498-0.185-2.974,0.043-4.394
		c-1.302,0.609-2.714,1.04-4.211,1.251c0,0-0.001,0-0.002,0c-1.502,0.211-2.983,0.186-4.406-0.042
		c0.612,1.305,1.044,2.721,1.256,4.223C234.925,154.761,234.901,156.239,234.673,157.66z"/>
	<path fill="none" d="M222.405,140.707c-0.612-1.305-1.044-2.722-1.257-4.224c-0.211-1.497-0.187-2.974,0.04-4.394
		c-1.303,0.61-2.716,1.041-4.214,1.251c-1.5,0.21-2.978,0.185-4.399-0.043c0.611,1.305,1.043,2.72,1.255,4.221
		c0.21,1.499,0.185,2.978-0.044,4.398c1.305-0.609,2.722-1.039,4.224-1.248C219.507,140.457,220.984,140.48,222.405,140.707z"/>
	<path fill="none" d="M271.302,152.517c1.305-0.61,2.721-1.041,4.222-1.251c1.5-0.211,2.979-0.188,4.401,0.04
		c-0.61-1.305-1.04-2.721-1.249-4.223c-0.213-1.5-0.189-2.979,0.037-4.399c-1.304,0.61-2.718,1.041-4.218,1.252
		c-1.501,0.211-2.98,0.187-4.403-0.041c0.609,1.303,1.039,2.716,1.248,4.214C271.553,149.611,271.529,151.093,271.302,152.517z"/>
	<path fill="none" d="M328.865,158.716c0.211,1.496,0.186,2.972-0.042,4.392c1.304-0.611,2.717-1.043,4.216-1.254
		c1.498-0.213,2.976-0.189,4.396,0.036c-0.608-1.301-1.037-2.711-1.245-4.207c0-0.003,0-0.005-0.001-0.008
		c-0.211-1.501-0.187-2.98,0.041-4.402c-1.305,0.609-2.72,1.04-4.221,1.25c-1.5,0.214-2.979,0.192-4.399-0.034
		c0.61,1.303,1.04,2.717,1.253,4.215C328.863,158.707,328.864,158.712,328.865,158.716z"/>
	<path fill="none" d="M247.229,184.462c-1.303,0.61-2.716,1.042-4.215,1.254h-0.001c-1.501,0.21-2.981,0.184-4.404-0.044
		c0.608,1.303,1.038,2.716,1.247,4.214c0.211,1.503,0.188,2.984-0.04,4.408c1.303-0.609,2.716-1.04,4.215-1.25
		c0.004-0.001,0.008-0.001,0.012-0.001c1.499-0.21,2.977-0.187,4.397,0.041c-0.61-1.305-1.041-2.72-1.25-4.22
		C246.979,187.363,247.003,185.884,247.229,184.462z"/>
	<path fill="none" d="M226.3,173.115c-0.213-1.5-0.19-2.98,0.038-4.403c-1.307,0.61-2.725,1.04-4.229,1.249
		c-1.496,0.213-2.972,0.19-4.392-0.035c0.613,1.307,1.045,2.724,1.257,4.227v0.001c0.209,1.498,0.184,2.975-0.043,4.396
		c1.306-0.612,2.723-1.044,4.226-1.255c1.497-0.211,2.972-0.187,4.391,0.04c-0.608-1.302-1.038-2.714-1.247-4.211
		C226.301,173.12,226.3,173.118,226.3,173.115z"/>
	<path fill="none" d="M292.235,163.857c0.21,1.499,0.185,2.977-0.044,4.397c1.306-0.609,2.722-1.04,4.225-1.25
		c1.499-0.212,2.977-0.188,4.397,0.039c-0.61-1.304-1.041-2.717-1.251-4.216c0-0.003,0-0.005-0.001-0.008
		c-0.21-1.5-0.187-2.979,0.041-4.4c-1.305,0.611-2.72,1.042-4.221,1.252s-2.979,0.186-4.399-0.041
		c0.61,1.304,1.041,2.72,1.252,4.221C292.234,163.854,292.235,163.855,292.235,163.857z"/>
	<path fill="none" d="M255.603,169.003c0.209,1.499,0.185,2.977-0.044,4.397c1.305-0.61,2.721-1.041,4.224-1.252
		c1.498-0.21,2.976-0.186,4.396,0.042c-0.611-1.303-1.044-2.716-1.257-4.214c0-0.001,0-0.002,0-0.003
		c-0.207-1.5-0.181-2.979,0.049-4.401c-1.304,0.609-2.718,1.039-4.218,1.248c-1.502,0.211-2.981,0.187-4.404-0.041
		C254.96,166.085,255.392,167.501,255.603,169.003L255.603,169.003z"/>
	<path fill="none" d="M283.857,179.315c-1.304,0.61-2.718,1.042-4.217,1.253c-1.499,0.21-2.977,0.185-4.397-0.043
		c0.609,1.303,1.04,2.717,1.251,4.216c0.21,1.499,0.186,2.977-0.041,4.397c1.302-0.609,2.714-1.039,4.212-1.25
		c1.502-0.211,2.981-0.187,4.405,0.042c-0.61-1.304-1.041-2.717-1.253-4.216C283.606,182.215,283.63,180.737,283.857,179.315z"/>
	<path fill="none" d="M168.817,158.122c-1.303,0.61-2.716,1.041-4.215,1.252c-0.001,0-0.002,0-0.004,0
		c-1.498,0.21-2.975,0.187-4.394-0.04c0.611,1.305,1.042,2.72,1.253,4.221c0.209,1.499,0.184,2.977-0.044,4.397
		c1.302-0.609,2.714-1.04,4.211-1.251c0.001,0,0.001,0,0.002,0c1.5-0.211,2.98-0.186,4.402,0.042
		c-0.61-1.303-1.041-2.715-1.252-4.213C168.565,161.027,168.589,159.546,168.817,158.122z"/>
	<path fill="none" d="M185.778,145.859c-0.611-1.307-1.042-2.725-1.251-4.228c-0.212-1.5-0.189-2.979,0.038-4.401
		c-1.307,0.611-2.725,1.043-4.229,1.254c-1.501,0.211-2.981,0.188-4.404-0.04c0.611,1.306,1.043,2.724,1.256,4.228
		c0.21,1.499,0.185,2.977-0.043,4.398c1.304-0.609,2.72-1.04,4.221-1.249C182.87,145.607,184.353,145.631,185.778,145.859z"/>
	<path fill="none" d="M210.596,189.614c-1.302,0.609-2.714,1.04-4.212,1.251c-1.503,0.209-2.984,0.184-4.408-0.045
		c0.61,1.302,1.041,2.715,1.252,4.213c0.211,1.501,0.187,2.979-0.04,4.401c1.303-0.61,2.718-1.041,4.217-1.252
		c1.501-0.21,2.981-0.185,4.403,0.044c-0.611-1.306-1.042-2.722-1.252-4.224C210.346,192.507,210.37,191.032,210.596,189.614z"/>
	<path fill="none" d="M198.034,162.814c1.305-0.613,2.722-1.047,4.223-1.26c1.499-0.213,2.978-0.189,4.399,0.037
		c-0.609-1.303-1.04-2.716-1.25-4.215c-0.211-1.5-0.187-2.979,0.04-4.4c-1.302,0.609-2.715,1.039-4.213,1.249
		c-1.504,0.213-2.986,0.189-4.411-0.038c0.61,1.304,1.039,2.719,1.248,4.219C198.284,159.909,198.261,161.391,198.034,162.814z"/>
	<path fill="none" d="M259.028,135.558c-0.611-1.304-1.042-2.719-1.254-4.219c-0.211-1.499-0.187-2.978,0.041-4.399
		c-1.304,0.61-2.719,1.041-4.219,1.253c-1.497,0.21-2.973,0.186-4.392-0.041c0.609,1.303,1.04,2.716,1.25,4.215
		c0.211,1.502,0.186,2.982-0.042,4.406c1.306-0.612,2.723-1.044,4.226-1.255C256.135,135.307,257.609,135.331,259.028,135.558z"/>
	<path fill="none" d="M400.87,144.189c0.611,1.305,1.042,2.721,1.253,4.223c0,0.001,0,0.002,0,0.003
		c0.212,1.498,0.188,2.976-0.039,4.396c1.305-0.61,2.721-1.041,4.223-1.252c1.501-0.211,2.981-0.187,4.404,0.041
		c-0.61-1.303-1.041-2.717-1.254-4.217c0-0.002-0.001-0.004-0.001-0.007c-0.212-1.499-0.188-2.976,0.039-4.397
		c-1.304,0.611-2.718,1.042-4.217,1.253C403.774,144.442,402.293,144.418,400.87,144.189z"/>
	<path fill="none" d="M422.978,168.56c1.305-0.611,2.721-1.043,4.223-1.255c1.498-0.212,2.975-0.188,4.395,0.038
		c-0.612-1.306-1.045-2.723-1.257-4.227c-0.209-1.499-0.184-2.977,0.045-4.398c-1.303,0.61-2.716,1.04-4.214,1.25
		c-1.501,0.212-2.98,0.188-4.402-0.038c0.613,1.306,1.046,2.722,1.258,4.224C423.233,165.655,423.207,167.137,422.978,168.56z"/>
	<path fill="none" d="M348.504,170.229c0.61,1.305,1.041,2.72,1.251,4.22c0.212,1.5,0.188,2.979-0.04,4.399
		c1.304-0.612,2.719-1.045,4.219-1.259c1.5-0.21,2.979-0.185,4.399,0.044c-0.607-1.302-1.036-2.713-1.245-4.21
		c-0.212-1.502-0.189-2.981,0.037-4.405c-1.303,0.61-2.718,1.041-4.218,1.252C351.406,170.481,349.927,170.457,348.504,170.229z"/>
	<path fill="none" d="M393.757,163.866c-1.305,0.611-2.721,1.042-4.222,1.253c-0.001,0-0.002,0.001-0.004,0.001
		c-1.499,0.212-2.976,0.188-4.396-0.039c0.61,1.304,1.04,2.718,1.25,4.218c0.21,1.499,0.186,2.977-0.041,4.396
		c1.304-0.611,2.717-1.043,4.217-1.255c0.001,0,0.003,0,0.004,0c1.502-0.209,2.981-0.184,4.404,0.046
		c-0.61-1.305-1.042-2.72-1.253-4.221C393.506,166.766,393.529,165.287,393.757,163.866z"/>
	<path fill="none" d="M372.826,152.526c-0.21-1.5-0.186-2.979,0.042-4.401c-1.306,0.612-2.722,1.044-4.224,1.255
		c-1.5,0.212-2.979,0.188-4.399-0.039c0.61,1.303,1.043,2.716,1.255,4.214c0,0.002,0,0.003,0,0.005
		c0.209,1.499,0.185,2.978-0.043,4.398c1.304-0.61,2.719-1.041,4.219-1.251c1.5-0.212,2.979-0.188,4.402,0.04
		c-0.61-1.304-1.041-2.717-1.251-4.216C372.827,152.529,372.826,152.528,372.826,152.526z"/>
	<path fill="none" d="M344.567,142.222c1.305-0.609,2.721-1.039,4.222-1.248c1.5-0.213,2.979-0.189,4.4,0.038
		c-0.612-1.309-1.045-2.728-1.256-4.233c-0.21-1.498-0.186-2.976,0.042-4.396c-1.303,0.61-2.715,1.042-4.212,1.253
		c-1.505,0.212-2.988,0.188-4.414-0.041c0.612,1.306,1.043,2.722,1.254,4.223C344.817,139.319,344.795,140.799,344.567,142.222z"/>
	<path fill="none" d="M332.299,125.265c-0.61-1.304-1.041-2.718-1.252-4.217c-0.212-1.5-0.188-2.979,0.038-4.399
		c-1.304,0.61-2.719,1.042-4.219,1.254c-1.5,0.21-2.978,0.185-4.398-0.043c0.61,1.303,1.04,2.716,1.251,4.214
		c0.209,1.5,0.185,2.978-0.043,4.398c1.305-0.61,2.719-1.041,4.22-1.253C329.396,125.01,330.876,125.035,332.299,125.265z"/>
	<path fill="none" d="M405.56,114.966c-0.61-1.303-1.04-2.716-1.249-4.215c-0.211-1.503-0.187-2.985,0.042-4.409
		c-1.307,0.612-2.725,1.045-4.229,1.257c-1.5,0.212-2.979,0.188-4.401-0.039c0.611,1.305,1.042,2.721,1.252,4.222
		c0.213,1.5,0.19,2.979-0.035,4.399c1.307-0.612,2.724-1.045,4.227-1.257C402.663,114.714,404.14,114.738,405.56,114.966z"/>
	<path fill="none" d="M381.197,137.07c1.304-0.61,2.718-1.042,4.219-1.255c0.004,0,0.007-0.001,0.011-0.002
		c1.499-0.208,2.977-0.182,4.397,0.048c-0.612-1.308-1.045-2.727-1.257-4.231c-0.211-1.497-0.188-2.974,0.04-4.394
		c-1.305,0.609-2.72,1.04-4.221,1.251c-0.001,0.001-0.002,0.001-0.003,0.001c-1.499,0.211-2.977,0.188-4.397-0.039
		c0.612,1.304,1.044,2.719,1.255,4.219C381.451,134.169,381.426,135.648,381.197,137.07z"/>
	<path fill="none" d="M417.825,131.925c1.307-0.613,2.725-1.046,4.228-1.258c1.499-0.209,2.977-0.184,4.396,0.044
		c-0.609-1.304-1.04-2.718-1.25-4.217c-0.21-1.503-0.186-2.983,0.043-4.407c-1.304,0.61-2.718,1.041-4.217,1.252
		c-1.505,0.212-2.988,0.188-4.415-0.041c0.611,1.305,1.043,2.721,1.254,4.223C418.076,129.021,418.053,130.502,417.825,131.925z"/>
	<path fill="none" d="M368.926,120.115c-0.61-1.304-1.041-2.718-1.253-4.217c-0.211-1.502-0.188-2.982,0.04-4.405
		c-1.302,0.609-2.715,1.04-4.212,1.251c-1.502,0.212-2.982,0.188-4.405-0.039c0.612,1.305,1.045,2.721,1.257,4.222
		c0.21,1.5,0.185,2.978-0.044,4.398c1.302-0.61,2.713-1.042,4.209-1.255C366.021,119.86,367.502,119.886,368.926,120.115z"/>
	<path fill="none" d="M321.709,182.787c-0.61-1.305-1.04-2.72-1.249-4.221c-0.212-1.504-0.188-2.986,0.04-4.411
		c-1.306,0.613-2.723,1.045-4.226,1.257c-0.002,0-0.005,0-0.007,0.001c-1.5,0.211-2.978,0.188-4.398-0.039
		c0.61,1.305,1.042,2.72,1.252,4.22c0.213,1.501,0.189,2.98-0.038,4.402c1.303-0.609,2.717-1.04,4.216-1.251
		c0.001,0,0.001,0,0.002,0C318.803,182.533,320.284,182.558,321.709,182.787z"/>
	<path fill="none" d="M332.758,191.116c0.61,1.302,1.042,2.715,1.253,4.213c0.212,1.505,0.188,2.988-0.041,4.414
		c1.308-0.612,2.727-1.044,4.231-1.255c1.498-0.212,2.976-0.188,4.396,0.04c-0.611-1.306-1.042-2.722-1.252-4.225
		c-0.211-1.501-0.188-2.979,0.041-4.401c-1.307,0.611-2.725,1.044-4.229,1.256C335.658,191.368,334.18,191.344,332.758,191.116z"/>
	<path fill="#00A388" d="M422.053,130.667c-1.503,0.212-2.921,0.645-4.228,1.258c-0.771,4.823-3.906,8.982-8.33,11.054
		c-0.228,1.422-0.251,2.898-0.039,4.397c0,0.003,0.001,0.005,0.001,0.007l20.562-2.892l-1.511-10.577
		c-0.811-0.968-1.513-2.036-2.059-3.203C425.029,130.483,423.552,130.458,422.053,130.667z"/>
	<path fill="#00A388" d="M404.353,106.342c-0.229,1.424-0.253,2.906-0.042,4.409c0.209,1.499,0.639,2.912,1.249,4.215
		c4.818,0.772,8.979,3.907,11.051,8.332c1.427,0.229,2.91,0.253,4.415,0.041c1.499-0.211,2.913-0.642,4.217-1.252
		c0.199-1.247,0.57-2.443,1.066-3.576l-2.896-20.281l-12.34,1.735C409.583,102.718,407.252,104.981,404.353,106.342z"/>
	<path fill="#00A388" d="M425.199,126.494c0.21,1.499,0.641,2.913,1.25,4.217c0.546,1.167,1.248,2.235,2.059,3.203l-2.199-15.403
		c-0.496,1.133-0.867,2.329-1.066,3.576C425.014,123.511,424.989,124.991,425.199,126.494z"/>
	<path fill="#00A388" d="M388.567,131.63c0.212,1.505,0.645,2.924,1.257,4.231c4.82,0.776,8.976,3.908,11.046,8.328
		c1.423,0.229,2.904,0.253,4.408,0.042c1.499-0.211,2.913-0.642,4.217-1.253c4.424-2.071,7.56-6.23,8.33-11.054
		c0.228-1.423,0.251-2.903,0.039-4.404c-0.211-1.502-0.643-2.918-1.254-4.223c-2.072-4.425-6.232-7.56-11.051-8.332
		c-1.42-0.228-2.896-0.252-4.394-0.042c-1.503,0.212-2.92,0.645-4.227,1.257c-0.767,4.825-3.903,8.984-8.332,11.056
		C388.38,128.656,388.356,130.133,388.567,131.63z"/>
	<path fill="#00A388" d="M395.723,107.56c1.423,0.228,2.901,0.251,4.401,0.039c1.504-0.212,2.922-0.645,4.229-1.257
		c2.899-1.36,5.23-3.624,6.721-6.377l-19.088,2.686C393.541,103.993,394.83,105.651,395.723,107.56z"/>
	<path fill="#00A388" d="M402.123,148.415c0-0.001,0-0.002,0-0.003c-0.211-1.502-0.642-2.918-1.253-4.223
		c-2.07-4.42-6.226-7.552-11.046-8.328c-1.421-0.229-2.898-0.256-4.397-0.048c-0.004,0.001-0.007,0.002-0.011,0.002l2.061,14.659
		L402.123,148.415z"/>
	<path fill="#00A388" d="M388.607,127.236c4.429-2.071,7.565-6.23,8.332-11.056c0.226-1.421,0.248-2.899,0.035-4.399
		c-0.21-1.501-0.641-2.917-1.252-4.222c-0.893-1.908-2.182-3.566-3.737-4.909l-11.012,1.549l3.413,24.288
		C385.888,128.276,387.303,127.846,388.607,127.236z"/>
	<path fill="#00A388" d="M431.006,172.143c0.427-1.308,0.762-2.652,0.997-4.025c-0.14-0.256-0.284-0.508-0.408-0.774
		c-1.42-0.226-2.896-0.25-4.395-0.038c-1.502,0.212-2.918,0.644-4.223,1.255c-0.201,1.247-0.561,2.45-1.059,3.584"/>
	<path fill="#00A388" d="M430.338,163.116c0.212,1.504,0.645,2.921,1.257,4.227c0.124,0.267,0.269,0.519,0.408,0.774
		c0.484-2.822,0.552-5.766,0.139-8.753l-0.214-1.495c-0.496,0.31-1.009,0.598-1.545,0.849
		C430.154,160.14,430.129,161.617,430.338,163.116z"/>
	<path fill="#00A388" d="M421.919,172.144c0.498-1.134,0.857-2.337,1.059-3.584c0.229-1.423,0.256-2.904,0.047-4.406
		c-0.212-1.502-0.645-2.918-1.258-4.224c-4.824-0.77-8.983-3.905-11.056-8.33c-1.423-0.228-2.903-0.252-4.404-0.041
		c-1.502,0.211-2.918,0.642-4.223,1.252c-0.77,4.821-3.905,8.983-8.327,11.056c-0.228,1.421-0.251,2.899-0.041,4.399
		c0.192,1.369,0.568,2.666,1.096,3.874"/>
	<path fill="#00A388" d="M410.711,151.6c2.072,4.425,6.231,7.561,11.056,8.33c1.422,0.227,2.901,0.25,4.402,0.038
		c1.498-0.21,2.911-0.64,4.214-1.25c0.536-0.251,1.049-0.539,1.545-0.849l-1.909-13.378l-20.562,2.892
		C409.67,148.883,410.101,150.297,410.711,151.6z"/>
	<path fill="#00A388" d="M389.535,165.119c1.501-0.211,2.917-0.642,4.222-1.253c4.422-2.072,7.558-6.234,8.327-11.056
		c0.228-1.42,0.251-2.897,0.039-4.396l-14.646,2.06L389.535,165.119z"/>
	<path fill="#00A388" d="M336.189,157.675l29.311-4.115c0-0.002,0-0.003,0-0.005c-0.212-1.498-0.645-2.911-1.255-4.214
		c-4.822-0.77-8.982-3.903-11.056-8.329c-1.422-0.228-2.9-0.251-4.4-0.038c-1.501,0.209-2.917,0.639-4.222,1.248
		c-0.769,4.823-3.909,8.981-8.337,11.051C336.003,154.694,335.979,156.174,336.189,157.675z"/>
	<path fill="#00A388" d="M372.826,152.526c0,0.002,0.001,0.003,0.001,0.005l14.649-2.057l-2.061-14.659
		c-1.501,0.213-2.915,0.645-4.219,1.255c-0.774,4.823-3.908,8.982-8.329,11.055C372.641,149.548,372.616,151.026,372.826,152.526z"
		/>
	<path fill="#00A388" d="M331.085,116.648c-0.227,1.421-0.25,2.899-0.038,4.399c0.211,1.499,0.642,2.913,1.252,4.217
		c4.821,0.776,8.979,3.911,11.051,8.33c1.426,0.229,2.909,0.253,4.414,0.041c1.497-0.211,2.909-0.643,4.212-1.253
		c0.772-4.822,3.909-8.982,8.333-11.058c0.229-1.421,0.254-2.898,0.044-4.398c-0.212-1.501-0.645-2.917-1.257-4.222
		c-3.164-0.506-6.03-2.038-8.22-4.272l-13.066,1.838C336.319,113.024,333.985,115.289,331.085,116.648z"/>
	<path fill="#00A388" d="M367.713,111.493c-0.228,1.423-0.251,2.903-0.04,4.405c0.212,1.499,0.643,2.913,1.253,4.217
		c4.824,0.776,8.987,3.912,11.061,8.334c1.421,0.227,2.898,0.25,4.397,0.039c0.001,0,0.002,0,0.003-0.001l-3.413-24.288l-6.538,0.92
		C372.946,107.872,370.612,110.135,367.713,111.493z"/>
	<path fill="#00A388" d="M351.934,136.778c0.211,1.506,0.644,2.925,1.256,4.233c2.073,4.426,6.233,7.56,11.056,8.329
		c1.421,0.228,2.899,0.251,4.399,0.039c1.502-0.211,2.918-0.643,4.224-1.255c4.421-2.072,7.555-6.231,8.329-11.055
		c0.229-1.422,0.254-2.901,0.044-4.402c-0.211-1.5-0.643-2.915-1.255-4.219c-2.073-4.422-6.236-7.558-11.061-8.334
		c-1.424-0.229-2.905-0.255-4.408-0.045c-1.496,0.213-2.907,0.645-4.209,1.255c-4.424,2.075-7.561,6.235-8.333,11.058
		C351.748,133.803,351.724,135.28,351.934,136.778z"/>
	<path fill="#00A388" d="M315.307,141.935c0.211,1.499,0.641,2.913,1.251,4.218c4.822,0.776,8.98,3.912,11.053,8.336
		c1.421,0.227,2.899,0.248,4.399,0.034c1.501-0.21,2.916-0.641,4.221-1.25c4.428-2.069,7.568-6.228,8.337-11.051
		c0.228-1.423,0.25-2.902,0.036-4.404c-0.211-1.501-0.642-2.917-1.254-4.223c-2.071-4.419-6.229-7.554-11.051-8.33
		c-1.423-0.229-2.902-0.255-4.403-0.046c-1.501,0.212-2.915,0.643-4.22,1.253c-0.772,4.828-3.905,8.991-8.333,11.062
		C315.117,138.955,315.094,140.434,315.307,141.935z"/>
	<path fill="#00A388" d="M359.096,112.705c1.423,0.227,2.903,0.251,4.405,0.039c1.497-0.211,2.91-0.642,4.212-1.251
		c2.899-1.358,5.233-3.621,6.723-6.374l-23.56,3.313C353.065,110.667,355.932,112.199,359.096,112.705z"/>
	<path fill="#00A388" d="M322.468,117.859c1.421,0.228,2.898,0.253,4.398,0.043c1.5-0.212,2.915-0.644,4.219-1.254
		c2.9-1.359,5.234-3.624,6.725-6.378l-19.075,2.683C320.288,114.296,321.575,115.954,322.468,117.859z"/>
	<path fill="#00A388" d="M328.863,158.703c-0.213-1.498-0.643-2.912-1.253-4.215c-2.072-4.424-6.23-7.56-11.053-8.336
		c-1.425-0.229-2.906-0.255-4.409-0.045l2.059,14.653L328.863,158.703z"/>
	<path fill="#00A388" d="M311.125,138.782c1.5-0.21,2.915-0.64,4.218-1.249c4.428-2.07,7.561-6.233,8.333-11.062
		c0.228-1.421,0.252-2.898,0.043-4.398c-0.211-1.498-0.641-2.911-1.251-4.214c-0.893-1.905-2.18-3.563-3.733-4.906l-11.026,1.552
		l3.411,24.278C311.121,138.782,311.123,138.782,311.125,138.782z"/>
	<path fill="#00A388" d="M386.508,172.143c0.05-0.933,0.012-1.884-0.123-2.844c-0.21-1.5-0.64-2.914-1.25-4.218
		c-4.824-0.771-8.986-3.908-11.057-8.334c-1.423-0.228-2.902-0.252-4.402-0.04c-1.5,0.21-2.915,0.641-4.219,1.251
		c-0.773,4.826-3.906,8.989-8.332,11.061c-0.162,1.017-0.219,2.062-0.162,3.124"/>
	<path fill="#00A388" d="M349.242,172.143c-0.203-0.66-0.451-1.299-0.738-1.913c-4.831-0.772-9-3.912-11.068-8.34
		c-1.421-0.226-2.898-0.249-4.396-0.036c-1.499,0.211-2.912,0.643-4.216,1.254c-0.571,3.563-2.436,6.768-5.159,9.034"/>
	<path fill="#00A388" d="M365.5,153.56l-29.311,4.115c0.001,0.003,0.001,0.005,0.001,0.008c0.208,1.496,0.637,2.906,1.245,4.207
		c2.068,4.428,6.237,7.567,11.068,8.34c1.423,0.228,2.902,0.252,4.403,0.041c1.5-0.211,2.915-0.642,4.218-1.252
		c4.426-2.071,7.559-6.234,8.332-11.061C365.685,156.537,365.709,155.059,365.5,153.56z"/>
	<path fill="#00A388" d="M389.531,165.12c0.002,0,0.003-0.001,0.004-0.001l-2.059-14.645l-14.649,2.057
		c0.21,1.499,0.641,2.912,1.251,4.216c2.07,4.426,6.232,7.563,11.057,8.334C386.556,165.308,388.032,165.332,389.531,165.12z"/>
	<path fill="#00A388" d="M323.664,172.142c2.724-2.267,4.588-5.471,5.159-9.034c0.228-1.42,0.253-2.896,0.042-4.392
		c-0.001-0.004-0.002-0.009-0.002-0.013l-14.656,2.058l1.601,11.382"/>
	<path fill="#00A388" d="M262.921,167.974l29.313-4.122c-0.211-1.501-0.642-2.917-1.252-4.221c-4.83-0.771-8.989-3.902-11.058-8.325
		c-1.422-0.228-2.901-0.251-4.401-0.04c-1.501,0.21-2.917,0.641-4.222,1.251c-0.77,4.826-3.905,8.987-8.332,11.056
		C262.74,164.994,262.714,166.474,262.921,167.974z"/>
	<path fill="#00A388" d="M299.562,162.82l14.646-2.06l-2.059-14.653c-0.001,0-0.001,0-0.002,0c-1.498,0.211-2.91,0.643-4.213,1.253
		c-0.774,4.824-3.91,8.987-8.331,11.06C299.375,159.842,299.352,161.32,299.562,162.82z"/>
	<path fill="#00A388" d="M257.815,126.939c-0.228,1.422-0.252,2.9-0.041,4.399c0.212,1.5,0.643,2.915,1.254,4.219
		c4.825,0.771,8.993,3.908,11.063,8.337c1.423,0.228,2.902,0.252,4.403,0.041c1.5-0.211,2.914-0.642,4.218-1.252
		c0.77-4.825,3.906-8.987,8.336-11.061c0.228-1.421,0.252-2.897,0.042-4.396c-0.212-1.503-0.644-2.92-1.256-4.226
		c-3.161-0.506-6.025-2.034-8.215-4.266l-13.082,1.841C263.047,123.324,260.714,125.583,257.815,126.939z"/>
	<path fill="#00A388" d="M294.459,121.789c-0.228,1.423-0.251,2.902-0.039,4.404c0.211,1.5,0.642,2.914,1.251,4.219
		c4.819,0.774,8.979,3.912,11.053,8.333c1.42,0.227,2.897,0.25,4.396,0.038l-3.411-24.278l-6.532,0.919
		C299.686,118.172,297.354,120.432,294.459,121.789z"/>
	<path fill="#00A388" d="M278.676,147.083c0.209,1.502,0.639,2.918,1.249,4.223c2.068,4.423,6.228,7.555,11.058,8.325
		c1.421,0.227,2.898,0.251,4.399,0.041s2.916-0.641,4.221-1.252c4.421-2.072,7.557-6.235,8.331-11.06
		c0.229-1.422,0.254-2.899,0.045-4.399c-0.212-1.499-0.644-2.912-1.255-4.216c-2.073-4.421-6.233-7.559-11.053-8.333
		c-1.422-0.229-2.901-0.254-4.401-0.043c-1.501,0.212-2.916,0.643-4.221,1.254c-4.43,2.073-7.566,6.235-8.336,11.061
		C278.486,144.104,278.463,145.583,278.676,147.083z"/>
	<path fill="#00A388" d="M242.035,152.224c0.213,1.503,0.646,2.92,1.259,4.227c4.823,0.771,8.981,3.907,11.054,8.329
		c1.423,0.228,2.902,0.252,4.404,0.041c1.5-0.209,2.914-0.639,4.218-1.248c4.427-2.068,7.562-6.229,8.332-11.056
		c0.228-1.424,0.251-2.905,0.038-4.408c-0.209-1.498-0.639-2.911-1.248-4.214c-2.07-4.429-6.238-7.566-11.063-8.337
		c-1.419-0.227-2.894-0.251-4.39-0.04c-1.503,0.211-2.92,0.643-4.226,1.255c-0.773,4.827-3.911,8.986-8.335,11.058
		C241.851,149.25,241.826,150.726,242.035,152.224z"/>
	<path fill="#00A388" d="M285.835,123.002c1.421,0.227,2.9,0.251,4.401,0.041c1.501-0.211,2.917-0.643,4.223-1.254
		c2.895-1.357,5.227-3.617,6.717-6.365l-23.556,3.312C279.81,120.968,282.674,122.496,285.835,123.002z"/>
	<path fill="#00A388" d="M249.205,128.151c1.419,0.227,2.895,0.251,4.392,0.041c1.5-0.212,2.915-0.643,4.219-1.253
		c2.898-1.356,5.231-3.615,6.723-6.362l-19.053,2.68C247.033,124.597,248.315,126.251,249.205,128.151z"/>
	<path fill="#00A388" d="M255.603,169.003L255.603,169.003c-0.211-1.502-0.643-2.918-1.255-4.224
		c-2.072-4.422-6.23-7.558-11.054-8.329c-1.421-0.228-2.899-0.252-4.399-0.041l2.06,14.654L255.603,169.003z"/>
	<path fill="#00A388" d="M237.867,149.081c1.497-0.211,2.909-0.642,4.211-1.251c4.424-2.071,7.562-6.23,8.335-11.058
		c0.228-1.424,0.253-2.904,0.042-4.406c-0.21-1.499-0.641-2.912-1.25-4.215c-0.89-1.9-2.172-3.555-3.72-4.895l-11.032,1.552
		l3.412,24.272C237.866,149.081,237.867,149.081,237.867,149.081z"/>
	<path fill="#00A388" d="M304.755,172.142c-1.651-1.372-3.009-3.104-3.941-5.098c-1.421-0.228-2.898-0.251-4.397-0.039
		c-1.503,0.21-2.919,0.641-4.225,1.25c-0.218,1.359-0.623,2.665-1.192,3.888"/>
	<path fill="#00A388" d="M290.999,172.143c0.569-1.223,0.975-2.528,1.192-3.888c0.229-1.421,0.254-2.898,0.044-4.397
		c0-0.002-0.001-0.004-0.001-0.006l-29.313,4.122c0,0.001,0,0.002,0,0.003c0.213,1.498,0.646,2.911,1.257,4.214"/>
	<path fill="#00A388" d="M315.808,172.143l-1.601-11.382l-14.646,2.06c0.001,0.003,0.001,0.005,0.001,0.008
		c0.21,1.499,0.641,2.912,1.251,4.216c0.933,1.993,2.29,3.726,3.941,5.098"/>
	<path fill="#00A388" d="M255.706,172.143c0.075-1.027,0.044-2.078-0.104-3.14l-14.647,2.061l0.151,1.079"/>
	<path fill="#00A388" d="M218.547,172.14c-0.22-0.768-0.499-1.507-0.83-2.214c-4.823-0.766-8.989-3.902-11.062-8.334
		c-1.421-0.227-2.9-0.25-4.399-0.037c-1.501,0.213-2.918,0.646-4.223,1.26c-0.594,3.725-2.602,7.054-5.524,9.329"/>
	<path fill="#00A388" d="M233.277,172.143l7.678-1.079l-2.06-14.654c-0.001,0-0.003,0-0.004,0c-1.499,0.21-2.914,0.641-4.218,1.251
		c-0.772,4.823-3.906,8.984-8.335,11.052c-0.179,1.114-0.231,2.264-0.144,3.431"/>
	<path fill="#00A388" d="M184.565,137.23c-0.227,1.423-0.25,2.901-0.038,4.401c0.209,1.503,0.64,2.921,1.251,4.228
		c4.822,0.771,8.979,3.908,11.044,8.328c1.425,0.228,2.907,0.251,4.411,0.038c1.498-0.21,2.911-0.64,4.213-1.249
		c0.771-4.827,3.908-8.99,8.339-11.06c0.229-1.421,0.254-2.899,0.044-4.398c-0.211-1.501-0.644-2.916-1.255-4.221
		c-3.158-0.505-6.02-2.03-8.209-4.257l-13.084,1.84C189.79,133.623,187.46,135.876,184.565,137.23z"/>
	<path fill="#00A388" d="M221.188,132.09c-0.227,1.42-0.251,2.896-0.04,4.394c0.213,1.502,0.646,2.919,1.257,4.224
		c4.82,0.77,8.98,3.906,11.054,8.332c1.423,0.228,2.904,0.253,4.406,0.042l-3.412-24.272l-6.552,0.922
		C226.412,128.477,224.081,130.734,221.188,132.09z"/>
	<path fill="#00A388" d="M205.406,157.377c0.21,1.499,0.641,2.912,1.25,4.215c2.072,4.432,6.239,7.568,11.062,8.334
		c1.42,0.226,2.896,0.248,4.392,0.035c1.504-0.209,2.922-0.639,4.229-1.249c4.429-2.067,7.563-6.229,8.335-11.052
		c0.228-1.421,0.252-2.899,0.042-4.398c-0.212-1.502-0.645-2.918-1.256-4.223c-2.074-4.426-6.234-7.562-11.054-8.332
		c-1.42-0.227-2.897-0.25-4.396-0.038c-1.502,0.209-2.918,0.639-4.224,1.248c-4.431,2.069-7.568,6.232-8.339,11.06
		C205.219,154.398,205.195,155.877,205.406,157.377z"/>
	<path fill="#00A388" d="M192.51,172.144c2.922-2.275,4.93-5.604,5.524-9.329c0.228-1.424,0.25-2.905,0.036-4.408
		c-0.208-1.5-0.638-2.915-1.248-4.219c-2.065-4.42-6.222-7.558-11.044-8.328c-1.425-0.229-2.908-0.252-4.412-0.038
		c-1.501,0.209-2.917,0.64-4.221,1.249c-0.773,4.82-3.906,8.98-8.329,11.052c-0.228,1.424-0.251,2.905-0.04,4.408
		c0.211,1.498,0.642,2.91,1.252,4.213c3.674,0.589,6.965,2.546,9.24,5.398"/>
	<path fill="#00A388" d="M212.574,133.298c1.421,0.228,2.898,0.253,4.399,0.043c1.498-0.21,2.912-0.641,4.214-1.251
		c2.894-1.355,5.224-3.613,6.714-6.359l-23.537,3.311C206.554,131.268,209.416,132.793,212.574,133.298z"/>
	<path fill="#00A388" d="M180.336,138.484c1.504-0.211,2.922-0.643,4.229-1.254c2.895-1.354,5.225-3.607,6.715-6.35l-7.683,1.081
		c-3.529,0.488-6.81,1.619-9.749,3.248c0.822,0.976,1.532,2.055,2.084,3.234C177.355,138.672,178.835,138.695,180.336,138.484z"/>
	<path fill="#00A388" d="M179.27,172.142c-2.275-2.853-5.566-4.81-9.24-5.398c-1.422-0.228-2.902-0.253-4.402-0.042l0.765,5.443"/>
	<path fill="#00A388" d="M164.602,159.374c1.499-0.211,2.913-0.642,4.215-1.252c4.423-2.071,7.555-6.231,8.329-11.052
		c0.228-1.422,0.253-2.899,0.043-4.398c-0.212-1.504-0.645-2.922-1.256-4.228c-0.552-1.18-1.262-2.259-2.084-3.234
		c-4.714,2.613-8.543,6.521-11.074,11.185l1.823,12.979C164.599,159.374,164.601,159.374,164.602,159.374z"/>
	<polyline fill="#00A388" points="241.106,172.143 240.955,171.063 233.277,172.143 	"/>
	<path fill="#00A388" d="M166.392,172.145l-0.765-5.443c-0.001,0-0.001,0-0.002,0c-1.498,0.211-2.91,0.642-4.211,1.251
		c-0.08,0.493-0.181,0.98-0.309,1.459c0.341,0.935,0.711,1.853,1.144,2.733"/>
	<path fill="#00A388" d="M164.598,159.374l-1.823-12.979c-1.896,3.495-3.068,7.411-3.335,11.523
		c0.278,0.456,0.536,0.928,0.765,1.416C161.623,159.561,163.1,159.584,164.598,159.374z"/>
	<path fill="#00A388" d="M161.457,163.555c-0.211-1.501-0.642-2.916-1.253-4.221c-0.229-0.488-0.486-0.96-0.765-1.416
		c-0.122,1.869-0.058,3.779,0.209,5.707c0.279,2.018,0.785,3.946,1.456,5.786c0.127-0.479,0.229-0.966,0.309-1.459
		C161.641,166.531,161.667,165.054,161.457,163.555z"/>
</g>
<g>
	
		<rect x="25.854" y="111.196" transform="matrix(0.9887 0.1501 -0.1501 0.9887 20.4261 -17.9321)" fill="#FFFFFF" width="206.35" height="30.357"/>
	
		<text transform="matrix(0.9887 0.1501 -0.1501 0.9887 35.9443 119.2812)" font-family="'DejaVuSerif-BoldItalic'" font-size="18.2061">Antoine &amp; Manuel</text>
</g>
</svg>
