<?xml version="1.0" encoding="UTF-8" standalone="no"?>
<!-- Generator: Adobe Illustrator 16.0.0, SVG Export Plug-In . SVG Version: 6.00 Build 0)  -->

<svg
   xmlns:dc="http://purl.org/dc/elements/1.1/"
   xmlns:cc="http://creativecommons.org/ns#"
   xmlns:rdf="http://www.w3.org/1999/02/22-rdf-syntax-ns#"
   xmlns:svg="http://www.w3.org/2000/svg"
   xmlns="http://www.w3.org/2000/svg"
   xmlns:sodipodi="http://sodipodi.sourceforge.net/DTD/sodipodi-0.dtd"
   xmlns:inkscape="http://www.inkscape.org/namespaces/inkscape"
   version="1.0"
   id="Calque_1"
   x="0px"
   y="0px"
   width="11520px"
   height="7200px"
   viewBox="0 0 11520 7200"
   enable-background="new 0 0 11520 7200"
   xml:space="preserve"
   inkscape:version="0.48.5 r10040"
   sodipodi:docname="block.svg"><metadata
     id="metadata363"><rdf:RDF><cc:Work
         rdf:about=""><dc:format>image/svg+xml</dc:format><dc:type
           rdf:resource="http://purl.org/dc/dcmitype/StillImage" /><dc:title></dc:title></cc:Work></rdf:RDF></metadata><defs
     id="defs361" /><sodipodi:namedview
     pagecolor="#ffffff"
     bordercolor="#666666"
     borderopacity="1"
     objecttolerance="10"
     gridtolerance="10"
     guidetolerance="10"
     inkscape:pageopacity="0"
     inkscape:pageshadow="2"
     inkscape:window-width="1920"
     inkscape:window-height="1025"
     id="namedview359"
     showgrid="false"
     inkscape:zoom="0.13111111"
     inkscape:cx="4624.7096"
     inkscape:cy="4401.6807"
     inkscape:window-x="-2"
     inkscape:window-y="32"
     inkscape:window-maximized="1"
     inkscape:current-layer="Calque_1" /><g
     id="g7"><linearGradient
       id="SVGID_1_"
       gradientUnits="userSpaceOnUse"
       x1="9928.1123"
       y1="6204.3223"
       x2="10524.6133"
       y2="6204.3223"><stop
         offset="0"
         style="stop-color:#00FFFF"
         id="stop10" /><stop
         offset="0.087"
         style="stop-color:#0CF3F3"
         id="stop12" /><stop
         offset="0.2425"
         style="stop-color:#2AD5D5"
         id="stop14" /><stop
         offset="0.4485"
         style="stop-color:#5CA3A3"
         id="stop16" /><stop
         offset="0.6973"
         style="stop-color:#A15E5E"
         id="stop18" /><stop
         offset="0.9797"
         style="stop-color:#F80707"
         id="stop20" /><stop
         offset="1"
         style="stop-color:#FF0000"
         id="stop22" /></linearGradient><polygon
       fill="url(#SVGID_1_)"
       points="9928.112,5981.479 10328.548,5855.849 10352.26,5987.386 10524.613,6416.834    10353.658,6552.795  "
       id="polygon24" /><path
       fill="#0000FF"
       d="M10324.634,5862.316l22.614,125.455l0.182,1.004l0.38,0.946l170.775,425.518l-164,130.431l-418.255-561.528   L10324.634,5862.316 M10332.463,5849.38l-412.568,129.438l432.837,581.104l177.909-141.492l-173.551-432.432L10332.463,5849.38   L10332.463,5849.38z"
       id="path26" /></g><g
     id="g28"><path
       fill="#0000FF"
       d="M10290.295,5704.199l22.792,7.27l15.709,105.312l-424.764,130.691l-32.099-191.449L10290.295,5704.199    M10290.484,5702.161l-420.868,52.135l32.821,195.76l428.59-131.869l-16.146-108.244L10290.484,5702.161L10290.484,5702.161z"
       id="path30" /></g><g
     id="g32"><path
       fill="#0000FF"
       d="M10282.301,5498.994l28.356,174.719l-15.037-3.68l-0.36-0.088l-0.368,0.047l-425.918,54.293   l-32.324-179.353l67.417,0.067h0.131l0.131-0.008l343.751-45.001L10282.301,5498.994 M10283.994,5496.944l-36.074,1.056   l-343.852,45.02l-69.812-0.08l33.086,183.57l427.803-54.534l17.971,4.397L10283.994,5496.944L10283.994,5496.944z"
       id="path34" /></g><path
     fill="none"
     stroke="#0000FF"
     stroke-width="2"
     stroke-miterlimit="10"
     d="M9607.406,5788.1l228.475-29.356l27.707,153.69  c0,0,13.061,50.355,33.295,78.892c20.229,28.525,241.838,331.231,241.838,331.231l46.467,62.153l-355.467,266.752  c0,0-32.822,15.549,0.713,56.4c12.232,14.9,37.109,47.125,63.783,82.06"
     id="path36" /><g
     id="g38"><path
       fill="#0000FF"
       d="M10203.812,6413.463l118.697,158.467l-87.846,74.422c-7.93-11.303-49.01-69.705-57.046-77.959   c-6.869-7.057-13.972-14.355-21.338-14.355c-2.46,0-4.809,0.814-6.979,2.418c-9.2,6.789-6.878,20.332-6.775,20.904l0.081,0.445   l0.263,0.366c0.498,0.693,49.996,69.632,70.749,94.927c6.887,8.387,14.006,12.639,21.161,12.639   c10.361,0,16.992-8.889,18.12-10.518l88.084-77.971l52.674,116.227c-13.61,3.523-85.584,22.59-177.374,54.85   c-53.301,18.733-104.947,53.783-138.887,79.887c-31.354,24.115-53.797,45.255-59.858,51.09   c-15.326-20.239-153.458-202.642-162.25-213.748c-3-3.785-4.33-7.25-3.955-10.296c0.384-3.114,2.451-4.737,2.519-4.79   L10203.812,6413.463 M10204.225,6410.678l-351.557,258.177c0,0-8.301,6.137,1.053,17.94   c9.355,11.818,163.588,215.516,163.588,215.516s96.939-96.004,199.638-132.1c102.688-36.091,179.517-55.392,179.517-55.392   l-54.776-120.865l-90.302,79.935c0,0-6.399,9.848-16.605,9.848c-5.552,0-12.229-2.913-19.615-11.908   c-20.952-25.536-70.67-94.823-70.67-94.823s-2.311-12.812,5.994-18.94c1.911-1.412,3.843-2.027,5.791-2.027   c6.516,0,13.212,6.875,19.904,13.751c8.702,8.937,58.1,79.507,58.1,79.507l90.955-77.057L10204.225,6410.678L10204.225,6410.678z"
       id="path40" /></g><g
     id="g42"><path
       fill="#0000FF"
       d="M10537.569,6432.914l111.451,225.995l-222.922,48.341l-63.785-136.842L10537.569,6432.914    M10538.273,6429.82l-178.443,139.994l65.131,139.729l226.986-49.222L10538.273,6429.82L10538.273,6429.82z"
       id="path44" /></g><path
     fill="none"
     stroke="#0000FF"
     stroke-width="2"
     stroke-miterlimit="10"
     d="M10790.572,6051.563l-22.312-28.016  c0,0-34.795-35.721-62.896-15.385c-28.103,20.333-132.969,70.864-132.969,70.864l-58.857,23.694c0,0-39.414-0.126-49.193-32.445  c-9.775-32.323-20.006-90.591-20.006-90.591l105.902-77.033c0,0,15.77-8.837,7.699-20.337s-18.297-3.115-28.182,3.987  c-9.907,7.097-109.861,76.514-109.861,76.514l-36.174,8.836l-39.035-261.218l15.631,6.549l147.099-0.752l46.146,61.621  c0,0,5.528,16.317,19.276,10.162c13.754-6.16-0.797-30.124-0.797-30.124l-30.336-42.795l197.945-2.895"
     id="path46" /><g
     id="g48"><path
       fill="#0000FF"
       d="M10416.405,6000.029c1.477,11.533,9.832,69.127,33.912,110.42c14.05,24.092,31.751,29.148,44.127,29.148   c13.479,0,23.785-5.719,25.249-6.574l97.401-37.295l0.132-0.051l0.123-0.068c3.411-1.891,83.698-46.441,97.067-56.738   c4.213-3.24,9.132-4.883,14.619-4.883c5.872,0,10.668,1.916,12.031,2.52l83.318,108.871c-6.895,9.343-48.842,66.6-60.073,91.775   c-11.339,25.408-36.696,46.607-38.502,48.095l-173.589,105.351l-152.433-388.219L10416.405,6000.029 M10418.145,5997.764   l-21.143,2.991l154.227,392.787l175.74-106.656c0,0,27.127-21.929,39.17-48.916c12.037-26.982,60.75-92.611,60.75-92.611   l-84.533-110.458c0,0-5.78-2.912-13.319-2.912c-4.904,0-10.552,1.231-15.839,5.298c-13.404,10.324-96.817,56.574-96.817,56.574   l-97.56,37.356c0,0-10.515,6.381-24.376,6.381c-13.157,0-29.33-5.746-42.399-28.155   C10425.211,6063.426,10418.145,5997.764,10418.145,5997.764L10418.145,5997.764z"
       id="path50" /></g><polyline
     fill="none"
     stroke="#0000FF"
     stroke-width="2"
     stroke-miterlimit="10"
     points="10587.857,5681.76 10368.289,5684.389   10340.051,5677.481 10313.765,5498.556 10374.82,5506.139 10836.182,5446.559 "
     id="polyline52" /><g
     id="g54"><linearGradient
       id="SVGID_2_"
       gradientUnits="userSpaceOnUse"
       x1="8860.4346"
       y1="3333.8262"
       x2="9204.3174"
       y2="3333.8262"><stop
         offset="0"
         style="stop-color:#00A99D"
         id="stop57" /><stop
         offset="0.087"
         style="stop-color:#0CAD96"
         id="stop59" /><stop
         offset="0.2425"
         style="stop-color:#2AB783"
         id="stop61" /><stop
         offset="0.4485"
         style="stop-color:#5CC864"
         id="stop63" /><stop
         offset="0.6973"
         style="stop-color:#A1DF3A"
         id="stop65" /><stop
         offset="0.9797"
         style="stop-color:#F8FD04"
         id="stop67" /><stop
         offset="1"
         style="stop-color:#FFFF00"
         id="stop69" /></linearGradient><path
       fill="url(#SVGID_2_)"
       d="M8860.435,3509.15l74.126-397.712l175.312,37.164c3.385,5.492,13.896,22.479,24.878,39.54   c27.633,42.929,31.223,44.504,33.368,45.446c5.802,2.553,26.509,7.296,36.198,9.444l-58.397,313.184L8860.435,3509.15z"
       id="path71" /><path
       fill="#0000FF"
       d="M8938.537,3117.392l168.205,35.657c4.23,6.848,13.823,22.293,23.804,37.798   c28.449,44.196,32.066,45.783,35.555,47.314c5.366,2.36,21.536,6.23,32.417,8.696l-56.615,303.627l-275.617-45.438   L8938.537,3117.392 M8930.584,3105.483l-76,407.77l295.354,48.691l60.184-322.762c0,0-33.025-7.109-39.993-10.175   c-6.968-3.058-57.12-84.854-57.12-84.854L8930.584,3105.483L8930.584,3105.483z"
       id="path73" /></g><path
     fill="none"
     stroke="#0000FF"
     stroke-width="2"
     stroke-miterlimit="10"
     d="M9451.508,3254.574  c-24.084,12.671-42.689,25.12-45.922,24.299c-7.268-1.852-168.494-34.115-168.494-34.115l-56.595,317.542l290.94,45.146l2.68-16.44"
     id="path75" /><path
     fill="none"
     stroke="#0000FF"
     stroke-width="2"
     stroke-miterlimit="10"
     d="M9249.959,3020.164l-8.201,31.262l-86.436-17.799  c0,0-24.312-7.152-29.707,14.055c-5.393,21.207-15.521,67.344-15.521,67.344l-175.842-40.449l16.283-63.275"
     id="path77" /><path
     fill="none"
     stroke="#0000FF"
     stroke-width="2"
     stroke-miterlimit="10"
     d="M9546.093,3149.631l-8.898,43.541l-18.241-3.135  c0,0-21.012-1.859-33.484,6.578c-12.467,8.441-85.836,45.766-85.836,45.766l-206.215-38.987l-57.573-83.073l12.206-53.041  c0,0,2.324-11.678,21.713-6.742c19.391,4.935,72.73,15.918,72.73,15.918l17.908-4.48l254.699,53.833c0,0,3.738,0.768,7.746,0.336"
     id="path79" /><polyline
     fill="none"
     stroke="#0000FF"
     stroke-width="2"
     stroke-miterlimit="10"
     points="8471.895,3005.469 8887.144,3098.732   8849.396,3325.07 8742.439,3305.929 "
     id="polyline81" /><polyline
     fill="none"
     stroke="#0000FF"
     stroke-width="2"
     stroke-miterlimit="10"
     points="8923.262,2943.771 8893.333,3067.618   8713.744,3029.675 8731.324,2948.783 "
     id="polyline83" /><polyline
     fill="none"
     stroke="#0000FF"
     stroke-width="2"
     stroke-miterlimit="10"
     points="8746.303,3335.521 8844.448,3353.298   8812.736,3510.348 8383.465,3441.259 "
     id="polyline85" /><polyline
     fill="none"
     stroke="#0000FF"
     stroke-width="2"
     stroke-miterlimit="10"
     points="8388.686,3473.466 8805.338,3539.438   8800.535,3563.375 8784.842,3581.963 8726.291,3819.024 8705.107,3837.161 8667.95,4049.011 8286.307,3944.979 "
     id="polyline87" /><polyline
     fill="none"
     stroke="#0000FF"
     stroke-width="2"
     stroke-miterlimit="10"
     points="8700.243,4035.021 8689.65,4082.943   8451.536,4022.835 "
     id="polyline89" /><polyline
     fill="none"
     stroke="#0000FF"
     stroke-width="2"
     stroke-miterlimit="10"
     points="8918.967,4158.361 8814.934,4150.919   8746.444,4136.077 8789.807,3862.62 9067.564,3898.41 9032.896,4124.769 "
     id="polyline91" /><polyline
     fill="none"
     stroke="#0000FF"
     stroke-width="2"
     stroke-miterlimit="10"
     points="9065.096,4097.235 9095.654,3903.112   9416.883,3953.09 9403.285,4107.104 "
     id="polyline93" /><polyline
     fill="none"
     stroke="#0000FF"
     stroke-width="2"
     stroke-miterlimit="10"
     points="9424.537,4181.986 9442.709,3956.995   9706.811,4002.822 9668.533,4214.824 "
     id="polyline95" /><g
     id="g97"><linearGradient
       id="SVGID_3_"
       gradientUnits="userSpaceOnUse"
       x1="8801.1377"
       y1="3733.2637"
       x2="9451.7227"
       y2="3733.2637"><stop
         offset="0"
         style="stop-color:#F15A24"
         id="stop100" /><stop
         offset="0.3533"
         style="stop-color:#DF7643"
         id="stop102" /><stop
         offset="0.7672"
         style="stop-color:#CD9261"
         id="stop104" /><stop
         offset="1"
         style="stop-color:#C69C6D"
         id="stop106" /></linearGradient><path
       fill="url(#SVGID_3_)"
       d="M9155.85,3878.965l-354.712-48.265l43.778-248.54l-10.564-12.23l5.632-22.144l282.871,44.543   l-5.413,21.274l0.251,1.153c0.173,0.793,4.43,19.467,21.772,23.876c12.997,3.308,99.558,20.886,120.64,25.149l-7.104,65.464v0.268   c0,6.73,3.234,18.905,14.788,21.847c2.038,0.519,4.111,0.781,6.027,0.781c9.379,0,15.97-6.491,17.599-12.902   c0.967-3.797,8.697-52.686,11.369-69.691l148.939,28.81l-34.998,220.384L9155.85,3878.965z"
       id="path108" /><path
       fill="#0000FF"
       d="M8843.706,3553.435l272.949,42.98l-3.769,14.812l-0.582,2.288l0.503,2.307   c1.815,8.333,9.214,23.536,25.423,27.657c12.322,3.136,89.797,18.882,116.56,24.301l-6.596,60.672l-0.194,0.531v0.535   c0,8.173,4.03,22.99,18.556,26.688c2.439,0.62,4.928,0.936,7.26,0.936c12.487,0,20.405-8.642,22.444-16.667   c0.936-3.674,7.176-42.897,10.659-65.033l139.107,26.907l-33.46,210.7l-255.967-39.026l-0.078-0.013l-0.078-0.01l-349.48-47.554   l42.465-241.08l0.824-4.677l-3.104-3.595l-7.308-8.459L8843.706,3553.435 M8836.261,3542.139l-7.397,29.087l10.717,12.406   l-44.269,251.321l359.784,48.955l265.793,40.524l36.539-230.065l-158.764-30.712c0,0-10.981,70.112-12.061,74.353   c-0.909,3.577-4.958,9.134-12.719,9.134c-1.444,0-3.02-0.193-4.725-0.627c-10.872-2.768-10.883-17.005-10.883-17.005l7.42-69.727   c0,0-110.454-22.294-125-25.996c-14.547-3.698-18.119-20.095-18.119-20.095l6.475-25.448L8836.261,3542.139L8836.261,3542.139z"
       id="path110" /></g><polygon
     fill="none"
     stroke="#0000FF"
     stroke-width="2"
     stroke-miterlimit="10"
     points="9919.049,3770.833 9876.453,4008.08   9447.787,3925.469 9484.117,3699.886 "
     id="polygon112" /><polygon
     fill="none"
     stroke="#0000FF"
     stroke-width="2"
     stroke-miterlimit="10"
     points="9495.43,3644.26 9928.151,3717.174   9923.162,3740.931 9490.496,3671.103 "
     id="polygon114" /><polygon
     fill="none"
     stroke="#0000FF"
     stroke-width="2"
     stroke-miterlimit="10"
     points="9459.955,3668.562 9168.141,3614.962   9173.07,3595.571 9464.139,3638.864 "
     id="polygon116" /><polyline
     fill="none"
     stroke="#0000FF"
     stroke-width="2"
     stroke-miterlimit="10"
     points="9861.936,4133.916 9882.598,4038.03   9737.262,4009.146 9697.477,4210.915 "
     id="polyline118" /><polyline
     fill="none"
     stroke="#0000FF"
     stroke-width="2"
     stroke-miterlimit="10"
     points="9936.341,4013.904 9915.575,4009.86   9913.029,3989.425 9961.439,3724.749 9994.984,3730.956 "
     id="polyline120" /><polyline
     fill="none"
     stroke="#0000FF"
     stroke-width="2"
     stroke-miterlimit="10"
     points="7780.947,3878.707 7852.771,3898.283   7825.307,4006.243 7756.68,3986.702 "
     id="polyline122" /><polyline
     fill="none"
     stroke="#0000FF"
     stroke-width="2"
     stroke-miterlimit="10"
     points="7730.51,4032.353 7813.033,4054.474   7785.84,4161.362 7688.846,4136.038 "
     id="polyline124" /><g
     id="g126"><linearGradient
       id="SVGID_4_"
       gradientUnits="userSpaceOnUse"
       x1="7811.9336"
       y1="4042.0684"
       x2="8066.7832"
       y2="4042.0684"><stop
         offset="0"
         style="stop-color:#0092FF"
         id="stop129" /><stop
         offset="0.0751"
         style="stop-color:#1687F7"
         id="stop131" /><stop
         offset="0.421"
         style="stop-color:#7955D6"
         id="stop133" /><stop
         offset="0.7006"
         style="stop-color:#C131BE"
         id="stop135" /><stop
         offset="0.8998"
         style="stop-color:#EE1BAF"
         id="stop137" /><stop
         offset="1"
         style="stop-color:#FF12A9"
         id="stop139" /></linearGradient><path
       fill="url(#SVGID_4_)"
       d="M7974.455,4208.574c-0.747,0-1.518-0.079-2.289-0.235c-20.182-4.073-135.104-35.576-160.232-42.483   l81.435-290.293l173.415,48.344l-65.865,247.253c-0.039,0.15-2.599,10.051-7.534,19.726   C7989.268,4198.954,7982.643,4208.574,7974.455,4208.574z"
       id="path141" /><g
       id="g143"><path
         fill="#0000FF"
         d="M7896.834,3881.719l163.846,45.676l-64.594,242.478l-0.014,0.054l-0.014,0.055    c-0.024,0.092-2.398,9.314-7.062,18.503c-4.797,9.45-10.233,15.091-14.541,15.091c-0.421,0-0.846-0.045-1.301-0.137    c-18.941-3.823-122.621-32.172-155.049-41.072L7896.834,3881.719 M7889.902,3869.405l-84.141,299.938    c0,0,142.411,39.253,165.414,43.896c1.121,0.227,2.213,0.334,3.279,0.334c20.828,0,31.294-41.128,31.294-41.128l67.138-252.029    L7889.902,3869.405L7889.902,3869.405z"
         id="path145" /></g></g><polyline
     fill="none"
     stroke="#0000FF"
     stroke-width="2"
     stroke-miterlimit="10"
     points="7560.121,4571.934 7484.051,4584.127   7408.877,4567.69 7419.471,4556.478 7453.4,4565.112 7525.844,4559.898 "
     id="polyline147" /><path
     fill="none"
     stroke="#0000FF"
     stroke-width="2"
     stroke-miterlimit="10"
     d="M7181.143,4391.398l101.021,87.91l-9.336,42.412  l-52.723-13.412c0,0-8.215,2.797-11.268,7.183c-3.049,4.386-44.088,60.124-44.088,60.124l-14.955,58.775l-98.9-83.871  c0,0-6.008-4.756,3.13-12.752C7063.148,4529.768,7181.143,4391.398,7181.143,4391.398z"
     id="path149" /><polygon
     fill="none"
     stroke="#0000FF"
     stroke-width="2"
     stroke-miterlimit="10"
     points="7250.957,4549.348 7265.498,4553.047   7237.629,4660.057 7220.62,4663.523 "
     id="polygon151" /><polygon
     fill="none"
     stroke="#0000FF"
     stroke-width="2"
     stroke-miterlimit="10"
     points="7221.256,4544.18 7190.414,4665.373   7168.42,4673.327 7189.848,4586.516 "
     id="polygon153" /><line
     fill="none"
     stroke="#0000FF"
     stroke-width="2"
     stroke-miterlimit="10"
     x1="7027.934"
     y1="4566.294"
     x2="7138.621"
     y2="4661.226"
     id="line155" /><line
     fill="none"
     stroke="#0000FF"
     stroke-width="2"
     stroke-miterlimit="10"
     x1="7010.604"
     y1="4593.818"
     x2="7093.697"
     y2="4670.445"
     id="line157" /><path
     fill="none"
     stroke="#0000FF"
     stroke-width="2"
     stroke-miterlimit="10"
     d="M7089.123,4969.071l225.536-20.905l21.978,15.059  c0,0,5.615,11.748-0.863,13.539c-6.482,1.799-243.044,23.331-243.044,23.331L7089.123,4969.071z"
     id="path159" /><polygon
     fill="none"
     stroke="#0000FF"
     stroke-width="2"
     stroke-miterlimit="10"
     points="7096.355,5028.546 7096.693,5044.114   7337.818,5019.438 7335.645,5007.704 "
     id="polygon161" /><polygon
     fill="none"
     stroke="#0000FF"
     stroke-width="2"
     stroke-miterlimit="10"
     points="7097.593,5071.016 7340.744,5045.131   7342.085,5063.537 7099.74,5089.623 "
     id="polygon163" /><polygon
     fill="none"
     stroke="#0000FF"
     stroke-width="2"
     stroke-miterlimit="10"
     points="7088.631,4940.558 7090.906,4928.232   7306.295,4916.789 7307.281,4923.064 "
     id="polygon165" /><path
     fill="none"
     stroke="#0000FF"
     stroke-width="2"
     stroke-miterlimit="10"
     d="M7358.5,4929.981  c-1.441,5.665-7.205,9.091-12.873,7.648c-5.67-1.444-9.09-7.199-7.646-12.868c1.442-5.67,7.198-9.098,12.868-7.66  C7356.516,4918.546,7359.939,4924.311,7358.5,4929.981z"
     id="path167" /><path
     fill="none"
     stroke="#0000FF"
     stroke-width="2"
     stroke-miterlimit="10"
     d="M7373.75,5064.038l-9.191-105.755  c0,0,16.611-7.819,21.748-28.018l122.859-29.815l18.444-11.653l134.565-25.119l208.84-39.772l196.607-18.8l-9.734,155.489"
     id="path169" /><polygon
     fill="none"
     stroke="#0000FF"
     stroke-width="2"
     stroke-miterlimit="10"
     points="6754.574,5043.1 7067.777,5238.913   6777.674,5276.937 "
     id="polygon171" /><path
     fill="none"
     stroke="#0000FF"
     stroke-width="2"
     stroke-miterlimit="10"
     d="M6732.842,5028.969l-6.166,24.234l21.88,227.508  l-199.586,24.926l-100.256-21.209c0,0-21.523-9.777-0.575-37.997c20.944-28.22,229.594-252.133,229.594-252.133L6732.842,5028.969z"
     id="path173" /><polyline
     fill="none"
     stroke="#0000FF"
     stroke-width="2"
     stroke-miterlimit="10"
     points="6646.573,4672.463 6772.686,4725.121   6621.573,4886.25 6566.023,4874.697 6596.943,4695.24 "
     id="polyline175" /><polygon
     fill="none"
     stroke="#0000FF"
     stroke-width="2"
     stroke-miterlimit="10"
     points="6671.681,4895.559 6692.461,4908.586   6816.031,4754.214 6808.977,4748.117 "
     id="polygon177" /><polyline
     fill="none"
     stroke="#0000FF"
     stroke-width="2"
     stroke-miterlimit="10"
     points="6664.596,4650.312 6792.189,4702.556   6955.537,4513.571 6959.91,4482.856 7039.16,4387.754 6913.863,4275.007 6888.777,4304.086 "
     id="polyline179" /><polygon
     fill="none"
     stroke="#0000FF"
     stroke-width="2"
     stroke-miterlimit="10"
     points="5456.436,4070.766 5454.39,4009.171   5573.975,4012.92 5572.92,4150.598 5572.457,4175.607 5456.555,4124.911 "
     id="polygon181" /><polyline
     fill="none"
     stroke="#0000FF"
     stroke-width="2"
     stroke-miterlimit="10"
     points="5285.586,4007.706 5428.543,4009.485   5437.605,4121.062 5289.444,4064.738 "
     id="polyline183" /><path
     fill="none"
     stroke="#0000FF"
     stroke-width="2"
     stroke-miterlimit="10"
     d="M4046.991,3597.07l-319.741-135.687l-34.717-8.834  l-32.76,128.757c0,0-3.346,23.234-21.721,17.699c-18.376-5.538,0.77-40.235,0.77-40.235l31.628-117.545l-80.175-24.698  l-64.402,215.729l136.867,46.797c0,0,31.622-8.343,70.85,9.959c21.292,9.933,122.873,52.02,214.857,89.879"
     id="path185" /><polyline
     fill="none"
     stroke="#0000FF"
     stroke-width="2"
     stroke-miterlimit="10"
     points="3884.918,3255.392 3725.776,3264.33   3648.024,3241.968 3600.506,3388.159 3683.903,3415.398 3992.509,3540.225 "
     id="polyline187" /><polyline
     fill="none"
     stroke="#0000FF"
     stroke-width="2"
     stroke-miterlimit="10"
     points="4023.001,3076.572 4036.684,3075.255   4050.24,3223.973 3723.348,3237.098 3656.793,3221.217 3716.106,3104.737 "
     id="polyline189" /><polygon
     fill="none"
     stroke="#0000FF"
     stroke-width="2"
     stroke-miterlimit="10"
     points="3520.706,3664.639 3514.777,3680.332   3675.733,3728.166 3637.021,3701.109 "
     id="polygon191" /><polyline
     fill="none"
     stroke="#0000FF"
     stroke-width="2"
     stroke-miterlimit="10"
     points="4056.673,3850.611 3711.177,3713.959   3747.639,3746.459 4019.712,3850.501 "
     id="polyline193" /><polygon
     fill="none"
     stroke="#0000FF"
     stroke-width="2"
     stroke-miterlimit="10"
     points="3776.992,3786.616 3853.101,3815.441   3850.441,3822.512 "
     id="polygon195" /><line
     fill="none"
     stroke="#0000FF"
     stroke-width="2"
     stroke-miterlimit="10"
     x1="3879.528"
     y1="3829.91"
     x2="4095.929"
     y2="3915.933"
     id="line197" /><path
     fill="none"
     stroke="#0000FF"
     stroke-width="2"
     stroke-miterlimit="10"
     d="M3782.658,4070.425l60.998-221.257  c0,0-110.792-51.411-132.724-76.78l-207.201-61.314l-85.526,292.227l283.284,105.034"
     id="path199" /><g
     id="g201"><path
       fill="#0000FF"
       d="M2991.625,3071.901l601.359,177.158l-46.444,138.365l-0.054,0.162l-0.049,0.163l-172.85,579.616   l-585.813-179.862L2991.625,3071.901 M2984.772,3059.457l-209.3,734.729l604.817,185.697l175.73-589.277l49.747-148.206   L2984.772,3059.457L2984.772,3059.457z"
       id="path203" /></g><polygon
     fill="none"
     stroke="#0000FF"
     stroke-width="2"
     stroke-miterlimit="10"
     points="3081.03,3932.14 3243.986,3984.783   3190.804,4180.284 3022.373,4132.272 "
     id="polygon205" /><polygon
     fill="none"
     stroke="#0000FF"
     stroke-width="2"
     stroke-miterlimit="10"
     points="3271.646,3994.4 3377.47,4024.765   3391.647,4019.766 3409.17,4035.411 3600.582,4101.311 3543.798,4287.303 3218.866,4191.726 "
     id="polygon207" /><path
     fill="none"
     stroke="#0000FF"
     stroke-width="2"
     stroke-miterlimit="10"
     d="M3371.527,2980.757l-38.92,136.659l283.951,82.566  l68.52-133.601c0,0-56.492-28.075-81.132-83.668"
     id="path209" /><polyline
     fill="none"
     stroke="#0000FF"
     stroke-width="2"
     stroke-miterlimit="10"
     points="3337.091,3005.737 3307.467,3109.734   2997.88,3018.063 3072.262,2792.542 "
     id="polyline211" /><path
     fill="none"
     stroke="#0000FF"
     stroke-width="2"
     stroke-miterlimit="10"
     d="M3039.178,2804.705  c-25.65,76.689-65.804,198.093-65.804,198.093l-151.587-148.827"
     id="path213" /><path
     fill="none"
     stroke="#0000FF"
     stroke-width="2"
     stroke-miterlimit="10"
     d="M2749.251,2852.229l191.211,184.775l-32.063,126.038  l-177.009-63.099l13.223-61.151l-4.719-77.332l36.149,0.162l54.394,55.134c0,0,19.65,19.195,27.886,7.094  c8.24-12.1-8.965-30.667-8.965-30.667l-61.318-58.187l-48.154,0.654L2749.251,2852.229z"
     id="path215" /><polyline
     fill="none"
     stroke="#0000FF"
     stroke-width="2"
     stroke-miterlimit="10"
     points="2690.614,2817.478 2722.654,2831.91   2710.923,2954.091 2714.834,3035.086 2702.456,3093.872 2632.107,3073.011 "
     id="polyline217" /><polyline
     fill="none"
     stroke="#0000FF"
     stroke-width="2"
     stroke-miterlimit="10"
     points="2661.285,3116.668 2691.709,3125.979   2634.202,3316.514 2489.766,3270.739 "
     id="polyline219" /><line
     fill="none"
     stroke="#0000FF"
     stroke-width="2"
     stroke-miterlimit="10"
     x1="2489.766"
     y1="3270.739"
     x2="2358.921"
     y2="3229.276"
     id="line221" /><polygon
     fill="none"
     stroke="#0000FF"
     stroke-width="2"
     stroke-miterlimit="10"
     points="2720.2,3130.645 2903.462,3186.304   2845.665,3372.895 2662.074,3323.603 "
     id="polygon223" /><polygon
     fill="none"
     stroke="#0000FF"
     stroke-width="2"
     stroke-miterlimit="10"
     points="2648.845,3348.525 2837.449,3401.771   2823.006,3458.539 2632.342,3410.032 "
     id="polygon225" /><polygon
     fill="none"
     stroke="#0000FF"
     stroke-width="2"
     stroke-miterlimit="10"
     points="2269.684,3232.805 2626.227,3337.707   2613.234,3398.924 2257.309,3291.591 "
     id="polygon227" /><polyline
     fill="none"
     stroke="#0000FF"
     stroke-width="2"
     stroke-miterlimit="10"
     points="2258.409,3359.982 2586.447,3458.56   2572.616,3520.526 2243.334,3419.518 "
     id="polyline229" /><polygon
     fill="none"
     stroke="#0000FF"
     stroke-width="2"
     stroke-miterlimit="10"
     points="2615.935,3468.297 2770.712,3506.081   2799.903,3539.314 2789.112,3581.733 2602.275,3531.622 "
     id="polygon231" /><polygon
     fill="none"
     stroke="#0000FF"
     stroke-width="2"
     stroke-miterlimit="10"
     points="2594.937,3555.397 2782.326,3608.397   2732.765,3803.207 2525.107,3750.374 "
     id="polygon233" /><polyline
     fill="none"
     stroke="#0000FF"
     stroke-width="2"
     stroke-miterlimit="10"
     points="2241.589,3443.987 2568.345,3544.923   2500.813,3739.355 2236.437,3658.245 "
     id="polyline235" /><path
     fill="none"
     stroke="#0000FF"
     stroke-width="5.002"
     stroke-miterlimit="10"
     d="M4393.139,1058.794"
     id="path237" /><path
     fill="none"
     stroke="#0000FF"
     stroke-width="2"
     stroke-miterlimit="10"
     d="M7476.588,4338.294l-23.062,37.022l-26.957,112.713  l-19.594,43.191l-12.537,6.779l-21.092-1.344c-3.566-6.196-1.312-13.469-13.803-25.25c-12.487-11.775-160.37-140.582-160.37-140.582  l59.565-69.197"
     id="path239" /><linearGradient
     id="SVGID_5_"
     gradientUnits="userSpaceOnUse"
     x1="6982.6953"
     y1="577.3623"
     x2="7272.7285"
     y2="577.3623"><stop
       offset="0"
       style="stop-color:#FFFFFF"
       id="stop242" /><stop
       offset="0.1506"
       style="stop-color:#F3F3F3"
       id="stop244" /><stop
       offset="0.4194"
       style="stop-color:#D5D5D5"
       id="stop246" /><stop
       offset="0.7727"
       style="stop-color:#A3A3A3"
       id="stop248" /><stop
       offset="1"
       style="stop-color:#808080"
       id="stop250" /></linearGradient><polyline
     fill="url(#SVGID_5_)"
     stroke="#0000FF"
     stroke-width="10"
     stroke-miterlimit="10"
     points="6998.141,617.189   6997.722,619.02 6982.695,684.655 7267.997,685.843 7272.729,616.507 7270.231,585.768 7271.904,474.363 7023.832,468.881   7000.509,584.242 "
     id="polyline252" /><path
     fill="none"
     stroke="#0000FF"
     stroke-width="10"
     stroke-miterlimit="10"
     d="M7000.509,584.242"
     id="path254" /><linearGradient
     id="SVGID_6_"
     gradientUnits="userSpaceOnUse"
     x1="7299.3311"
     y1="580.4692"
     x2="7611.4961"
     y2="580.4692"><stop
       offset="0"
       style="stop-color:#C1272D"
       id="stop257" /><stop
       offset="0.1028"
       style="stop-color:#C5342A"
       id="stop259" /><stop
       offset="0.2937"
       style="stop-color:#CF5723"
       id="stop261" /><stop
       offset="0.5518"
       style="stop-color:#DF8F17"
       id="stop263" /><stop
       offset="0.864"
       style="stop-color:#F5DB07"
       id="stop265" /><stop
       offset="1"
       style="stop-color:#FFFF00"
       id="stop267" /></linearGradient><path
     fill="url(#SVGID_6_)"
     stroke="#0000FF"
     stroke-width="10"
     stroke-miterlimit="10"
     d="M7299.832,469.425l-0.501,218.371  l312.165,3.718l-40.691-181.539c0,0-14.377-44.945-75.857-39.943C7416.076,476.449,7299.832,469.425,7299.832,469.425z"
     id="path269" /><path
     fill="none"
     stroke="#0000FF"
     stroke-width="2"
     stroke-miterlimit="10"
     d="M6753.078,968.804l507.412-33.683l2.549-30.322  l-233.408,18.037c0,0-33.203,8.761-35.143-10.659c-1.934-19.42,50.644-23.246,94.331-25.896c43.689-2.646,170.28-6.571,170.28-6.571  l4.721-159.562l-292.85-1.521l-11.928,46.894c0,0-22.885,18.264-29.965,66.356c-7.07,48.094-26.984,51.631-39.533,53.599  c-12.543,1.969-58.709,7.428-58.709,7.428s-21.414-10.608-18.949-20.305c2.469-9.694,16.621-11.253,42.51-11.55  c25.879-0.297,37.971,6.219,46.225-32.971c8.256-39.192,14.396-56.55,25.764-67.424c11.356-10.876,29.186-114.729,29.186-114.729  l35.107-178.596l-21.799-8.992l-71.965-102.607c0,0,2.462-57.004,64.887-18.332c0,0,14.475,7.749,20.268,12.199  c10.879,8.353,19.209,35.805-13.264,25.266c-27.013-8.764-37.179-23.049-37.179-23.049l56.962,83.155l453.484,9.565l66.724,1.491  c0,0,75.849-7.368,89.903,65.886c16.133,84.021,41.136,173.049,41.136,173.049s0.849,35.72-29.497,40.04  c-30.35,4.325-313.309-4.797-313.309-4.797l-0.865,217.545c0,0,235.791,23.227,346.354,33.965"
     id="path271" /><path
     fill="none"
     stroke="#0000FF"
     stroke-width="2"
     stroke-miterlimit="10"
     d="M6476.026,749.771  c-35.708,80.21-76.56,194.486-50.883,249.818c0.833,1.79,170.334-20.323,170.334-20.323l157.601-10.462"
     id="path273" /><path
     fill="none"
     stroke="#0000FF"
     stroke-width="2"
     stroke-miterlimit="10"
     d="M6728.561,369.662l-18.592,112.272  c0,0,40.479,40.407,20.344,116.146c-20.129,75.742-45.109,150.249-45.109,150.249l-35.186,50.404c0,0-11.264,34.12-42.979,26.914  c-31.716-7.208-40.608-9.469-40.608-9.469l-4.302-33.784l60.39,16.221c0,0,41.938-70.185,61.648-140.874  c19.706-70.689,26.142-112.922-0.123-165.197c-13.134-26.137-10.464-48.468-4.509-64.264"
     id="path275" /><path
     fill="none"
     stroke="#0000FF"
     stroke-width="2"
     stroke-miterlimit="10"
     d="M8159.944,710.965  c36.964,14.042,71.097,27.206,71.097,27.206l-17.385-97.332l-236.369-95.186"
     id="path277" /><path
     fill="none"
     stroke="#0000FF"
     stroke-width="2"
     stroke-miterlimit="10"
     d="M8037.539,813.474  c-29.871-17.508-59.09-44.091-56.996-81.396c4.155-73.782,64.169-62.82,95.05-52.379c14.719,4.974,50.706,18.484,84.352,31.266"
     id="path279" /><path
     fill="none"
     stroke="#0000FF"
     stroke-width="2"
     stroke-miterlimit="10"
     d="M7642.518,971.713  c23.947,2.326,42.02,4.065,50.549,4.857c47.897,4.445,343.281,6.372,343.281,6.372l233.531-1.719l-8.354-82.154  c0,0-159.516-56.076-163.142-58.72c-1.794-1.309-31.632-9.753-60.845-26.875"
     id="path281" /><path
     fill="none"
     stroke="#0000FF"
     stroke-width="2"
     stroke-miterlimit="10"
     d="M7976.496,520.583l-23.145-9.625  c0,0-67.956-10.741-75.438-51.484c-7.474-40.745-38.376-63.843,6.954-85.089c3.328-1.559,3.277,0.834,3.277,0.834  s91.753,36.856,105.562,40.368c8.688,2.21,26.812,8.625,41.049,12.406"
     id="path283" /><path
     fill="none"
     stroke="#0000FF"
     stroke-width="15.0061"
     stroke-miterlimit="10"
     d="M7389.314,4548.731"
     id="path285" /><path
     fill="none"
     stroke="#0000FF"
     stroke-width="2"
     stroke-miterlimit="10"
     d="M7534.771,4119.055l441.67,121.241  c0,0,33.824-0.682,42.596-32.101c8.768-31.415,78.244-278.668,78.244-278.668l313.98,83.854c0,0-2.735,32.075,26.227,39.832  c4.763,1.274,14.766,3.852,28.158,7.268"
     id="path287" /><path
     fill="none"
     stroke="#0000FF"
     stroke-width="2"
     stroke-miterlimit="10"
     d="M7857.506,4801.872l-24.633,2.865l-231.682,41.71  l-80.354,18.258c0,0-16.16-4.109-32.946-2.356c-16.789,1.754-135.354,21.478-135.354,21.478s13.906-148.393,14.933-160.37  c7.856,0.882,7.428-15.449,7.428-15.449l22.112-113.944l81.818,16.513l73.244-9.764"
     id="path289" /><g
     id="g291"><path
       fill="#0000FF"
       d="M7310.811,4516.934l30.227,27.172c2.329,2.298,11.895,11.01,22.932,11.01c2.172,0,4.268-0.335,6.249-0.989   l-0.503,1.835l-0.069,0.253l-0.056,0.256l-31.296,143.284c-0.718,2.916-3.326,15.633,2.896,25.469   c1.548,2.446,3.5,4.49,5.799,6.092l-14.575,148.979c-6.779,2.504-10.454,4.078-12.661,5.216c-4.239-0.699-14.583-3.89-23.938-7.442   l-1.993-0.756l-2.128,0.121l-201.632,11.498l-0.887,0.051l-0.865,0.207c-1.146,0.273-11.496,2.898-21.919,10.77   c-14.521,10.965-21.97,26.574-21.542,45.14c0.864,37.305,14.461,143.981,15.039,148.505l0.122,0.948l0.299,0.908   c0.461,1.402,11.858,34.339,60.62,34.339c2.909,0,5.934-0.121,8.992-0.36c42.424-3.315,169.045-19.833,206.108-24.719   l10.376,89.157l-137.011,17.963c-16.652-7.175-54.3-24.066-64.196-31.555c-12.887-9.751-336.66-209.312-397.791-246.973   l140.656-185.539l104.626-113.02l73.888,63.414l0.842,0.722l0.979,0.521c1.02,0.541,25.251,13.264,50.01,13.264   c4.702,0,9.205-0.462,13.383-1.371c24.763-5.393,101.115-14.895,101.884-14.989l0.227-0.028l0.225-0.038   c1.241-0.212,30.475-5.475,37.916-30.319C7276.694,4650.383,7300.984,4555.45,7310.811,4516.934 M7305.203,4498.444   c0,0-36.998,145.426-42.74,164.614c-5.746,19.185-30.019,23.329-30.019,23.329s-77.282,9.589-102.78,15.142   c-3.674,0.8-7.46,1.143-11.255,1.143c-22.552,0-45.318-12.095-45.318-12.095l-81.196-69.687l-111.502,120.448l-147.607,194.708   c0,0,392.672,241.838,406.379,252.211c13.703,10.368,68.812,33.852,68.812,33.852l149.502-19.601l-12.689-109.037   c0,0-166.5,22.154-215.646,25.995c-2.871,0.225-5.602,0.33-8.213,0.33c-42.086,0-51.121-27.464-51.121-27.464   s-14.1-110.255-14.961-147.468c-0.857-37.207,35.784-45.951,35.784-45.951l201.632-11.499c0,0,21.676,8.235,28.787,8.235   c0.892,0,1.556-0.13,1.918-0.422c1.84-1.484,11.107-4.953,18.783-7.678l15.891-162.427c-14.748-2.892-9.611-23.089-9.611-23.089   l31.328-143.432l2.652-9.68l-11.482-6.325c-2.016,1.814-4.273,2.517-6.561,2.517c-7.852,0-16.057-8.275-16.057-8.275   L7305.203,4498.444L7305.203,4498.444z"
       id="path293" /></g><path
     fill="none"
     stroke="#0000FF"
     stroke-width="2"
     stroke-miterlimit="10"
     d="M5910.337,3957.664  c-24.097,8.166-145.313,48.81-175.929,50.547l-18.457,203.355l-3.94,23.604l199.522,77.194"
     id="path295" /><g
     id="g297"><g
       id="g299"><path
         fill="#0000FF"
         d="M5703.04,4010.019l-13.667,155.62l-8.413,55.695l-77.131-32.242l2.584-13.098l0.032-0.159l0.005-0.163    l5.271-162.551L5703.04,4010.019 M5705.229,4007.943l-95.447,3.242l-5.331,164.422l-2.9,14.699l81.004,33.861l8.805-58.293    L5705.229,4007.943L5705.229,4007.943z"
         id="path301" /></g></g><polyline
     fill="none"
     stroke="#0000FF"
     stroke-width="2"
     stroke-miterlimit="10"
     points="6127.22,3850.303 5949.668,3907.442   5946.959,3749.304 "
     id="polyline303" /><polyline
     fill="none"
     stroke="#0000FF"
     stroke-width="2"
     stroke-miterlimit="10"
     points="5724.555,3649.719 5707.79,3975.904   5607.877,3983.171 5615.577,3757.309 "
     id="polyline305" /><path
     fill="none"
     stroke="#0000FF"
     stroke-width="10"
     stroke-miterlimit="10"
     d="M6998.141,617.189"
     id="path307" /><line
     fill="none"
     stroke="#0000FF"
     stroke-width="10"
     stroke-miterlimit="10"
     x1="7000.509"
     y1="584.242"
     x2="6998.141"
     y2="617.189"
     id="line309" /><linearGradient
     id="SVGID_7_"
     gradientUnits="userSpaceOnUse"
     x1="5554.0752"
     y1="3592.083"
     x2="5818.1846"
     y2="3592.083"
     gradientTransform="matrix(0.978 -0.2084 0.2084 0.978 -637.7322 1320.0291)"><stop
       offset="0"
       style="stop-color:#ED3193"
       id="stop314" /><stop
       offset="1"
       style="stop-color:#F26122"
       id="stop316" /></linearGradient><polygon
     stroke-miterlimit="10"
     points="5630.252,3324.323   5740.598,3336.914 5707.604,3973.135 5607.689,3980.401 "
     id="polygon318"
     stroke-width="10"
     stroke="#0000FF"
     fill="url(#SVGID_7_)" /><polygon
     fill="none"
     stroke="#0000FF"
     stroke-width="2"
     stroke-miterlimit="10"
     points="5437.425,3306.326 5596.599,3319.727   5574.137,3981.119 5449.596,3978.68 "
     id="polygon320" /><path
     fill="none"
     stroke="#0000FF"
     stroke-width="2"
     stroke-miterlimit="10"
     d="M5768.108,3333.68l129.764,10.646l14.588,578.35  c0,0-145.629,59.146-177.342,51.231C5731.879,3973.095,5768.108,3333.68,5768.108,3333.68z"
     id="path322" /><polygon
     fill="none"
     stroke="#0000FF"
     stroke-width="2"
     stroke-miterlimit="10"
     points="3623.786,4113.26 3752.903,4155.2   3665.535,4442.255 3536.263,4409.363 "
     id="polygon324" /><path
     fill="none"
     stroke="#0000FF"
     stroke-width="2"
     stroke-miterlimit="10"
     d="M3812.257,4294.667l-23.519,79.796l-63.641,208.977  l-221.989-64.497l23.124-85.96l125.993,40.312c0,0,28.499,9.322,32.998-10.218l93.469-299.342l32.255,9.038"
     id="path326" /><g
     id="g328"><linearGradient
       id="SVGID_8_"
       gradientUnits="userSpaceOnUse"
       x1="3158.4873"
       y1="4361.4258"
       x2="3530.1118"
       y2="4361.4258"><stop
         offset="0"
         style="stop-color:#FF931E"
         id="stop331" /><stop
         offset="1"
         style="stop-color:#FF5350"
         id="stop333" /></linearGradient><polygon
       fill="url(#SVGID_8_)"
       points="3277.222,4448.05 3158.487,4400.771 3216.17,4218.037 3530.112,4307.254 3475.099,4504.813     "
       id="polygon335" /><path
       fill="#0000FF"
       d="M3219.476,4224.174l304.485,86.529l-52.327,187.914l-192.794-55.305l-114.186-45.467L3219.476,4224.174    M3212.864,4211.899l-60.544,191.799l123.283,49.089l202.96,58.222l57.699-207.205L3212.864,4211.899L3212.864,4211.899z"
       id="path337" /></g><polygon
     fill="none"
     stroke="#0000FF"
     stroke-width="2"
     stroke-miterlimit="10"
     points="3012.574,4153.867 3180.79,4206.127   3121.19,4389.674 2959.646,4338.252 "
     id="polygon339" /><path
     fill="none"
     stroke="#0000FF"
     stroke-width="2"
     stroke-miterlimit="10"
     d="M2048.375,3972.179l32.303-99.192l277.484,80.908  c0,0,24.835,8.894,28.533-5.65c3.702-14.539-23.861-22.842-23.861-22.842l-272.981-78.329l58.967-186.14l362.484,117.057  l231.475,58.89l301.798,86.79l-124.37,402.618l-538.767-161.234l-202.539-62.452"
     id="path341" /></svg>